<svg xmlns="http://www.w3.org/2000/svg" xmlns:xlink="http://www.w3.org/1999/xlink" id="body_8" preserveAspectRatio="xMinYMin meet" viewBox="0 0 793 1121"><defs><clipPath id="1"><path d="M0 841L0 -0.9199829L0 -0.9199829L595.32 -0.9199829L595.32 -0.9199829L595.32 841L595.32 841L0 841z" /></clipPath><clipPath id="2"><path d="M8.871E-06 841L595.32 841L595.32 841L595.32 -0.9199829L595.32 -0.9199829L8.871E-06 -0.9199829z" /></clipPath><clipPath id="3"><path d="M8.871E-06 841L595.32 841L595.32 841L595.32 -0.9199829L595.32 -0.9199829L8.871E-06 -0.9199829z" /></clipPath><clipPath id="4"><path d="M295.37 791.416L299.81 791.416L299.81 791.416L299.81 781.096L299.81 781.096L295.37 781.096z" /></clipPath><clipPath id="5"><path d="M295.37 791.416L299.81 791.416L299.81 791.416L299.81 781.096L299.81 781.096L295.37 781.096z" /></clipPath><clipPath id="6"><path d="M295.37 791.416L299.81 791.416L299.81 791.416L299.81 781.096L299.81 781.096L295.37 781.096z" /></clipPath><clipPath id="7"><path d="M74.304 318.09L518.734 318.09L518.734 318.09L518.734 84.67004L518.734 84.67004L74.304 84.67004z" /></clipPath><clipPath id="8"><path d="M74.304 318.09L518.734 318.09L518.734 318.09L518.734 84.67004L518.734 84.67004L74.304 84.67004z" /></clipPath><clipPath id="9"><path d="M74.304 318.09L518.734 318.09L518.734 318.09L518.734 84.67004L518.734 84.67004L74.304 84.67004z" /></clipPath><clipPath id="10"><path d="M74.304 318.09L518.734 318.09L518.734 318.09L518.734 84.67004L518.734 84.67004L74.304 84.67004z" /></clipPath><clipPath id="11"><path d="M74.304 318.09L518.734 318.09L518.734 318.09L518.734 84.67004L518.734 84.67004L74.304 84.67004z" /></clipPath><clipPath id="12"><path d="M74.304 318.09L518.734 318.09L518.734 318.09L518.734 84.67004L518.734 84.67004L74.304 84.67004z" /></clipPath><clipPath id="13"><path d="M74.304 318.09L518.734 318.09L518.734 318.09L518.734 84.67004L518.734 84.67004L74.304 84.67004z" /></clipPath><clipPath id="14"><path d="M74.304 318.09L518.734 318.09L518.734 318.09L518.734 84.67004L518.734 84.67004L74.304 84.67004z" /></clipPath><clipPath id="15"><path d="M74.304 318.09L518.734 318.09L518.734 318.09L518.734 84.67004L518.734 84.67004L74.304 84.67004z" /></clipPath><clipPath id="16"><path d="M74.304 318.09L518.734 318.09L518.734 318.09L518.734 84.67004L518.734 84.67004L74.304 84.67004z" /></clipPath><clipPath id="17"><path d="M74.304 318.09L518.734 318.09L518.734 318.09L518.734 84.67004L518.734 84.67004L74.304 84.67004z" /></clipPath><clipPath id="18"><path d="M74.304 318.09L518.734 318.09L518.734 318.09L518.734 84.67004L518.734 84.67004L74.304 84.67004z" /></clipPath><clipPath id="19"><path d="M74.304 318.09L518.734 318.09L518.734 318.09L518.734 84.67004L518.734 84.67004L74.304 84.67004z" /></clipPath><clipPath id="20"><path d="M74.304 318.09L518.734 318.09L518.734 318.09L518.734 84.67004L518.734 84.67004L74.304 84.67004z" /></clipPath><clipPath id="21"><path d="M74.304 318.09L518.734 318.09L518.734 318.09L518.734 84.67004L518.734 84.67004L74.304 84.67004z" /></clipPath><clipPath id="22"><path d="M74.304 318.09L518.734 318.09L518.734 318.09L518.734 84.67004L518.734 84.67004L74.304 84.67004z" /></clipPath><clipPath id="23"><path d="M74.304 318.09L518.734 318.09L518.734 318.09L518.734 84.67004L518.734 84.67004L74.304 84.67004z" /></clipPath><clipPath id="24"><path d="M74.304 318.09L518.734 318.09L518.734 318.09L518.734 84.67004L518.734 84.67004L74.304 84.67004z" /></clipPath><clipPath id="25"><path d="M74.304 318.09L518.734 318.09L518.734 318.09L518.734 84.67004L518.734 84.67004L74.304 84.67004z" /></clipPath><clipPath id="26"><path d="M74.304 318.09L518.734 318.09L518.734 318.09L518.734 84.67004L518.734 84.67004L74.304 84.67004z" /></clipPath><clipPath id="27"><path d="M74.304 318.09L518.734 318.09L518.734 318.09L518.734 84.67004L518.734 84.67004L74.304 84.67004z" /></clipPath><clipPath id="28"><path d="M74.304 318.09L518.734 318.09L518.734 318.09L518.734 84.67004L518.734 84.67004L74.304 84.67004z" /></clipPath><clipPath id="29"><path d="M74.304 318.09L518.734 318.09L518.734 318.09L518.734 84.67004L518.734 84.67004L74.304 84.67004z" /></clipPath><clipPath id="30"><path d="M74.304 318.09L518.734 318.09L518.734 318.09L518.734 84.67004L518.734 84.67004L74.304 84.67004z" /></clipPath><clipPath id="31"><path d="M74.304 318.09L518.734 318.09L518.734 318.09L518.734 84.67004L518.734 84.67004L74.304 84.67004z" /></clipPath><clipPath id="32"><path d="M74.304 318.09L518.734 318.09L518.734 318.09L518.734 84.67004L518.734 84.67004L74.304 84.67004z" /></clipPath><clipPath id="33"><path d="M74.304 318.09L518.734 318.09L518.734 318.09L518.734 84.67004L518.734 84.67004L74.304 84.67004z" /></clipPath><clipPath id="34"><path d="M74.304 318.09L518.734 318.09L518.734 318.09L518.734 84.67004L518.734 84.67004L74.304 84.67004z" /></clipPath><clipPath id="35"><path d="M74.304 318.09L518.734 318.09L518.734 318.09L518.734 84.67004L518.734 84.67004L74.304 84.67004z" /></clipPath><clipPath id="36"><path d="M74.304 318.09L518.734 318.09L518.734 318.09L518.734 84.67004L518.734 84.67004L74.304 84.67004z" /></clipPath><clipPath id="37"><path d="M74.304 509.51L518.734 509.51L518.734 509.51L518.734 318.57L518.734 318.57L74.304 318.57z" /></clipPath><clipPath id="38"><path d="M74.304 509.51L518.734 509.51L518.734 509.51L518.734 318.57L518.734 318.57L74.304 318.57z" /></clipPath><clipPath id="39"><path d="M74.304 509.51L518.734 509.51L518.734 509.51L518.734 318.57L518.734 318.57L74.304 318.57z" /></clipPath><clipPath id="40"><path d="M74.304 509.51L518.734 509.51L518.734 509.51L518.734 318.57L518.734 318.57L74.304 318.57z" /></clipPath><clipPath id="41"><path d="M74.304 509.51L518.734 509.51L518.734 509.51L518.734 318.57L518.734 318.57L74.304 318.57z" /></clipPath><clipPath id="42"><path d="M74.304 509.51L518.734 509.51L518.734 509.51L518.734 318.57L518.734 318.57L74.304 318.57z" /></clipPath><clipPath id="43"><path d="M74.304 509.51L518.734 509.51L518.734 509.51L518.734 318.57L518.734 318.57L74.304 318.57z" /></clipPath><clipPath id="44"><path d="M74.304 509.51L518.734 509.51L518.734 509.51L518.734 318.57L518.734 318.57L74.304 318.57z" /></clipPath><clipPath id="45"><path d="M74.304 509.51L518.734 509.51L518.734 509.51L518.734 318.57L518.734 318.57L74.304 318.57z" /></clipPath><clipPath id="46"><path d="M74.304 509.51L518.734 509.51L518.734 509.51L518.734 318.57L518.734 318.57L74.304 318.57z" /></clipPath><clipPath id="47"><path d="M74.304 509.51L518.734 509.51L518.734 509.51L518.734 318.57L518.734 318.57L74.304 318.57z" /></clipPath><clipPath id="48"><path d="M74.304 509.51L518.734 509.51L518.734 509.51L518.734 318.57L518.734 318.57L74.304 318.57z" /></clipPath><clipPath id="49"><path d="M74.304 509.51L518.734 509.51L518.734 509.51L518.734 318.57L518.734 318.57L74.304 318.57z" /></clipPath><clipPath id="50"><path d="M74.304 509.51L518.734 509.51L518.734 509.51L518.734 318.57L518.734 318.57L74.304 318.57z" /></clipPath><clipPath id="51"><path d="M74.304 509.51L518.734 509.51L518.734 509.51L518.734 318.57L518.734 318.57L74.304 318.57z" /></clipPath><clipPath id="52"><path d="M74.304 509.51L518.734 509.51L518.734 509.51L518.734 318.57L518.734 318.57L74.304 318.57z" /></clipPath><clipPath id="53"><path d="M74.304 509.51L518.734 509.51L518.734 509.51L518.734 318.57L518.734 318.57L74.304 318.57z" /></clipPath><clipPath id="54"><path d="M74.304 509.51L518.734 509.51L518.734 509.51L518.734 318.57L518.734 318.57L74.304 318.57z" /></clipPath><clipPath id="55"><path d="M74.304 509.51L518.734 509.51L518.734 509.51L518.734 318.57L518.734 318.57L74.304 318.57z" /></clipPath><clipPath id="56"><path d="M74.304 665.42L518.734 665.42L518.734 665.42L518.734 510L518.734 510L74.304 510z" /></clipPath><clipPath id="57"><path d="M74.304 665.42L518.734 665.42L518.734 665.42L518.734 510L518.734 510L74.304 510z" /></clipPath><clipPath id="58"><path d="M74.304 665.42L518.734 665.42L518.734 665.42L518.734 510L518.734 510L74.304 510z" /></clipPath><clipPath id="59"><path d="M74.304 665.42L518.734 665.42L518.734 665.42L518.734 510L518.734 510L74.304 510z" /></clipPath><clipPath id="60"><path d="M74.304 665.42L518.734 665.42L518.734 665.42L518.734 510L518.734 510L74.304 510z" /></clipPath><clipPath id="61"><path d="M74.304 665.42L518.734 665.42L518.734 665.42L518.734 510L518.734 510L74.304 510z" /></clipPath><clipPath id="62"><path d="M74.304 665.42L518.734 665.42L518.734 665.42L518.734 510L518.734 510L74.304 510z" /></clipPath><clipPath id="63"><path d="M74.304 665.42L518.734 665.42L518.734 665.42L518.734 510L518.734 510L74.304 510z" /></clipPath><clipPath id="64"><path d="M74.304 665.42L518.734 665.42L518.734 665.42L518.734 510L518.734 510L74.304 510z" /></clipPath><clipPath id="65"><path d="M74.304 665.42L518.734 665.42L518.734 665.42L518.734 510L518.734 510L74.304 510z" /></clipPath><clipPath id="66"><path d="M74.304 665.42L518.734 665.42L518.734 665.42L518.734 510L518.734 510L74.304 510z" /></clipPath><clipPath id="67"><path d="M74.304 665.42L518.734 665.42L518.734 665.42L518.734 510L518.734 510L74.304 510z" /></clipPath><clipPath id="68"><path d="M74.304 665.42L518.734 665.42L518.734 665.42L518.734 510L518.734 510L74.304 510z" /></clipPath><clipPath id="69"><path d="M74.304 665.42L518.734 665.42L518.734 665.42L518.734 510L518.734 510L74.304 510z" /></clipPath><clipPath id="70"><path d="M74.304 665.42L518.734 665.42L518.734 665.42L518.734 510L518.734 510L74.304 510z" /></clipPath><clipPath id="71"><path d="M74.304 665.42L518.734 665.42L518.734 665.42L518.734 510L518.734 510L74.304 510z" /></clipPath><clipPath id="72"><path d="M74.304 665.42L518.734 665.42L518.734 665.42L518.734 510L518.734 510L74.304 510z" /></clipPath><clipPath id="73"><path d="M74.304 665.42L518.734 665.42L518.734 665.42L518.734 510L518.734 510L74.304 510z" /></clipPath></defs><g transform="matrix(1.333333 0 0 1.333333 0 0)"><g><g clip-path="url(#1)"><g clip-path="url(#2)"></g><g clip-path="url(#3)"></g><g clip-path="url(#4)"><g clip-path="url(#5)"></g><g clip-path="url(#6)"></g></g><g clip-path="url(#7)"><g clip-path="url(#8)"></g><g clip-path="url(#9)"></g><g clip-path="url(#10)"></g><g clip-path="url(#11)"></g><g clip-path="url(#12)"></g><g clip-path="url(#13)"></g><g clip-path="url(#14)"></g><g clip-path="url(#15)"></g><g clip-path="url(#16)"></g><g clip-path="url(#17)"></g><g clip-path="url(#18)"></g><g clip-path="url(#19)"></g><g clip-path="url(#20)"></g><g clip-path="url(#21)"></g><g clip-path="url(#22)"></g><g clip-path="url(#23)"></g><g clip-path="url(#24)"></g><g clip-path="url(#25)"></g><g clip-path="url(#26)"></g><g clip-path="url(#27)"></g><g clip-path="url(#28)"></g><g clip-path="url(#29)"></g><g clip-path="url(#30)"></g><g clip-path="url(#31)"></g><g clip-path="url(#32)"></g><g clip-path="url(#33)"></g><g clip-path="url(#34)"></g><g clip-path="url(#35)"></g><g clip-path="url(#36)"></g></g><path transform="matrix(1 0 0 -1 0 841)" d="M73.824 756.34L74.304 756.34L74.304 756.34L74.304 756.82L74.304 756.82L73.824 756.82z" stroke="none" fill="#000000" fill-rule="evenodd" /><path transform="matrix(1 0 0 -1 0 841)" d="M73.824 756.34L74.304 756.34L74.304 756.34L74.304 756.82L74.304 756.82L73.824 756.82z" stroke="none" fill="#000000" fill-rule="evenodd" /><path transform="matrix(1 0 0 -1 0 841)" d="M74.304 756.34L518.734 756.34L518.734 756.34L518.734 756.82L518.734 756.82L74.304 756.82z" stroke="none" fill="#000000" fill-rule="evenodd" /><path transform="matrix(1 0 0 -1 0 841)" d="M518.74 756.34L519.22 756.34L519.22 756.34L519.22 756.82L519.22 756.82L518.74 756.82z" stroke="none" fill="#000000" fill-rule="evenodd" /><path transform="matrix(1 0 0 -1 0 841)" d="M518.74 756.34L519.22 756.34L519.22 756.34L519.22 756.82L519.22 756.82L518.74 756.82z" stroke="none" fill="#000000" fill-rule="evenodd" /><path transform="matrix(1 0 0 -1 0 841)" d="M73.824 522.91L74.304 522.91L74.304 522.91L74.304 756.33L74.304 756.33L73.824 756.33z" stroke="none" fill="#000000" fill-rule="evenodd" /><path transform="matrix(1 0 0 -1 0 841)" d="M518.74 522.91L519.22 522.91L519.22 522.91L519.22 756.33L519.22 756.33L518.74 756.33z" stroke="none" fill="#000000" fill-rule="evenodd" /><g clip-path="url(#37)"><g clip-path="url(#38)"></g><g clip-path="url(#39)"></g><g clip-path="url(#40)"></g><g clip-path="url(#41)"></g><g clip-path="url(#42)"></g><g clip-path="url(#43)"></g><g clip-path="url(#44)"></g><g clip-path="url(#45)"></g><g clip-path="url(#46)"></g><g clip-path="url(#47)"></g><g clip-path="url(#48)"></g><g clip-path="url(#49)"></g><g clip-path="url(#50)"></g><g clip-path="url(#51)"></g><g clip-path="url(#52)"></g><g clip-path="url(#53)"></g><g clip-path="url(#54)"></g><g clip-path="url(#55)"></g></g><path transform="matrix(1 0 0 -1 0 841)" d="M73.824 522.43L74.304 522.43L74.304 522.43L74.304 522.91L74.304 522.91L73.824 522.91z" stroke="none" fill="#000000" fill-rule="evenodd" /><path transform="matrix(1 0 0 -1 0 841)" d="M74.304 522.43L518.734 522.43L518.734 522.43L518.734 522.91L518.734 522.91L74.304 522.91z" stroke="none" fill="#000000" fill-rule="evenodd" /><path transform="matrix(1 0 0 -1 0 841)" d="M518.74 522.43L519.22 522.43L519.22 522.43L519.22 522.91L519.22 522.91L518.74 522.91z" stroke="none" fill="#000000" fill-rule="evenodd" /><path transform="matrix(1 0 0 -1 0 841)" d="M73.824 331.49L74.304 331.49L74.304 331.49L74.304 522.43L74.304 522.43L73.824 522.43z" stroke="none" fill="#000000" fill-rule="evenodd" /><path transform="matrix(1 0 0 -1 0 841)" d="M518.74 331.49L519.22 331.49L519.22 331.49L519.22 522.43L519.22 522.43L518.74 522.43z" stroke="none" fill="#000000" fill-rule="evenodd" /><g clip-path="url(#56)"><g clip-path="url(#57)"></g><g clip-path="url(#58)"></g><g clip-path="url(#59)"></g><g clip-path="url(#60)"></g><g clip-path="url(#61)"></g><g clip-path="url(#62)"></g><g clip-path="url(#63)"></g><g clip-path="url(#64)"></g><g clip-path="url(#65)"></g><g clip-path="url(#66)"></g><g clip-path="url(#67)"></g><g clip-path="url(#68)"></g><g clip-path="url(#69)"></g><g clip-path="url(#70)"></g><g clip-path="url(#71)"></g><g clip-path="url(#72)"></g><g clip-path="url(#73)"></g></g><path transform="matrix(1 0 0 -1 0 841)" d="M73.824 331.01L74.304 331.01L74.304 331.01L74.304 331.49L74.304 331.49L73.824 331.49z" stroke="none" fill="#000000" fill-rule="evenodd" /><path transform="matrix(1 0 0 -1 0 841)" d="M74.304 331.01L518.734 331.01L518.734 331.01L518.734 331.49L518.734 331.49L74.304 331.49z" stroke="none" fill="#000000" fill-rule="evenodd" /><path transform="matrix(1 0 0 -1 0 841)" d="M518.74 331.01L519.22 331.01L519.22 331.01L519.22 331.49L519.22 331.49L518.74 331.49z" stroke="none" fill="#000000" fill-rule="evenodd" /><path transform="matrix(1 0 0 -1 0 841)" d="M73.824 175.58L74.304 175.58L74.304 175.58L74.304 331L74.304 331L73.824 331z" stroke="none" fill="#000000" fill-rule="evenodd" /><path transform="matrix(1 0 0 -1 0 841)" d="M73.824 175.1L74.304 175.1L74.304 175.1L74.304 175.58L74.304 175.58L73.824 175.58z" stroke="none" fill="#000000" fill-rule="evenodd" /><path transform="matrix(1 0 0 -1 0 841)" d="M73.824 175.1L74.304 175.1L74.304 175.1L74.304 175.58L74.304 175.58L73.824 175.58z" stroke="none" fill="#000000" fill-rule="evenodd" /><path transform="matrix(1 0 0 -1 0 841)" d="M74.304 175.1L518.734 175.1L518.734 175.1L518.734 175.58L518.734 175.58L74.304 175.58z" stroke="none" fill="#000000" fill-rule="evenodd" /><path transform="matrix(1 0 0 -1 0 841)" d="M518.74 175.58L519.22 175.58L519.22 175.58L519.22 331L519.22 331L518.74 331z" stroke="none" fill="#000000" fill-rule="evenodd" /><path transform="matrix(1 0 0 -1 0 841)" d="M518.74 175.1L519.22 175.1L519.22 175.1L519.22 175.58L519.22 175.58L518.74 175.58z" stroke="none" fill="#000000" fill-rule="evenodd" /><path transform="matrix(1 0 0 -1 0 841)" d="M518.74 175.1L519.22 175.1L519.22 175.1L519.22 175.58L519.22 175.58L518.74 175.58z" stroke="none" fill="#000000" fill-rule="evenodd" /></g></g></g></svg>