<svg xmlns="http://www.w3.org/2000/svg" xmlns:xlink="http://www.w3.org/1999/xlink" id="body_3" preserveAspectRatio="xMinYMin meet" viewBox="0 0 793 1121"><defs><clipPath id="1"><path d="M0 841L0 -0.9199829L0 -0.9199829L595.32 -0.9199829L595.32 -0.9199829L595.32 841L595.32 841L0 841z" /></clipPath><clipPath id="2"><path d="M8.871E-06 841L595.32 841L595.32 841L595.32 -0.9199829L595.32 -0.9199829L8.871E-06 -0.9199829z" /></clipPath><clipPath id="3"><path d="M8.871E-06 841L595.32 841L595.32 841L595.32 -0.9199829L595.32 -0.9199829L8.871E-06 -0.9199829z" /></clipPath><clipPath id="4"><path d="M295.37 791.416L299.81 791.416L299.81 791.416L299.81 781.096L299.81 781.096L295.37 781.096z" /></clipPath><clipPath id="5"><path d="M295.37 791.416L299.81 791.416L299.81 791.416L299.81 781.096L299.81 781.096L295.37 781.096z" /></clipPath><clipPath id="6"><path d="M295.37 791.416L299.81 791.416L299.81 791.416L299.81 781.096L299.81 781.096L295.37 781.096z" /></clipPath><clipPath id="7"><path d="M97.584 211.74L164.184 211.74L164.184 211.74L164.184 84.65997L164.184 84.65997L97.584 84.65997z" /></clipPath><clipPath id="8"><path d="M97.584 211.74L164.184 211.74L164.184 211.74L164.184 84.65997L164.184 84.65997L97.584 84.65997z" /></clipPath><clipPath id="9"><path d="M97.584 211.74L164.184 211.74L164.184 211.74L164.184 84.65997L164.184 84.65997L97.584 84.65997z" /></clipPath><clipPath id="10"><path d="M164.66 211.74L518.73 211.74L518.73 211.74L518.73 84.65997L518.73 84.65997L164.66 84.65997z" /></clipPath><clipPath id="11"><path d="M164.66 211.74L518.73 211.74L518.73 211.74L518.73 84.65997L518.73 84.65997L164.66 84.65997z" /></clipPath><clipPath id="12"><path d="M164.66 211.74L518.73 211.74L518.73 211.74L518.73 84.65997L518.73 84.65997L164.66 84.65997z" /></clipPath><clipPath id="13"><path d="M164.66 211.74L518.73 211.74L518.73 211.74L518.73 84.65997L518.73 84.65997L164.66 84.65997z" /></clipPath><clipPath id="14"><path d="M164.66 211.74L518.73 211.74L518.73 211.74L518.73 84.65997L518.73 84.65997L164.66 84.65997z" /></clipPath><clipPath id="15"><path d="M164.66 211.74L518.73 211.74L518.73 211.74L518.73 84.65997L518.73 84.65997L164.66 84.65997z" /></clipPath><clipPath id="16"><path d="M164.66 211.74L518.73 211.74L518.73 211.74L518.73 84.65997L518.73 84.65997L164.66 84.65997z" /></clipPath><clipPath id="17"><path d="M164.66 211.74L518.73 211.74L518.73 211.74L518.73 84.65997L518.73 84.65997L164.66 84.65997z" /></clipPath><clipPath id="18"><path d="M164.66 211.74L518.73 211.74L518.73 211.74L518.73 84.65997L518.73 84.65997L164.66 84.65997z" /></clipPath><clipPath id="19"><path d="M170.42 147.66L363.07 147.66L363.07 147.66L363.07 134.1L363.07 134.1L170.42 134.1z" /></clipPath><clipPath id="20"><path d="M170.42 147.66L363.07 147.66L363.07 147.66L363.07 134.1L363.07 134.1L170.42 134.1z" /></clipPath><clipPath id="21"><path d="M170.42 147.66L363.07 147.66L363.07 147.66L363.07 134.1L363.07 134.1L170.42 134.1z" /></clipPath><clipPath id="22"><path d="M170.42 147.66L363.07 147.66L363.07 147.66L363.07 134.1L363.07 134.1L170.42 134.1z" /></clipPath><clipPath id="23"><path d="M170.42 147.66L363.07 147.66L363.07 147.66L363.07 134.1L363.07 134.1L170.42 134.1z" /></clipPath><clipPath id="24"><path d="M363.55 147.66L507.21 147.66L507.21 147.66L507.21 134.1L507.21 134.1L363.55 134.1z" /></clipPath><clipPath id="25"><path d="M363.55 147.66L507.21 147.66L507.21 147.66L507.21 134.1L507.21 134.1L363.55 134.1z" /></clipPath><clipPath id="26"><path d="M363.55 147.66L507.21 147.66L507.21 147.66L507.21 134.1L507.21 134.1L363.55 134.1z" /></clipPath><clipPath id="27"><path d="M363.55 147.66L507.21 147.66L507.21 147.66L507.21 134.1L507.21 134.1L363.55 134.1z" /></clipPath><clipPath id="28"><path d="M363.55 147.66L507.21 147.66L507.21 147.66L507.21 134.1L507.21 134.1L363.55 134.1z" /></clipPath><clipPath id="29"><path d="M170.42 161.82L363.07 161.82L363.07 161.82L363.07 148.26L363.07 148.26L170.42 148.26z" /></clipPath><clipPath id="30"><path d="M170.42 161.82L363.07 161.82L363.07 161.82L363.07 148.26L363.07 148.26L170.42 148.26z" /></clipPath><clipPath id="31"><path d="M170.42 161.82L363.07 161.82L363.07 161.82L363.07 148.26L363.07 148.26L170.42 148.26z" /></clipPath><clipPath id="32"><path d="M170.42 161.82L363.07 161.82L363.07 161.82L363.07 148.26L363.07 148.26L170.42 148.26z" /></clipPath><clipPath id="33"><path d="M170.42 161.82L363.07 161.82L363.07 161.82L363.07 148.26L363.07 148.26L170.42 148.26z" /></clipPath><clipPath id="34"><path d="M170.42 161.82L363.07 161.82L363.07 161.82L363.07 148.26L363.07 148.26L170.42 148.26z" /></clipPath><clipPath id="35"><path d="M170.42 161.82L363.07 161.82L363.07 161.82L363.07 148.26L363.07 148.26L170.42 148.26z" /></clipPath><clipPath id="36"><path d="M363.55 161.82L507.21 161.82L507.21 161.82L507.21 148.26L507.21 148.26L363.55 148.26z" /></clipPath><clipPath id="37"><path d="M363.55 161.82L507.21 161.82L507.21 161.82L507.21 148.26L507.21 148.26L363.55 148.26z" /></clipPath><clipPath id="38"><path d="M363.55 161.82L507.21 161.82L507.21 161.82L507.21 148.26L507.21 148.26L363.55 148.26z" /></clipPath><clipPath id="39"><path d="M363.55 161.82L507.21 161.82L507.21 161.82L507.21 148.26L507.21 148.26L363.55 148.26z" /></clipPath><clipPath id="40"><path d="M363.55 161.82L507.21 161.82L507.21 161.82L507.21 148.26L507.21 148.26L363.55 148.26z" /></clipPath><clipPath id="41"><path d="M170.42 175.98L363.07 175.98L363.07 175.98L363.07 162.3L363.07 162.3L170.42 162.3z" /></clipPath><clipPath id="42"><path d="M170.42 175.98L363.07 175.98L363.07 175.98L363.07 162.3L363.07 162.3L170.42 162.3z" /></clipPath><clipPath id="43"><path d="M170.42 175.98L363.07 175.98L363.07 175.98L363.07 162.3L363.07 162.3L170.42 162.3z" /></clipPath><clipPath id="44"><path d="M363.55 175.98L507.21 175.98L507.21 175.98L507.21 162.3L507.21 162.3L363.55 162.3z" /></clipPath><clipPath id="45"><path d="M363.55 175.98L507.21 175.98L507.21 175.98L507.21 162.3L507.21 162.3L363.55 162.3z" /></clipPath><clipPath id="46"><path d="M363.55 175.98L507.21 175.98L507.21 175.98L507.21 162.3L507.21 162.3L363.55 162.3z" /></clipPath><clipPath id="47"><path d="M363.55 175.98L507.21 175.98L507.21 175.98L507.21 162.3L507.21 162.3L363.55 162.3z" /></clipPath><clipPath id="48"><path d="M363.55 175.98L507.21 175.98L507.21 175.98L507.21 162.3L507.21 162.3L363.55 162.3z" /></clipPath><clipPath id="49"><path d="M164.66 211.74L518.73 211.74L518.73 211.74L518.73 84.65997L518.73 84.65997L164.66 84.65997z" /></clipPath><clipPath id="50"><path d="M74.304 744.736L518.734 744.736L518.734 744.736L518.734 212.226L518.734 212.226L74.304 212.226z" /></clipPath><clipPath id="51"><path d="M74.304 744.736L518.734 744.736L518.734 744.736L518.734 212.226L518.734 212.226L74.304 212.226z" /></clipPath><clipPath id="52"><path d="M74.304 744.736L518.734 744.736L518.734 744.736L518.734 212.226L518.734 212.226L74.304 212.226z" /></clipPath><clipPath id="53"><path d="M74.304 744.736L518.734 744.736L518.734 744.736L518.734 212.226L518.734 212.226L74.304 212.226z" /></clipPath><clipPath id="54"><path d="M74.304 744.736L518.734 744.736L518.734 744.736L518.734 212.226L518.734 212.226L74.304 212.226z" /></clipPath><clipPath id="55"><path d="M74.304 744.736L518.734 744.736L518.734 744.736L518.734 212.226L518.734 212.226L74.304 212.226z" /></clipPath><clipPath id="56"><path d="M74.304 744.736L518.734 744.736L518.734 744.736L518.734 212.226L518.734 212.226L74.304 212.226z" /></clipPath><clipPath id="57"><path d="M74.304 744.736L518.734 744.736L518.734 744.736L518.734 212.226L518.734 212.226L74.304 212.226z" /></clipPath><clipPath id="58"><path d="M74.304 744.736L518.734 744.736L518.734 744.736L518.734 212.226L518.734 212.226L74.304 212.226z" /></clipPath><clipPath id="59"><path d="M74.304 744.736L518.734 744.736L518.734 744.736L518.734 212.226L518.734 212.226L74.304 212.226z" /></clipPath><clipPath id="60"><path d="M74.304 744.736L518.734 744.736L518.734 744.736L518.734 212.226L518.734 212.226L74.304 212.226z" /></clipPath><clipPath id="61"><path d="M74.304 744.736L518.734 744.736L518.734 744.736L518.734 212.226L518.734 212.226L74.304 212.226z" /></clipPath><clipPath id="62"><path d="M74.304 744.736L518.734 744.736L518.734 744.736L518.734 212.226L518.734 212.226L74.304 212.226z" /></clipPath><clipPath id="63"><path d="M74.304 744.736L518.734 744.736L518.734 744.736L518.734 212.226L518.734 212.226L74.304 212.226z" /></clipPath><clipPath id="64"><path d="M74.304 744.736L518.734 744.736L518.734 744.736L518.734 212.226L518.734 212.226L74.304 212.226z" /></clipPath><clipPath id="65"><path d="M74.304 744.736L518.734 744.736L518.734 744.736L518.734 212.226L518.734 212.226L74.304 212.226z" /></clipPath><clipPath id="66"><path d="M74.304 744.736L518.734 744.736L518.734 744.736L518.734 212.226L518.734 212.226L74.304 212.226z" /></clipPath><clipPath id="67"><path d="M74.304 744.736L518.734 744.736L518.734 744.736L518.734 212.226L518.734 212.226L74.304 212.226z" /></clipPath><clipPath id="68"><path d="M74.304 744.736L518.734 744.736L518.734 744.736L518.734 212.226L518.734 212.226L74.304 212.226z" /></clipPath><clipPath id="69"><path d="M74.304 744.736L518.734 744.736L518.734 744.736L518.734 212.226L518.734 212.226L74.304 212.226z" /></clipPath><clipPath id="70"><path d="M74.304 744.736L518.734 744.736L518.734 744.736L518.734 212.226L518.734 212.226L74.304 212.226z" /></clipPath><clipPath id="71"><path d="M74.304 744.736L518.734 744.736L518.734 744.736L518.734 212.226L518.734 212.226L74.304 212.226z" /></clipPath><clipPath id="72"><path d="M74.304 744.736L518.734 744.736L518.734 744.736L518.734 212.226L518.734 212.226L74.304 212.226z" /></clipPath><clipPath id="73"><path d="M74.304 744.736L518.734 744.736L518.734 744.736L518.734 212.226L518.734 212.226L74.304 212.226z" /></clipPath><clipPath id="74"><path d="M74.304 744.736L518.734 744.736L518.734 744.736L518.734 212.226L518.734 212.226L74.304 212.226z" /></clipPath><clipPath id="75"><path d="M74.304 744.736L518.734 744.736L518.734 744.736L518.734 212.226L518.734 212.226L74.304 212.226z" /></clipPath><clipPath id="76"><path d="M74.304 744.736L518.734 744.736L518.734 744.736L518.734 212.226L518.734 212.226L74.304 212.226z" /></clipPath><clipPath id="77"><path d="M74.304 744.736L518.734 744.736L518.734 744.736L518.734 212.226L518.734 212.226L74.304 212.226z" /></clipPath><clipPath id="78"><path d="M74.304 744.736L518.734 744.736L518.734 744.736L518.734 212.226L518.734 212.226L74.304 212.226z" /></clipPath><clipPath id="79"><path d="M74.304 744.736L518.734 744.736L518.734 744.736L518.734 212.226L518.734 212.226L74.304 212.226z" /></clipPath><clipPath id="80"><path d="M74.304 744.736L518.734 744.736L518.734 744.736L518.734 212.226L518.734 212.226L74.304 212.226z" /></clipPath><clipPath id="81"><path d="M74.304 744.736L518.734 744.736L518.734 744.736L518.734 212.226L518.734 212.226L74.304 212.226z" /></clipPath><clipPath id="82"><path d="M74.304 744.736L518.734 744.736L518.734 744.736L518.734 212.226L518.734 212.226L74.304 212.226z" /></clipPath><clipPath id="83"><path d="M74.304 744.736L518.734 744.736L518.734 744.736L518.734 212.226L518.734 212.226L74.304 212.226z" /></clipPath><clipPath id="84"><path d="M74.304 744.736L518.734 744.736L518.734 744.736L518.734 212.226L518.734 212.226L74.304 212.226z" /></clipPath><clipPath id="85"><path d="M74.304 744.736L518.734 744.736L518.734 744.736L518.734 212.226L518.734 212.226L74.304 212.226z" /></clipPath><clipPath id="86"><path d="M74.304 744.736L518.734 744.736L518.734 744.736L518.734 212.226L518.734 212.226L74.304 212.226z" /></clipPath><clipPath id="87"><path d="M74.304 744.736L518.734 744.736L518.734 744.736L518.734 212.226L518.734 212.226L74.304 212.226z" /></clipPath><clipPath id="88"><path d="M74.304 744.736L518.734 744.736L518.734 744.736L518.734 212.226L518.734 212.226L74.304 212.226z" /></clipPath><clipPath id="89"><path d="M74.304 744.736L518.734 744.736L518.734 744.736L518.734 212.226L518.734 212.226L74.304 212.226z" /></clipPath><clipPath id="90"><path d="M74.304 744.736L518.734 744.736L518.734 744.736L518.734 212.226L518.734 212.226L74.304 212.226z" /></clipPath><clipPath id="91"><path d="M74.304 744.736L518.734 744.736L518.734 744.736L518.734 212.226L518.734 212.226L74.304 212.226z" /></clipPath><clipPath id="92"><path d="M74.304 744.736L518.734 744.736L518.734 744.736L518.734 212.226L518.734 212.226L74.304 212.226z" /></clipPath><clipPath id="93"><path d="M74.304 744.736L518.734 744.736L518.734 744.736L518.734 212.226L518.734 212.226L74.304 212.226z" /></clipPath><clipPath id="94"><path d="M74.304 744.736L518.734 744.736L518.734 744.736L518.734 212.226L518.734 212.226L74.304 212.226z" /></clipPath><clipPath id="95"><path d="M74.304 744.736L518.734 744.736L518.734 744.736L518.734 212.226L518.734 212.226L74.304 212.226z" /></clipPath><clipPath id="96"><path d="M74.304 744.736L518.734 744.736L518.734 744.736L518.734 212.226L518.734 212.226L74.304 212.226z" /></clipPath><clipPath id="97"><path d="M74.304 744.736L518.734 744.736L518.734 744.736L518.734 212.226L518.734 212.226L74.304 212.226z" /></clipPath><clipPath id="98"><path d="M74.304 744.736L518.734 744.736L518.734 744.736L518.734 212.226L518.734 212.226L74.304 212.226z" /></clipPath><clipPath id="99"><path d="M74.304 744.736L518.734 744.736L518.734 744.736L518.734 212.226L518.734 212.226L74.304 212.226z" /></clipPath><clipPath id="100"><path d="M74.304 744.736L518.734 744.736L518.734 744.736L518.734 212.226L518.734 212.226L74.304 212.226z" /></clipPath><clipPath id="101"><path d="M74.304 744.736L518.734 744.736L518.734 744.736L518.734 212.226L518.734 212.226L74.304 212.226z" /></clipPath><clipPath id="102"><path d="M74.304 744.736L518.734 744.736L518.734 744.736L518.734 212.226L518.734 212.226L74.304 212.226z" /></clipPath><clipPath id="103"><path d="M74.304 744.736L518.734 744.736L518.734 744.736L518.734 212.226L518.734 212.226L74.304 212.226z" /></clipPath><clipPath id="104"><path d="M74.304 744.736L518.734 744.736L518.734 744.736L518.734 212.226L518.734 212.226L74.304 212.226z" /></clipPath><clipPath id="105"><path d="M74.304 744.736L518.734 744.736L518.734 744.736L518.734 212.226L518.734 212.226L74.304 212.226z" /></clipPath><clipPath id="106"><path d="M74.304 744.736L518.734 744.736L518.734 744.736L518.734 212.226L518.734 212.226L74.304 212.226z" /></clipPath><clipPath id="107"><path d="M74.304 744.736L518.734 744.736L518.734 744.736L518.734 212.226L518.734 212.226L74.304 212.226z" /></clipPath><clipPath id="108"><path d="M74.304 744.736L518.734 744.736L518.734 744.736L518.734 212.226L518.734 212.226L74.304 212.226z" /></clipPath><clipPath id="109"><path d="M74.304 744.736L518.734 744.736L518.734 744.736L518.734 212.226L518.734 212.226L74.304 212.226z" /></clipPath><clipPath id="110"><path d="M74.304 744.736L518.734 744.736L518.734 744.736L518.734 212.226L518.734 212.226L74.304 212.226z" /></clipPath><clipPath id="111"><path d="M74.304 744.736L518.734 744.736L518.734 744.736L518.734 212.226L518.734 212.226L74.304 212.226z" /></clipPath><clipPath id="112"><path d="M74.304 744.736L518.734 744.736L518.734 744.736L518.734 212.226L518.734 212.226L74.304 212.226z" /></clipPath><clipPath id="113"><path d="M74.304 744.736L518.734 744.736L518.734 744.736L518.734 212.226L518.734 212.226L74.304 212.226z" /></clipPath><clipPath id="114"><path d="M74.304 744.736L518.734 744.736L518.734 744.736L518.734 212.226L518.734 212.226L74.304 212.226z" /></clipPath><clipPath id="115"><path d="M74.304 744.736L518.734 744.736L518.734 744.736L518.734 212.226L518.734 212.226L74.304 212.226z" /></clipPath><clipPath id="116"><path d="M74.304 744.736L518.734 744.736L518.734 744.736L518.734 212.226L518.734 212.226L74.304 212.226z" /></clipPath><clipPath id="117"><path d="M74.304 744.736L518.734 744.736L518.734 744.736L518.734 212.226L518.734 212.226L74.304 212.226z" /></clipPath><clipPath id="118"><path d="M74.304 744.736L518.734 744.736L518.734 744.736L518.734 212.226L518.734 212.226L74.304 212.226z" /></clipPath><clipPath id="119"><path d="M74.304 744.736L518.734 744.736L518.734 744.736L518.734 212.226L518.734 212.226L74.304 212.226z" /></clipPath><clipPath id="120"><path d="M74.304 744.736L518.734 744.736L518.734 744.736L518.734 212.226L518.734 212.226L74.304 212.226z" /></clipPath><clipPath id="121"><path d="M74.304 744.736L518.734 744.736L518.734 744.736L518.734 212.226L518.734 212.226L74.304 212.226z" /></clipPath><clipPath id="122"><path d="M74.304 744.736L518.734 744.736L518.734 744.736L518.734 212.226L518.734 212.226L74.304 212.226z" /></clipPath><clipPath id="123"><path d="M74.304 744.736L518.734 744.736L518.734 744.736L518.734 212.226L518.734 212.226L74.304 212.226z" /></clipPath><clipPath id="124"><path d="M74.304 744.736L518.734 744.736L518.734 744.736L518.734 212.226L518.734 212.226L74.304 212.226z" /></clipPath><clipPath id="125"><path d="M74.304 744.736L518.734 744.736L518.734 744.736L518.734 212.226L518.734 212.226L74.304 212.226z" /></clipPath><clipPath id="126"><path d="M74.304 744.736L518.734 744.736L518.734 744.736L518.734 212.226L518.734 212.226L74.304 212.226z" /></clipPath><clipPath id="127"><path d="M74.304 744.736L518.734 744.736L518.734 744.736L518.734 212.226L518.734 212.226L74.304 212.226z" /></clipPath><clipPath id="128"><path d="M74.304 744.736L518.734 744.736L518.734 744.736L518.734 212.226L518.734 212.226L74.304 212.226z" /></clipPath><clipPath id="129"><path d="M74.304 744.736L518.734 744.736L518.734 744.736L518.734 212.226L518.734 212.226L74.304 212.226z" /></clipPath><clipPath id="130"><path d="M74.304 744.736L518.734 744.736L518.734 744.736L518.734 212.226L518.734 212.226L74.304 212.226z" /></clipPath><clipPath id="131"><path d="M74.304 744.736L518.734 744.736L518.734 744.736L518.734 212.226L518.734 212.226L74.304 212.226z" /></clipPath><clipPath id="132"><path d="M74.304 744.736L518.734 744.736L518.734 744.736L518.734 212.226L518.734 212.226L74.304 212.226z" /></clipPath><clipPath id="133"><path d="M74.304 744.736L518.734 744.736L518.734 744.736L518.734 212.226L518.734 212.226L74.304 212.226z" /></clipPath><clipPath id="134"><path d="M74.304 744.736L518.734 744.736L518.734 744.736L518.734 212.226L518.734 212.226L74.304 212.226z" /></clipPath><clipPath id="135"><path d="M74.304 744.736L518.734 744.736L518.734 744.736L518.734 212.226L518.734 212.226L74.304 212.226z" /></clipPath><clipPath id="136"><path d="M74.304 744.736L518.734 744.736L518.734 744.736L518.734 212.226L518.734 212.226L74.304 212.226z" /></clipPath><clipPath id="137"><path d="M74.304 744.736L518.734 744.736L518.734 744.736L518.734 212.226L518.734 212.226L74.304 212.226z" /></clipPath><clipPath id="138"><path d="M74.304 744.736L518.734 744.736L518.734 744.736L518.734 212.226L518.734 212.226L74.304 212.226z" /></clipPath><clipPath id="139"><path d="M74.304 744.736L518.734 744.736L518.734 744.736L518.734 212.226L518.734 212.226L74.304 212.226z" /></clipPath><clipPath id="140"><path d="M74.304 744.736L518.734 744.736L518.734 744.736L518.734 212.226L518.734 212.226L74.304 212.226z" /></clipPath><clipPath id="141"><path d="M74.304 744.736L518.734 744.736L518.734 744.736L518.734 212.226L518.734 212.226L74.304 212.226z" /></clipPath><clipPath id="142"><path d="M74.304 744.736L518.734 744.736L518.734 744.736L518.734 212.226L518.734 212.226L74.304 212.226z" /></clipPath><clipPath id="143"><path d="M74.304 744.736L518.734 744.736L518.734 744.736L518.734 212.226L518.734 212.226L74.304 212.226z" /></clipPath><clipPath id="144"><path d="M74.304 744.736L518.734 744.736L518.734 744.736L518.734 212.226L518.734 212.226L74.304 212.226z" /></clipPath><clipPath id="145"><path d="M74.304 744.736L518.734 744.736L518.734 744.736L518.734 212.226L518.734 212.226L74.304 212.226z" /></clipPath><clipPath id="146"><path d="M74.304 744.736L518.734 744.736L518.734 744.736L518.734 212.226L518.734 212.226L74.304 212.226z" /></clipPath><clipPath id="147"><path d="M74.304 744.736L518.734 744.736L518.734 744.736L518.734 212.226L518.734 212.226L74.304 212.226z" /></clipPath><clipPath id="148"><path d="M74.304 744.736L518.734 744.736L518.734 744.736L518.734 212.226L518.734 212.226L74.304 212.226z" /></clipPath><clipPath id="149"><path d="M74.304 744.736L518.734 744.736L518.734 744.736L518.734 212.226L518.734 212.226L74.304 212.226z" /></clipPath><clipPath id="150"><path d="M74.304 744.736L518.734 744.736L518.734 744.736L518.734 212.226L518.734 212.226L74.304 212.226z" /></clipPath><clipPath id="151"><path d="M74.304 744.736L518.734 744.736L518.734 744.736L518.734 212.226L518.734 212.226L74.304 212.226z" /></clipPath><clipPath id="152"><path d="M74.304 744.736L518.734 744.736L518.734 744.736L518.734 212.226L518.734 212.226L74.304 212.226z" /></clipPath><clipPath id="153"><path d="M74.304 744.736L518.734 744.736L518.734 744.736L518.734 212.226L518.734 212.226L74.304 212.226z" /></clipPath><clipPath id="154"><path d="M74.304 744.736L518.734 744.736L518.734 744.736L518.734 212.226L518.734 212.226L74.304 212.226z" /></clipPath><clipPath id="155"><path d="M74.304 744.736L518.734 744.736L518.734 744.736L518.734 212.226L518.734 212.226L74.304 212.226z" /></clipPath><clipPath id="156"><path d="M74.304 744.736L518.734 744.736L518.734 744.736L518.734 212.226L518.734 212.226L74.304 212.226z" /></clipPath><clipPath id="157"><path d="M74.304 744.736L518.734 744.736L518.734 744.736L518.734 212.226L518.734 212.226L74.304 212.226z" /></clipPath><clipPath id="158"><path d="M74.304 744.736L518.734 744.736L518.734 744.736L518.734 212.226L518.734 212.226L74.304 212.226z" /></clipPath><clipPath id="159"><path d="M74.304 744.736L518.734 744.736L518.734 744.736L518.734 212.226L518.734 212.226L74.304 212.226z" /></clipPath><clipPath id="160"><path d="M74.304 744.736L518.734 744.736L518.734 744.736L518.734 212.226L518.734 212.226L74.304 212.226z" /></clipPath><clipPath id="161"><path d="M74.304 744.736L518.734 744.736L518.734 744.736L518.734 212.226L518.734 212.226L74.304 212.226z" /></clipPath><clipPath id="162"><path d="M74.304 744.736L518.734 744.736L518.734 744.736L518.734 212.226L518.734 212.226L74.304 212.226z" /></clipPath><clipPath id="163"><path d="M74.304 744.736L518.734 744.736L518.734 744.736L518.734 212.226L518.734 212.226L74.304 212.226z" /></clipPath><clipPath id="164"><path d="M74.304 744.736L518.734 744.736L518.734 744.736L518.734 212.226L518.734 212.226L74.304 212.226z" /></clipPath><clipPath id="165"><path d="M74.304 744.736L518.734 744.736L518.734 744.736L518.734 212.226L518.734 212.226L74.304 212.226z" /></clipPath><clipPath id="166"><path d="M74.304 744.736L518.734 744.736L518.734 744.736L518.734 212.226L518.734 212.226L74.304 212.226z" /></clipPath><clipPath id="167"><path d="M74.304 744.736L518.734 744.736L518.734 744.736L518.734 212.226L518.734 212.226L74.304 212.226z" /></clipPath><clipPath id="168"><path d="M74.304 744.736L518.734 744.736L518.734 744.736L518.734 212.226L518.734 212.226L74.304 212.226z" /></clipPath><clipPath id="169"><path d="M74.304 744.736L518.734 744.736L518.734 744.736L518.734 212.226L518.734 212.226L74.304 212.226z" /></clipPath><clipPath id="170"><path d="M74.304 744.736L518.734 744.736L518.734 744.736L518.734 212.226L518.734 212.226L74.304 212.226z" /></clipPath><clipPath id="171"><path d="M74.304 744.736L518.734 744.736L518.734 744.736L518.734 212.226L518.734 212.226L74.304 212.226z" /></clipPath><clipPath id="172"><path d="M74.304 744.736L518.734 744.736L518.734 744.736L518.734 212.226L518.734 212.226L74.304 212.226z" /></clipPath><clipPath id="173"><path d="M74.304 744.736L518.734 744.736L518.734 744.736L518.734 212.226L518.734 212.226L74.304 212.226z" /></clipPath><clipPath id="174"><path d="M74.304 744.736L518.734 744.736L518.734 744.736L518.734 212.226L518.734 212.226L74.304 212.226z" /></clipPath><clipPath id="175"><path d="M74.304 744.736L518.734 744.736L518.734 744.736L518.734 212.226L518.734 212.226L74.304 212.226z" /></clipPath><clipPath id="176"><path d="M74.304 744.736L518.734 744.736L518.734 744.736L518.734 212.226L518.734 212.226L74.304 212.226z" /></clipPath><clipPath id="177"><path d="M74.304 744.736L518.734 744.736L518.734 744.736L518.734 212.226L518.734 212.226L74.304 212.226z" /></clipPath><clipPath id="178"><path d="M74.304 744.736L518.734 744.736L518.734 744.736L518.734 212.226L518.734 212.226L74.304 212.226z" /></clipPath><clipPath id="179"><path d="M74.304 744.736L518.734 744.736L518.734 744.736L518.734 212.226L518.734 212.226L74.304 212.226z" /></clipPath><clipPath id="180"><path d="M74.304 744.736L518.734 744.736L518.734 744.736L518.734 212.226L518.734 212.226L74.304 212.226z" /></clipPath><clipPath id="181"><path d="M74.304 744.736L518.734 744.736L518.734 744.736L518.734 212.226L518.734 212.226L74.304 212.226z" /></clipPath><clipPath id="182"><path d="M74.304 744.736L518.734 744.736L518.734 744.736L518.734 212.226L518.734 212.226L74.304 212.226z" /></clipPath><clipPath id="183"><path d="M74.304 744.736L518.734 744.736L518.734 744.736L518.734 212.226L518.734 212.226L74.304 212.226z" /></clipPath><clipPath id="184"><path d="M74.304 744.736L518.734 744.736L518.734 744.736L518.734 212.226L518.734 212.226L74.304 212.226z" /></clipPath><clipPath id="185"><path d="M74.304 744.736L518.734 744.736L518.734 744.736L518.734 212.226L518.734 212.226L74.304 212.226z" /></clipPath><clipPath id="186"><path d="M74.304 744.736L518.734 744.736L518.734 744.736L518.734 212.226L518.734 212.226L74.304 212.226z" /></clipPath><clipPath id="187"><path d="M74.304 744.736L518.734 744.736L518.734 744.736L518.734 212.226L518.734 212.226L74.304 212.226z" /></clipPath><clipPath id="188"><path d="M74.304 744.736L518.734 744.736L518.734 744.736L518.734 212.226L518.734 212.226L74.304 212.226z" /></clipPath><clipPath id="189"><path d="M74.304 744.736L518.734 744.736L518.734 744.736L518.734 212.226L518.734 212.226L74.304 212.226z" /></clipPath><clipPath id="190"><path d="M74.304 744.736L518.734 744.736L518.734 744.736L518.734 212.226L518.734 212.226L74.304 212.226z" /></clipPath><clipPath id="191"><path d="M74.304 744.736L518.734 744.736L518.734 744.736L518.734 212.226L518.734 212.226L74.304 212.226z" /></clipPath><clipPath id="192"><path d="M74.304 744.736L518.734 744.736L518.734 744.736L518.734 212.226L518.734 212.226L74.304 212.226z" /></clipPath><clipPath id="193"><path d="M74.304 744.736L518.734 744.736L518.734 744.736L518.734 212.226L518.734 212.226L74.304 212.226z" /></clipPath><clipPath id="194"><path d="M74.304 744.736L518.734 744.736L518.734 744.736L518.734 212.226L518.734 212.226L74.304 212.226z" /></clipPath><clipPath id="195"><path d="M74.304 744.736L518.734 744.736L518.734 744.736L518.734 212.226L518.734 212.226L74.304 212.226z" /></clipPath><clipPath id="196"><path d="M74.304 744.736L518.734 744.736L518.734 744.736L518.734 212.226L518.734 212.226L74.304 212.226z" /></clipPath><clipPath id="197"><path d="M74.304 744.736L518.734 744.736L518.734 744.736L518.734 212.226L518.734 212.226L74.304 212.226z" /></clipPath><clipPath id="198"><path d="M74.304 744.736L518.734 744.736L518.734 744.736L518.734 212.226L518.734 212.226L74.304 212.226z" /></clipPath><clipPath id="199"><path d="M74.304 744.736L518.734 744.736L518.734 744.736L518.734 212.226L518.734 212.226L74.304 212.226z" /></clipPath><clipPath id="200"><path d="M74.304 744.736L518.734 744.736L518.734 744.736L518.734 212.226L518.734 212.226L74.304 212.226z" /></clipPath></defs><g transform="matrix(1.333333 0 0 1.333333 0 0)"><g><g clip-path="url(#1)"><g clip-path="url(#2)"></g><g clip-path="url(#3)"></g><g clip-path="url(#4)"><g clip-path="url(#5)"></g><g clip-path="url(#6)"></g></g><g clip-path="url(#7)"><g clip-path="url(#8)"></g><g clip-path="url(#9)"></g></g><g clip-path="url(#10)"><g clip-path="url(#11)"></g><g clip-path="url(#12)"></g><g clip-path="url(#13)"></g><g clip-path="url(#14)"></g><g clip-path="url(#15)"></g><g clip-path="url(#16)"></g><g clip-path="url(#17)"></g><g clip-path="url(#18)"></g><g clip-path="url(#19)"><g clip-path="url(#20)"></g><g clip-path="url(#21)"></g><g clip-path="url(#22)"></g><g clip-path="url(#23)"></g></g><g clip-path="url(#24)"><g clip-path="url(#25)"></g><g clip-path="url(#26)"></g><g clip-path="url(#27)"></g><g clip-path="url(#28)"></g></g><path transform="matrix(1 0 0 -1 0 841)" d="M169.82 706.9L170.3 706.9L170.3 706.9L170.3 707.38L170.3 707.38L169.82 707.38z" stroke="none" fill="#000000" fill-rule="evenodd" /><path transform="matrix(1 0 0 -1 0 841)" d="M169.82 706.9L170.3 706.9L170.3 706.9L170.3 707.38L170.3 707.38L169.82 707.38z" stroke="none" fill="#000000" fill-rule="evenodd" /><path transform="matrix(1 0 0 -1 0 841)" d="M170.3 706.9L363.07 706.9L363.07 706.9L363.07 707.38L363.07 707.38L170.3 707.38z" stroke="none" fill="#000000" fill-rule="evenodd" /><path transform="matrix(1 0 0 -1 0 841)" d="M363.07 706.9L363.55 706.9L363.55 706.9L363.55 707.38L363.55 707.38L363.07 707.38z" stroke="none" fill="#000000" fill-rule="evenodd" /><path transform="matrix(1 0 0 -1 0 841)" d="M363.55 706.9L507.21 706.9L507.21 706.9L507.21 707.38L507.21 707.38L363.55 707.38z" stroke="none" fill="#000000" fill-rule="evenodd" /><path transform="matrix(1 0 0 -1 0 841)" d="M507.22 706.9L507.7 706.9L507.7 706.9L507.7 707.38L507.7 707.38L507.22 707.38z" stroke="none" fill="#000000" fill-rule="evenodd" /><path transform="matrix(1 0 0 -1 0 841)" d="M507.22 706.9L507.7 706.9L507.7 706.9L507.7 707.38L507.7 707.38L507.22 707.38z" stroke="none" fill="#000000" fill-rule="evenodd" /><path transform="matrix(1 0 0 -1 0 841)" d="M169.82 693.34L170.3 693.34L170.3 693.34L170.3 706.9L170.3 706.9L169.82 706.9z" stroke="none" fill="#000000" fill-rule="evenodd" /><path transform="matrix(1 0 0 -1 0 841)" d="M363.07 693.34L363.55 693.34L363.55 693.34L363.55 706.9L363.55 706.9L363.07 706.9z" stroke="none" fill="#000000" fill-rule="evenodd" /><path transform="matrix(1 0 0 -1 0 841)" d="M507.22 693.34L507.7 693.34L507.7 693.34L507.7 706.9L507.7 706.9L507.22 706.9z" stroke="none" fill="#000000" fill-rule="evenodd" /><g clip-path="url(#29)"><g clip-path="url(#30)"></g><g clip-path="url(#31)"></g><g clip-path="url(#32)"></g><g clip-path="url(#33)"></g><g clip-path="url(#34)"></g><g clip-path="url(#35)"></g></g><g clip-path="url(#36)"><g clip-path="url(#37)"></g><g clip-path="url(#38)"></g><g clip-path="url(#39)"></g><g clip-path="url(#40)"></g></g><path transform="matrix(1 0 0 -1 0 841)" d="M169.82 692.86L170.3 692.86L170.3 692.86L170.3 693.34L170.3 693.34L169.82 693.34z" stroke="none" fill="#000000" fill-rule="evenodd" /><path transform="matrix(1 0 0 -1 0 841)" d="M170.3 692.86L363.07 692.86L363.07 692.86L363.07 693.34L363.07 693.34L170.3 693.34z" stroke="none" fill="#000000" fill-rule="evenodd" /><path transform="matrix(1 0 0 -1 0 841)" d="M363.07 692.86L363.55 692.86L363.55 692.86L363.55 693.34L363.55 693.34L363.07 693.34z" stroke="none" fill="#000000" fill-rule="evenodd" /><path transform="matrix(1 0 0 -1 0 841)" d="M363.55 692.86L507.21 692.86L507.21 692.86L507.21 693.34L507.21 693.34L363.55 693.34z" stroke="none" fill="#000000" fill-rule="evenodd" /><path transform="matrix(1 0 0 -1 0 841)" d="M507.22 692.86L507.7 692.86L507.7 692.86L507.7 693.34L507.7 693.34L507.22 693.34z" stroke="none" fill="#000000" fill-rule="evenodd" /><path transform="matrix(1 0 0 -1 0 841)" d="M169.82 679.18L170.3 679.18L170.3 679.18L170.3 692.86L170.3 692.86L169.82 692.86z" stroke="none" fill="#000000" fill-rule="evenodd" /><path transform="matrix(1 0 0 -1 0 841)" d="M363.07 679.18L363.55 679.18L363.55 679.18L363.55 692.86L363.55 692.86L363.07 692.86z" stroke="none" fill="#000000" fill-rule="evenodd" /><path transform="matrix(1 0 0 -1 0 841)" d="M507.22 679.18L507.7 679.18L507.7 679.18L507.7 692.86L507.7 692.86L507.22 692.86z" stroke="none" fill="#000000" fill-rule="evenodd" /><g clip-path="url(#41)"><g clip-path="url(#42)"></g><g clip-path="url(#43)"></g></g><g clip-path="url(#44)"><g clip-path="url(#45)"></g><g clip-path="url(#46)"></g><g clip-path="url(#47)"></g><g clip-path="url(#48)"></g></g><path transform="matrix(1 0 0 -1 0 841)" d="M169.82 678.7L170.3 678.7L170.3 678.7L170.3 679.18L170.3 679.18L169.82 679.18z" stroke="none" fill="#000000" fill-rule="evenodd" /><path transform="matrix(1 0 0 -1 0 841)" d="M170.3 678.7L363.07 678.7L363.07 678.7L363.07 679.18L363.07 679.18L170.3 679.18z" stroke="none" fill="#000000" fill-rule="evenodd" /><path transform="matrix(1 0 0 -1 0 841)" d="M363.07 678.7L363.55 678.7L363.55 678.7L363.55 679.18L363.55 679.18L363.07 679.18z" stroke="none" fill="#000000" fill-rule="evenodd" /><path transform="matrix(1 0 0 -1 0 841)" d="M363.55 678.7L507.21 678.7L507.21 678.7L507.21 679.18L507.21 679.18L363.55 679.18z" stroke="none" fill="#000000" fill-rule="evenodd" /><path transform="matrix(1 0 0 -1 0 841)" d="M507.22 678.7L507.7 678.7L507.7 678.7L507.7 679.18L507.7 679.18L507.22 679.18z" stroke="none" fill="#000000" fill-rule="evenodd" /><path transform="matrix(1 0 0 -1 0 841)" d="M169.82 665.02L170.3 665.02L170.3 665.02L170.3 678.7L170.3 678.7L169.82 678.7z" stroke="none" fill="#000000" fill-rule="evenodd" /><path transform="matrix(1 0 0 -1 0 841)" d="M169.82 664.54L170.3 664.54L170.3 664.54L170.3 665.02L170.3 665.02L169.82 665.02z" stroke="none" fill="#000000" fill-rule="evenodd" /><path transform="matrix(1 0 0 -1 0 841)" d="M169.82 664.54L170.3 664.54L170.3 664.54L170.3 665.02L170.3 665.02L169.82 665.02z" stroke="none" fill="#000000" fill-rule="evenodd" /><path transform="matrix(1 0 0 -1 0 841)" d="M170.3 664.54L363.07 664.54L363.07 664.54L363.07 665.02L363.07 665.02L170.3 665.02z" stroke="none" fill="#000000" fill-rule="evenodd" /><path transform="matrix(1 0 0 -1 0 841)" d="M363.07 665.02L363.55 665.02L363.55 665.02L363.55 678.7L363.55 678.7L363.07 678.7z" stroke="none" fill="#000000" fill-rule="evenodd" /><path transform="matrix(1 0 0 -1 0 841)" d="M363.07 664.54L363.55 664.54L363.55 664.54L363.55 665.02L363.55 665.02L363.07 665.02z" stroke="none" fill="#000000" fill-rule="evenodd" /><path transform="matrix(1 0 0 -1 0 841)" d="M363.55 664.54L507.21 664.54L507.21 664.54L507.21 665.02L507.21 665.02L363.55 665.02z" stroke="none" fill="#000000" fill-rule="evenodd" /><path transform="matrix(1 0 0 -1 0 841)" d="M507.22 665.02L507.7 665.02L507.7 665.02L507.7 678.7L507.7 678.7L507.22 678.7z" stroke="none" fill="#000000" fill-rule="evenodd" /><path transform="matrix(1 0 0 -1 0 841)" d="M507.22 664.54L507.7 664.54L507.7 664.54L507.7 665.02L507.7 665.02L507.22 665.02z" stroke="none" fill="#000000" fill-rule="evenodd" /><path transform="matrix(1 0 0 -1 0 841)" d="M507.22 664.54L507.7 664.54L507.7 664.54L507.7 665.02L507.7 665.02L507.22 665.02z" stroke="none" fill="#000000" fill-rule="evenodd" /><g clip-path="url(#49)"></g></g><path transform="matrix(1 0 0 -1 0 841)" d="M73.824 756.34L74.304 756.34L74.304 756.34L74.304 756.82L74.304 756.82L73.824 756.82z" stroke="none" fill="#000000" fill-rule="evenodd" /><path transform="matrix(1 0 0 -1 0 841)" d="M73.824 756.34L74.304 756.34L74.304 756.34L74.304 756.82L74.304 756.82L73.824 756.82z" stroke="none" fill="#000000" fill-rule="evenodd" /><path transform="matrix(1 0 0 -1 0 841)" d="M74.304 756.34L97.104 756.34L97.104 756.34L97.104 756.82L97.104 756.82L74.304 756.82z" stroke="none" fill="#000000" fill-rule="evenodd" /><path transform="matrix(1 0 0 -1 0 841)" d="M97.104 756.34L97.584 756.34L97.584 756.34L97.584 756.82L97.584 756.82L97.104 756.82z" stroke="none" fill="#000000" fill-rule="evenodd" /><path transform="matrix(1 0 0 -1 0 841)" d="M97.584 756.34L164.304 756.34L164.304 756.34L164.304 756.82L164.304 756.82L97.584 756.82z" stroke="none" fill="#000000" fill-rule="evenodd" /><path transform="matrix(1 0 0 -1 0 841)" d="M164.3 756.34L164.78 756.34L164.78 756.34L164.78 756.82L164.78 756.82L164.3 756.82z" stroke="none" fill="#000000" fill-rule="evenodd" /><path transform="matrix(1 0 0 -1 0 841)" d="M164.78 756.34L518.73 756.34L518.73 756.34L518.73 756.82L518.73 756.82L164.78 756.82z" stroke="none" fill="#000000" fill-rule="evenodd" /><path transform="matrix(1 0 0 -1 0 841)" d="M518.74 756.34L519.22 756.34L519.22 756.34L519.22 756.82L519.22 756.82L518.74 756.82z" stroke="none" fill="#000000" fill-rule="evenodd" /><path transform="matrix(1 0 0 -1 0 841)" d="M518.74 756.34L519.22 756.34L519.22 756.34L519.22 756.82L519.22 756.82L518.74 756.82z" stroke="none" fill="#000000" fill-rule="evenodd" /><path transform="matrix(1 0 0 -1 0 841)" d="M73.824 629.26L74.304 629.26L74.304 629.26L74.304 756.34L74.304 756.34L73.824 756.34z" stroke="none" fill="#000000" fill-rule="evenodd" /><path transform="matrix(1 0 0 -1 0 841)" d="M97.104 629.26L97.584 629.26L97.584 629.26L97.584 756.34L97.584 756.34L97.104 756.34z" stroke="none" fill="#000000" fill-rule="evenodd" /><path transform="matrix(1 0 0 -1 0 841)" d="M164.3 629.26L164.78 629.26L164.78 629.26L164.78 756.34L164.78 756.34L164.3 756.34z" stroke="none" fill="#000000" fill-rule="evenodd" /><path transform="matrix(1 0 0 -1 0 841)" d="M518.74 629.26L519.22 629.26L519.22 629.26L519.22 756.34L519.22 756.34L518.74 756.34z" stroke="none" fill="#000000" fill-rule="evenodd" /><g clip-path="url(#50)"><g clip-path="url(#51)"></g><g clip-path="url(#52)"></g><g clip-path="url(#53)"></g><g clip-path="url(#54)"></g><g clip-path="url(#55)"></g><g clip-path="url(#56)"></g><g clip-path="url(#57)"></g><g clip-path="url(#58)"></g><g clip-path="url(#59)"></g><g clip-path="url(#60)"></g><g clip-path="url(#61)"></g><g clip-path="url(#62)"></g><g clip-path="url(#63)"></g><g clip-path="url(#64)"></g><g clip-path="url(#65)"></g><g clip-path="url(#66)"></g><g clip-path="url(#67)"></g><g clip-path="url(#68)"></g><g clip-path="url(#69)"></g><g clip-path="url(#70)"></g><g clip-path="url(#71)"></g><g clip-path="url(#72)"></g><g clip-path="url(#73)"></g><g clip-path="url(#74)"></g><g clip-path="url(#75)"></g><g clip-path="url(#76)"></g><g clip-path="url(#77)"></g><g clip-path="url(#78)"></g><g clip-path="url(#79)"></g><g clip-path="url(#80)"></g><g clip-path="url(#81)"></g><g clip-path="url(#82)"></g><g clip-path="url(#83)"></g><g clip-path="url(#84)"></g><g clip-path="url(#85)"></g><g clip-path="url(#86)"></g><g clip-path="url(#87)"></g><g clip-path="url(#88)"></g><g clip-path="url(#89)"></g><g clip-path="url(#90)"></g><g clip-path="url(#91)"></g><g clip-path="url(#92)"></g><g clip-path="url(#93)"></g><g clip-path="url(#94)"></g><g clip-path="url(#95)"></g><g clip-path="url(#96)"></g><g clip-path="url(#97)"></g><g clip-path="url(#98)"></g><g clip-path="url(#99)"></g><g clip-path="url(#100)"></g><g clip-path="url(#101)"></g><g clip-path="url(#102)"></g><g clip-path="url(#103)"></g><g clip-path="url(#104)"></g><g clip-path="url(#105)"></g><g clip-path="url(#106)"></g><g clip-path="url(#107)"></g><g clip-path="url(#108)"></g><g clip-path="url(#109)"></g><g clip-path="url(#110)"></g><g clip-path="url(#111)"></g><g clip-path="url(#112)"></g><g clip-path="url(#113)"></g><g clip-path="url(#114)"></g><g clip-path="url(#115)"></g><g clip-path="url(#116)"></g><g clip-path="url(#117)"></g><g clip-path="url(#118)"></g><g clip-path="url(#119)"></g><g clip-path="url(#120)"></g><g clip-path="url(#121)"></g><g clip-path="url(#122)"></g><g clip-path="url(#123)"></g><g clip-path="url(#124)"></g><g clip-path="url(#125)"></g><g clip-path="url(#126)"></g><g clip-path="url(#127)"></g><g clip-path="url(#128)"></g><g clip-path="url(#129)"></g><g clip-path="url(#130)"></g><g clip-path="url(#131)"></g><g clip-path="url(#132)"></g><g clip-path="url(#133)"></g><g clip-path="url(#134)"></g><g clip-path="url(#135)"></g><g clip-path="url(#136)"></g><g clip-path="url(#137)"></g><g clip-path="url(#138)"></g><g clip-path="url(#139)"></g><g clip-path="url(#140)"></g><g clip-path="url(#141)"></g><g clip-path="url(#142)"></g><g clip-path="url(#143)"></g><g clip-path="url(#144)"></g><g clip-path="url(#145)"></g><g clip-path="url(#146)"></g><g clip-path="url(#147)"></g><g clip-path="url(#148)"></g><g clip-path="url(#149)"></g><g clip-path="url(#150)"></g><g clip-path="url(#151)"></g><g clip-path="url(#152)"></g><g clip-path="url(#153)"></g><g clip-path="url(#154)"></g><g clip-path="url(#155)"></g><g clip-path="url(#156)"></g><g clip-path="url(#157)"></g><g clip-path="url(#158)"></g><g clip-path="url(#159)"></g><g clip-path="url(#160)"></g><g clip-path="url(#161)"></g><g clip-path="url(#162)"></g><g clip-path="url(#163)"></g><g clip-path="url(#164)"></g><g clip-path="url(#165)"></g><g clip-path="url(#166)"></g><g clip-path="url(#167)"></g><g clip-path="url(#168)"></g><g clip-path="url(#169)"></g><g clip-path="url(#170)"></g><g clip-path="url(#171)"></g><g clip-path="url(#172)"></g><g clip-path="url(#173)"></g><g clip-path="url(#174)"></g><g clip-path="url(#175)"></g><g clip-path="url(#176)"></g><g clip-path="url(#177)"></g><g clip-path="url(#178)"></g><g clip-path="url(#179)"></g><g clip-path="url(#180)"></g><g clip-path="url(#181)"></g><g clip-path="url(#182)"></g><g clip-path="url(#183)"></g><g clip-path="url(#184)"></g><g clip-path="url(#185)"></g><g clip-path="url(#186)"></g><g clip-path="url(#187)"></g><g clip-path="url(#188)"></g><g clip-path="url(#189)"></g><g clip-path="url(#190)"></g><g clip-path="url(#191)"></g><g clip-path="url(#192)"></g><g clip-path="url(#193)"></g><g clip-path="url(#194)"></g><g clip-path="url(#195)"></g><g clip-path="url(#196)"></g><g clip-path="url(#197)"></g><g clip-path="url(#198)"></g><g clip-path="url(#199)"></g><g clip-path="url(#200)"></g></g><path transform="matrix(1 0 0 -1 0 841)" d="M73.824 628.78L74.304 628.78L74.304 628.78L74.304 629.26L74.304 629.26L73.824 629.26z" stroke="none" fill="#000000" fill-rule="evenodd" /><path transform="matrix(1 0 0 -1 0 841)" d="M74.304 628.78L97.104 628.78L97.104 628.78L97.104 629.26L97.104 629.26L74.304 629.26z" stroke="none" fill="#000000" fill-rule="evenodd" /><path transform="matrix(1 0 0 -1 0 841)" d="M97.104 628.78L97.584 628.78L97.584 628.78L97.584 629.26L97.584 629.26L97.104 629.26z" stroke="none" fill="#000000" fill-rule="evenodd" /><path transform="matrix(1 0 0 -1 0 841)" d="M97.584 628.78L164.304 628.78L164.304 628.78L164.304 629.26L164.304 629.26L97.584 629.26z" stroke="none" fill="#000000" fill-rule="evenodd" /><path transform="matrix(1 0 0 -1 0 841)" d="M164.3 628.78L164.78 628.78L164.78 628.78L164.78 629.26L164.78 629.26L164.3 629.26z" stroke="none" fill="#000000" fill-rule="evenodd" /><path transform="matrix(1 0 0 -1 0 841)" d="M164.78 628.78L518.73 628.78L518.73 628.78L518.73 629.26L518.73 629.26L164.78 629.26z" stroke="none" fill="#000000" fill-rule="evenodd" /><path transform="matrix(1 0 0 -1 0 841)" d="M518.74 628.78L519.22 628.78L519.22 628.78L519.22 629.26L519.22 629.26L518.74 629.26z" stroke="none" fill="#000000" fill-rule="evenodd" /><path transform="matrix(1 0 0 -1 0 841)" d="M73.824 96.264L74.304 96.264L74.304 96.264L74.304 628.774L74.304 628.774L73.824 628.774z" stroke="none" fill="#000000" fill-rule="evenodd" /><path transform="matrix(1 0 0 -1 0 841)" d="M73.824 95.784L74.304 95.784L74.304 95.784L74.304 96.26398L74.304 96.26398L73.824 96.26398z" stroke="none" fill="#000000" fill-rule="evenodd" /><path transform="matrix(1 0 0 -1 0 841)" d="M73.824 95.784L74.304 95.784L74.304 95.784L74.304 96.26398L74.304 96.26398L73.824 96.26398z" stroke="none" fill="#000000" fill-rule="evenodd" /><path transform="matrix(1 0 0 -1 0 841)" d="M74.304 95.784L518.734 95.784L518.734 95.784L518.734 96.26398L518.734 96.26398L74.304 96.26398z" stroke="none" fill="#000000" fill-rule="evenodd" /><path transform="matrix(1 0 0 -1 0 841)" d="M518.74 96.264L519.22 96.264L519.22 96.264L519.22 628.774L519.22 628.774L518.74 628.774z" stroke="none" fill="#000000" fill-rule="evenodd" /><path transform="matrix(1 0 0 -1 0 841)" d="M518.74 95.784L519.22 95.784L519.22 95.784L519.22 96.26398L519.22 96.26398L518.74 96.26398z" stroke="none" fill="#000000" fill-rule="evenodd" /><path transform="matrix(1 0 0 -1 0 841)" d="M518.74 95.784L519.22 95.784L519.22 95.784L519.22 96.26398L519.22 96.26398L518.74 96.26398z" stroke="none" fill="#000000" fill-rule="evenodd" /></g></g></g></svg>