<svg xmlns="http://www.w3.org/2000/svg" xmlns:xlink="http://www.w3.org/1999/xlink" id="body_7" preserveAspectRatio="xMinYMin meet" viewBox="0 0 793 1121"><defs><clipPath id="1"><path d="M0 841L0 -0.9199829L0 -0.9199829L595.32 -0.9199829L595.32 -0.9199829L595.32 841L595.32 841L0 841z" /></clipPath><clipPath id="2"><path d="M8.871E-06 841L595.32 841L595.32 841L595.32 -0.9199829L595.32 -0.9199829L8.871E-06 -0.9199829z" /></clipPath><clipPath id="3"><path d="M8.871E-06 841L595.32 841L595.32 841L595.32 -0.9199829L595.32 -0.9199829L8.871E-06 -0.9199829z" /></clipPath><clipPath id="4"><path d="M295.37 791.416L299.81 791.416L299.81 791.416L299.81 781.096L299.81 781.096L295.37 781.096z" /></clipPath><clipPath id="5"><path d="M295.37 791.416L299.81 791.416L299.81 791.416L299.81 781.096L299.81 781.096L295.37 781.096z" /></clipPath><clipPath id="6"><path d="M295.37 791.416L299.81 791.416L299.81 791.416L299.81 781.096L299.81 781.096L295.37 781.096z" /></clipPath><clipPath id="7"><path d="M74.304 437.49L518.734 437.49L518.734 437.49L518.734 84.66998L518.734 84.66998L74.304 84.66998z" /></clipPath><clipPath id="8"><path d="M74.304 437.49L518.734 437.49L518.734 437.49L518.734 84.66998L518.734 84.66998L74.304 84.66998z" /></clipPath><clipPath id="9"><path d="M74.304 437.49L518.734 437.49L518.734 437.49L518.734 84.66998L518.734 84.66998L74.304 84.66998z" /></clipPath><clipPath id="10"><path d="M74.304 437.49L518.734 437.49L518.734 437.49L518.734 84.66998L518.734 84.66998L74.304 84.66998z" /></clipPath><clipPath id="11"><path d="M74.304 437.49L518.734 437.49L518.734 437.49L518.734 84.66998L518.734 84.66998L74.304 84.66998z" /></clipPath><clipPath id="12"><path d="M74.304 437.49L518.734 437.49L518.734 437.49L518.734 84.66998L518.734 84.66998L74.304 84.66998z" /></clipPath><clipPath id="13"><path d="M74.304 437.49L518.734 437.49L518.734 437.49L518.734 84.66998L518.734 84.66998L74.304 84.66998z" /></clipPath><clipPath id="14"><path d="M74.304 437.49L518.734 437.49L518.734 437.49L518.734 84.66998L518.734 84.66998L74.304 84.66998z" /></clipPath><clipPath id="15"><path d="M74.304 437.49L518.734 437.49L518.734 437.49L518.734 84.66998L518.734 84.66998L74.304 84.66998z" /></clipPath><clipPath id="16"><path d="M74.304 437.49L518.734 437.49L518.734 437.49L518.734 84.66998L518.734 84.66998L74.304 84.66998z" /></clipPath><clipPath id="17"><path d="M74.304 437.49L518.734 437.49L518.734 437.49L518.734 84.66998L518.734 84.66998L74.304 84.66998z" /></clipPath><clipPath id="18"><path d="M74.304 437.49L518.734 437.49L518.734 437.49L518.734 84.66998L518.734 84.66998L74.304 84.66998z" /></clipPath><clipPath id="19"><path d="M74.304 437.49L518.734 437.49L518.734 437.49L518.734 84.66998L518.734 84.66998L74.304 84.66998z" /></clipPath><clipPath id="20"><path d="M74.304 437.49L518.734 437.49L518.734 437.49L518.734 84.66998L518.734 84.66998L74.304 84.66998z" /></clipPath><clipPath id="21"><path d="M74.304 437.49L518.734 437.49L518.734 437.49L518.734 84.66998L518.734 84.66998L74.304 84.66998z" /></clipPath><clipPath id="22"><path d="M74.304 437.49L518.734 437.49L518.734 437.49L518.734 84.66998L518.734 84.66998L74.304 84.66998z" /></clipPath><clipPath id="23"><path d="M74.304 437.49L518.734 437.49L518.734 437.49L518.734 84.66998L518.734 84.66998L74.304 84.66998z" /></clipPath><clipPath id="24"><path d="M74.304 437.49L518.734 437.49L518.734 437.49L518.734 84.66998L518.734 84.66998L74.304 84.66998z" /></clipPath><clipPath id="25"><path d="M74.304 437.49L518.734 437.49L518.734 437.49L518.734 84.66998L518.734 84.66998L74.304 84.66998z" /></clipPath><clipPath id="26"><path d="M74.304 437.49L518.734 437.49L518.734 437.49L518.734 84.66998L518.734 84.66998L74.304 84.66998z" /></clipPath><clipPath id="27"><path d="M74.304 437.49L518.734 437.49L518.734 437.49L518.734 84.66998L518.734 84.66998L74.304 84.66998z" /></clipPath><clipPath id="28"><path d="M74.304 437.49L518.734 437.49L518.734 437.49L518.734 84.66998L518.734 84.66998L74.304 84.66998z" /></clipPath><clipPath id="29"><path d="M74.304 437.49L518.734 437.49L518.734 437.49L518.734 84.66998L518.734 84.66998L74.304 84.66998z" /></clipPath><clipPath id="30"><path d="M74.304 437.49L518.734 437.49L518.734 437.49L518.734 84.66998L518.734 84.66998L74.304 84.66998z" /></clipPath><clipPath id="31"><path d="M74.304 437.49L518.734 437.49L518.734 437.49L518.734 84.66998L518.734 84.66998L74.304 84.66998z" /></clipPath><clipPath id="32"><path d="M74.304 437.49L518.734 437.49L518.734 437.49L518.734 84.66998L518.734 84.66998L74.304 84.66998z" /></clipPath><clipPath id="33"><path d="M74.304 437.49L518.734 437.49L518.734 437.49L518.734 84.66998L518.734 84.66998L74.304 84.66998z" /></clipPath><clipPath id="34"><path d="M74.304 437.49L518.734 437.49L518.734 437.49L518.734 84.66998L518.734 84.66998L74.304 84.66998z" /></clipPath><clipPath id="35"><path d="M74.304 437.49L518.734 437.49L518.734 437.49L518.734 84.66998L518.734 84.66998L74.304 84.66998z" /></clipPath><clipPath id="36"><path d="M74.304 437.49L518.734 437.49L518.734 437.49L518.734 84.66998L518.734 84.66998L74.304 84.66998z" /></clipPath><clipPath id="37"><path d="M74.304 437.49L518.734 437.49L518.734 437.49L518.734 84.66998L518.734 84.66998L74.304 84.66998z" /></clipPath><clipPath id="38"><path d="M74.304 437.49L518.734 437.49L518.734 437.49L518.734 84.66998L518.734 84.66998L74.304 84.66998z" /></clipPath><clipPath id="39"><path d="M74.304 437.49L518.734 437.49L518.734 437.49L518.734 84.66998L518.734 84.66998L74.304 84.66998z" /></clipPath><clipPath id="40"><path d="M74.304 437.49L518.734 437.49L518.734 437.49L518.734 84.66998L518.734 84.66998L74.304 84.66998z" /></clipPath><clipPath id="41"><path d="M74.304 437.49L518.734 437.49L518.734 437.49L518.734 84.66998L518.734 84.66998L74.304 84.66998z" /></clipPath><clipPath id="42"><path d="M74.304 437.49L518.734 437.49L518.734 437.49L518.734 84.66998L518.734 84.66998L74.304 84.66998z" /></clipPath><clipPath id="43"><path d="M74.304 437.49L518.734 437.49L518.734 437.49L518.734 84.66998L518.734 84.66998L74.304 84.66998z" /></clipPath><clipPath id="44"><path d="M74.304 437.49L518.734 437.49L518.734 437.49L518.734 84.66998L518.734 84.66998L74.304 84.66998z" /></clipPath><clipPath id="45"><path d="M74.304 437.49L518.734 437.49L518.734 437.49L518.734 84.66998L518.734 84.66998L74.304 84.66998z" /></clipPath><clipPath id="46"><path d="M74.304 437.49L518.734 437.49L518.734 437.49L518.734 84.66998L518.734 84.66998L74.304 84.66998z" /></clipPath><clipPath id="47"><path d="M74.304 437.49L518.734 437.49L518.734 437.49L518.734 84.66998L518.734 84.66998L74.304 84.66998z" /></clipPath><clipPath id="48"><path d="M74.304 437.49L518.734 437.49L518.734 437.49L518.734 84.66998L518.734 84.66998L74.304 84.66998z" /></clipPath><clipPath id="49"><path d="M74.304 437.49L518.734 437.49L518.734 437.49L518.734 84.66998L518.734 84.66998L74.304 84.66998z" /></clipPath><clipPath id="50"><path d="M74.304 437.49L518.734 437.49L518.734 437.49L518.734 84.66998L518.734 84.66998L74.304 84.66998z" /></clipPath><clipPath id="51"><path d="M74.304 437.49L518.734 437.49L518.734 437.49L518.734 84.66998L518.734 84.66998L74.304 84.66998z" /></clipPath><clipPath id="52"><path d="M74.304 437.49L518.734 437.49L518.734 437.49L518.734 84.66998L518.734 84.66998L74.304 84.66998z" /></clipPath><clipPath id="53"><path d="M74.304 437.49L518.734 437.49L518.734 437.49L518.734 84.66998L518.734 84.66998L74.304 84.66998z" /></clipPath><clipPath id="54"><path d="M74.304 437.49L518.734 437.49L518.734 437.49L518.734 84.66998L518.734 84.66998L74.304 84.66998z" /></clipPath><clipPath id="55"><path d="M74.304 437.49L518.734 437.49L518.734 437.49L518.734 84.66998L518.734 84.66998L74.304 84.66998z" /></clipPath><clipPath id="56"><path d="M74.304 437.49L518.734 437.49L518.734 437.49L518.734 84.66998L518.734 84.66998L74.304 84.66998z" /></clipPath><clipPath id="57"><path d="M74.304 437.49L518.734 437.49L518.734 437.49L518.734 84.66998L518.734 84.66998L74.304 84.66998z" /></clipPath><clipPath id="58"><path d="M74.304 437.49L518.734 437.49L518.734 437.49L518.734 84.66998L518.734 84.66998L74.304 84.66998z" /></clipPath><clipPath id="59"><path d="M74.304 437.49L518.734 437.49L518.734 437.49L518.734 84.66998L518.734 84.66998L74.304 84.66998z" /></clipPath><clipPath id="60"><path d="M74.304 437.49L518.734 437.49L518.734 437.49L518.734 84.66998L518.734 84.66998L74.304 84.66998z" /></clipPath><clipPath id="61"><path d="M74.304 437.49L518.734 437.49L518.734 437.49L518.734 84.66998L518.734 84.66998L74.304 84.66998z" /></clipPath><clipPath id="62"><path d="M74.304 437.49L518.734 437.49L518.734 437.49L518.734 84.66998L518.734 84.66998L74.304 84.66998z" /></clipPath><clipPath id="63"><path d="M74.304 437.49L518.734 437.49L518.734 437.49L518.734 84.66998L518.734 84.66998L74.304 84.66998z" /></clipPath><clipPath id="64"><path d="M74.304 437.49L518.734 437.49L518.734 437.49L518.734 84.66998L518.734 84.66998L74.304 84.66998z" /></clipPath><clipPath id="65"><path d="M74.304 437.49L518.734 437.49L518.734 437.49L518.734 84.66998L518.734 84.66998L74.304 84.66998z" /></clipPath><clipPath id="66"><path d="M74.304 437.49L518.734 437.49L518.734 437.49L518.734 84.66998L518.734 84.66998L74.304 84.66998z" /></clipPath><clipPath id="67"><path d="M74.304 437.49L518.734 437.49L518.734 437.49L518.734 84.66998L518.734 84.66998L74.304 84.66998z" /></clipPath><clipPath id="68"><path d="M74.304 437.49L518.734 437.49L518.734 437.49L518.734 84.66998L518.734 84.66998L74.304 84.66998z" /></clipPath><clipPath id="69"><path d="M74.304 437.49L518.734 437.49L518.734 437.49L518.734 84.66998L518.734 84.66998L74.304 84.66998z" /></clipPath><clipPath id="70"><path d="M74.304 437.49L518.734 437.49L518.734 437.49L518.734 84.66998L518.734 84.66998L74.304 84.66998z" /></clipPath><clipPath id="71"><path d="M74.304 437.49L518.734 437.49L518.734 437.49L518.734 84.66998L518.734 84.66998L74.304 84.66998z" /></clipPath><clipPath id="72"><path d="M74.304 437.49L518.734 437.49L518.734 437.49L518.734 84.66998L518.734 84.66998L74.304 84.66998z" /></clipPath><clipPath id="73"><path d="M74.304 437.49L518.734 437.49L518.734 437.49L518.734 84.66998L518.734 84.66998L74.304 84.66998z" /></clipPath><clipPath id="74"><path d="M74.304 437.49L518.734 437.49L518.734 437.49L518.734 84.66998L518.734 84.66998L74.304 84.66998z" /></clipPath><clipPath id="75"><path d="M74.304 437.49L518.734 437.49L518.734 437.49L518.734 84.66998L518.734 84.66998L74.304 84.66998z" /></clipPath><clipPath id="76"><path d="M74.304 437.49L518.734 437.49L518.734 437.49L518.734 84.66998L518.734 84.66998L74.304 84.66998z" /></clipPath><clipPath id="77"><path d="M74.304 437.49L518.734 437.49L518.734 437.49L518.734 84.66998L518.734 84.66998L74.304 84.66998z" /></clipPath><clipPath id="78"><path d="M74.304 437.49L518.734 437.49L518.734 437.49L518.734 84.66998L518.734 84.66998L74.304 84.66998z" /></clipPath><clipPath id="79"><path d="M74.304 437.49L518.734 437.49L518.734 437.49L518.734 84.66998L518.734 84.66998L74.304 84.66998z" /></clipPath><clipPath id="80"><path d="M74.304 437.49L518.734 437.49L518.734 437.49L518.734 84.66998L518.734 84.66998L74.304 84.66998z" /></clipPath><clipPath id="81"><path d="M74.304 437.49L518.734 437.49L518.734 437.49L518.734 84.66998L518.734 84.66998L74.304 84.66998z" /></clipPath><clipPath id="82"><path d="M74.304 437.49L518.734 437.49L518.734 437.49L518.734 84.66998L518.734 84.66998L74.304 84.66998z" /></clipPath><clipPath id="83"><path d="M74.304 437.49L518.734 437.49L518.734 437.49L518.734 84.66998L518.734 84.66998L74.304 84.66998z" /></clipPath><clipPath id="84"><path d="M74.304 437.49L518.734 437.49L518.734 437.49L518.734 84.66998L518.734 84.66998L74.304 84.66998z" /></clipPath><clipPath id="85"><path d="M74.304 437.49L518.734 437.49L518.734 437.49L518.734 84.66998L518.734 84.66998L74.304 84.66998z" /></clipPath><clipPath id="86"><path d="M74.304 437.49L518.734 437.49L518.734 437.49L518.734 84.66998L518.734 84.66998L74.304 84.66998z" /></clipPath><clipPath id="87"><path d="M74.304 437.49L518.734 437.49L518.734 437.49L518.734 84.66998L518.734 84.66998L74.304 84.66998z" /></clipPath><clipPath id="88"><path d="M74.304 437.49L518.734 437.49L518.734 437.49L518.734 84.66998L518.734 84.66998L74.304 84.66998z" /></clipPath><clipPath id="89"><path d="M74.304 437.49L518.734 437.49L518.734 437.49L518.734 84.66998L518.734 84.66998L74.304 84.66998z" /></clipPath><clipPath id="90"><path d="M74.304 437.49L518.734 437.49L518.734 437.49L518.734 84.66998L518.734 84.66998L74.304 84.66998z" /></clipPath><clipPath id="91"><path d="M74.304 614.75L518.734 614.75L518.734 614.75L518.734 437.97L518.734 437.97L74.304 437.97z" /></clipPath><clipPath id="92"><path d="M74.304 614.75L518.734 614.75L518.734 614.75L518.734 437.97L518.734 437.97L74.304 437.97z" /></clipPath><clipPath id="93"><path d="M74.304 614.75L518.734 614.75L518.734 614.75L518.734 437.97L518.734 437.97L74.304 437.97z" /></clipPath><clipPath id="94"><path d="M74.304 614.75L518.734 614.75L518.734 614.75L518.734 437.97L518.734 437.97L74.304 437.97z" /></clipPath><clipPath id="95"><path d="M90.384 467.63L307.364 467.63L307.364 467.63L307.364 454.07L307.364 454.07L90.384 454.07z" /></clipPath><clipPath id="96"><path d="M90.384 467.63L307.364 467.63L307.364 467.63L307.364 454.07L307.364 454.07L90.384 454.07z" /></clipPath><clipPath id="97"><path d="M90.384 467.63L307.364 467.63L307.364 467.63L307.364 454.07L307.364 454.07L90.384 454.07z" /></clipPath><clipPath id="98"><path d="M90.384 467.63L307.364 467.63L307.364 467.63L307.364 454.07L307.364 454.07L90.384 454.07z" /></clipPath><clipPath id="99"><path d="M90.384 467.63L307.364 467.63L307.364 467.63L307.364 454.07L307.364 454.07L90.384 454.07z" /></clipPath><clipPath id="100"><path d="M307.85 467.63L524.86 467.63L524.86 467.63L524.86 454.07L524.86 454.07L307.85 454.07z" /></clipPath><clipPath id="101"><path d="M307.85 467.63L524.86 467.63L524.86 467.63L524.86 454.07L524.86 454.07L307.85 454.07z" /></clipPath><clipPath id="102"><path d="M307.85 467.63L524.86 467.63L524.86 467.63L524.86 454.07L524.86 454.07L307.85 454.07z" /></clipPath><clipPath id="103"><path d="M307.85 467.63L524.86 467.63L524.86 467.63L524.86 454.07L524.86 454.07L307.85 454.07z" /></clipPath><clipPath id="104"><path d="M307.85 467.63L524.86 467.63L524.86 467.63L524.86 454.07L524.86 454.07L307.85 454.07z" /></clipPath><clipPath id="105"><path d="M307.85 467.63L524.86 467.63L524.86 467.63L524.86 454.07L524.86 454.07L307.85 454.07z" /></clipPath><clipPath id="106"><path d="M307.85 467.63L524.86 467.63L524.86 467.63L524.86 454.07L524.86 454.07L307.85 454.07z" /></clipPath><clipPath id="107"><path d="M90.384 487.79L307.364 487.79L307.364 487.79L307.364 468.23L307.364 468.23L90.384 468.23z" /></clipPath><clipPath id="108"><path d="M90.384 487.79L307.364 487.79L307.364 487.79L307.364 468.23L307.364 468.23L90.384 468.23z" /></clipPath><clipPath id="109"><path d="M90.384 487.79L307.364 487.79L307.364 487.79L307.364 468.23L307.364 468.23L90.384 468.23z" /></clipPath><clipPath id="110"><path d="M90.384 487.79L307.364 487.79L307.364 487.79L307.364 468.23L307.364 468.23L90.384 468.23z" /></clipPath><clipPath id="111"><path d="M307.85 487.79L524.86 487.79L524.86 487.79L524.86 468.23L524.86 468.23L307.85 468.23z" /></clipPath><clipPath id="112"><path d="M307.85 487.79L524.86 487.79L524.86 487.79L524.86 468.23L524.86 468.23L307.85 468.23z" /></clipPath><clipPath id="113"><path d="M307.85 487.79L524.86 487.79L524.86 487.79L524.86 468.23L524.86 468.23L307.85 468.23z" /></clipPath><clipPath id="114"><path d="M74.304 614.75L518.734 614.75L518.734 614.75L518.734 437.97L518.734 437.97L74.304 437.97z" /></clipPath></defs><g transform="matrix(1.333333 0 0 1.333333 0 0)"><g><g clip-path="url(#1)"><g clip-path="url(#2)"></g><g clip-path="url(#3)"></g><g clip-path="url(#4)"><g clip-path="url(#5)"></g><g clip-path="url(#6)"></g></g><g clip-path="url(#7)"><g clip-path="url(#8)"></g><g clip-path="url(#9)"></g><g clip-path="url(#10)"></g><g clip-path="url(#11)"></g><g clip-path="url(#12)"></g><g clip-path="url(#13)"></g><g clip-path="url(#14)"></g><g clip-path="url(#15)"></g><g clip-path="url(#16)"></g><g clip-path="url(#17)"></g><g clip-path="url(#18)"></g><g clip-path="url(#19)"></g><g clip-path="url(#20)"></g><g clip-path="url(#21)"></g><g clip-path="url(#22)"></g><g clip-path="url(#23)"></g><g clip-path="url(#24)"></g><g clip-path="url(#25)"></g><g clip-path="url(#26)"></g><g clip-path="url(#27)"></g><g clip-path="url(#28)"></g><g clip-path="url(#29)"></g><g clip-path="url(#30)"></g><g clip-path="url(#31)"></g><g clip-path="url(#32)"></g><g clip-path="url(#33)"></g><g clip-path="url(#34)"></g><g clip-path="url(#35)"></g><g clip-path="url(#36)"></g><g clip-path="url(#37)"></g><g clip-path="url(#38)"></g><g clip-path="url(#39)"></g><g clip-path="url(#40)"></g><g clip-path="url(#41)"></g><g clip-path="url(#42)"></g><g clip-path="url(#43)"></g><g clip-path="url(#44)"></g><g clip-path="url(#45)"></g><g clip-path="url(#46)"></g><g clip-path="url(#47)"></g><g clip-path="url(#48)"></g><g clip-path="url(#49)"></g><g clip-path="url(#50)"></g><g clip-path="url(#51)"></g><g clip-path="url(#52)"></g><g clip-path="url(#53)"></g><g clip-path="url(#54)"></g><g clip-path="url(#55)"></g><g clip-path="url(#56)"></g><g clip-path="url(#57)"></g><g clip-path="url(#58)"></g><g clip-path="url(#59)"></g><g clip-path="url(#60)"></g><g clip-path="url(#61)"></g><g clip-path="url(#62)"></g><g clip-path="url(#63)"></g><g clip-path="url(#64)"></g><g clip-path="url(#65)"></g><g clip-path="url(#66)"></g><g clip-path="url(#67)"></g><g clip-path="url(#68)"></g><g clip-path="url(#69)"></g><g clip-path="url(#70)"></g><g clip-path="url(#71)"></g><g clip-path="url(#72)"></g><g clip-path="url(#73)"></g><g clip-path="url(#74)"></g><g clip-path="url(#75)"></g><g clip-path="url(#76)"></g><g clip-path="url(#77)"></g><g clip-path="url(#78)"></g><g clip-path="url(#79)"></g><g clip-path="url(#80)"></g><g clip-path="url(#81)"></g><g clip-path="url(#82)"></g><g clip-path="url(#83)"></g><g clip-path="url(#84)"></g><g clip-path="url(#85)"></g><g clip-path="url(#86)"></g><g clip-path="url(#87)"></g><g clip-path="url(#88)"></g><g clip-path="url(#89)"></g><g clip-path="url(#90)"></g></g><path transform="matrix(1 0 0 -1 0 841)" d="M73.824 756.34L74.304 756.34L74.304 756.34L74.304 756.82L74.304 756.82L73.824 756.82z" stroke="none" fill="#000000" fill-rule="evenodd" /><path transform="matrix(1 0 0 -1 0 841)" d="M73.824 756.34L74.304 756.34L74.304 756.34L74.304 756.82L74.304 756.82L73.824 756.82z" stroke="none" fill="#000000" fill-rule="evenodd" /><path transform="matrix(1 0 0 -1 0 841)" d="M74.304 756.34L518.734 756.34L518.734 756.34L518.734 756.82L518.734 756.82L74.304 756.82z" stroke="none" fill="#000000" fill-rule="evenodd" /><path transform="matrix(1 0 0 -1 0 841)" d="M518.74 756.34L519.22 756.34L519.22 756.34L519.22 756.82L519.22 756.82L518.74 756.82z" stroke="none" fill="#000000" fill-rule="evenodd" /><path transform="matrix(1 0 0 -1 0 841)" d="M518.74 756.34L519.22 756.34L519.22 756.34L519.22 756.82L519.22 756.82L518.74 756.82z" stroke="none" fill="#000000" fill-rule="evenodd" /><path transform="matrix(1 0 0 -1 0 841)" d="M73.824 403.51L74.304 403.51L74.304 403.51L74.304 756.33L74.304 756.33L73.824 756.33z" stroke="none" fill="#000000" fill-rule="evenodd" /><path transform="matrix(1 0 0 -1 0 841)" d="M518.74 403.51L519.22 403.51L519.22 403.51L519.22 756.33L519.22 756.33L518.74 756.33z" stroke="none" fill="#000000" fill-rule="evenodd" /><g clip-path="url(#91)"><g clip-path="url(#92)"></g><g clip-path="url(#93)"></g><g clip-path="url(#94)"></g><g clip-path="url(#95)"><g clip-path="url(#96)"></g><g clip-path="url(#97)"></g><g clip-path="url(#98)"></g><g clip-path="url(#99)"></g></g><g clip-path="url(#100)"><g clip-path="url(#101)"></g><g clip-path="url(#102)"></g><g clip-path="url(#103)"></g><g clip-path="url(#104)"></g><g clip-path="url(#105)"></g><g clip-path="url(#106)"></g></g><path transform="matrix(1 0 0 -1 0 841)" d="M90.024 386.93L90.50401 386.93L90.50401 386.93L90.50401 387.41L90.50401 387.41L90.024 387.41z" stroke="none" fill="#000000" fill-rule="evenodd" /><path transform="matrix(1 0 0 -1 0 841)" d="M90.024 386.93L90.50401 386.93L90.50401 386.93L90.50401 387.41L90.50401 387.41L90.024 387.41z" stroke="none" fill="#000000" fill-rule="evenodd" /><path transform="matrix(1 0 0 -1 0 841)" d="M90.504 386.93L307.364 386.93L307.364 386.93L307.364 387.41L307.364 387.41L90.504 387.41z" stroke="none" fill="#000000" fill-rule="evenodd" /><path transform="matrix(1 0 0 -1 0 841)" d="M307.37 386.93L307.85 386.93L307.85 386.93L307.85 387.41L307.85 387.41L307.37 387.41z" stroke="none" fill="#000000" fill-rule="evenodd" /><path transform="matrix(1 0 0 -1 0 841)" d="M307.85 386.93L524.86 386.93L524.86 386.93L524.86 387.41L524.86 387.41L307.85 387.41z" stroke="none" fill="#000000" fill-rule="evenodd" /><path transform="matrix(1 0 0 -1 0 841)" d="M524.86 386.93L525.34 386.93L525.34 386.93L525.34 387.41L525.34 387.41L524.86 387.41z" stroke="none" fill="#000000" fill-rule="evenodd" /><path transform="matrix(1 0 0 -1 0 841)" d="M524.86 386.93L525.34 386.93L525.34 386.93L525.34 387.41L525.34 387.41L524.86 387.41z" stroke="none" fill="#000000" fill-rule="evenodd" /><path transform="matrix(1 0 0 -1 0 841)" d="M90.024 373.37L90.50401 373.37L90.50401 373.37L90.50401 386.93L90.50401 386.93L90.024 386.93z" stroke="none" fill="#000000" fill-rule="evenodd" /><path transform="matrix(1 0 0 -1 0 841)" d="M307.37 373.37L307.85 373.37L307.85 373.37L307.85 386.93L307.85 386.93L307.37 386.93z" stroke="none" fill="#000000" fill-rule="evenodd" /><path transform="matrix(1 0 0 -1 0 841)" d="M524.86 373.37L525.34 373.37L525.34 373.37L525.34 386.93L525.34 386.93L524.86 386.93z" stroke="none" fill="#000000" fill-rule="evenodd" /><g clip-path="url(#107)"><g clip-path="url(#108)"></g><g clip-path="url(#109)"></g><g clip-path="url(#110)"></g></g><g clip-path="url(#111)"><g clip-path="url(#112)"></g><g clip-path="url(#113)"></g></g><path transform="matrix(1 0 0 -1 0 841)" d="M90.024 372.89L90.50401 372.89L90.50401 372.89L90.50401 373.37L90.50401 373.37L90.024 373.37z" stroke="none" fill="#000000" fill-rule="evenodd" /><path transform="matrix(1 0 0 -1 0 841)" d="M90.504 372.89L307.364 372.89L307.364 372.89L307.364 373.37L307.364 373.37L90.504 373.37z" stroke="none" fill="#000000" fill-rule="evenodd" /><path transform="matrix(1 0 0 -1 0 841)" d="M307.37 372.89L307.85 372.89L307.85 372.89L307.85 373.37L307.85 373.37L307.37 373.37z" stroke="none" fill="#000000" fill-rule="evenodd" /><path transform="matrix(1 0 0 -1 0 841)" d="M307.85 372.89L524.86 372.89L524.86 372.89L524.86 373.37L524.86 373.37L307.85 373.37z" stroke="none" fill="#000000" fill-rule="evenodd" /><path transform="matrix(1 0 0 -1 0 841)" d="M524.86 372.89L525.34 372.89L525.34 372.89L525.34 373.37L525.34 373.37L524.86 373.37z" stroke="none" fill="#000000" fill-rule="evenodd" /><path transform="matrix(1 0 0 -1 0 841)" d="M90.024 353.21L90.50401 353.21L90.50401 353.21L90.50401 372.89L90.50401 372.89L90.024 372.89z" stroke="none" fill="#000000" fill-rule="evenodd" /><path transform="matrix(1 0 0 -1 0 841)" d="M90.024 352.73L90.50401 352.73L90.50401 352.73L90.50401 353.21L90.50401 353.21L90.024 353.21z" stroke="none" fill="#000000" fill-rule="evenodd" /><path transform="matrix(1 0 0 -1 0 841)" d="M90.024 352.73L90.50401 352.73L90.50401 352.73L90.50401 353.21L90.50401 353.21L90.024 353.21z" stroke="none" fill="#000000" fill-rule="evenodd" /><path transform="matrix(1 0 0 -1 0 841)" d="M90.504 352.73L307.364 352.73L307.364 352.73L307.364 353.21L307.364 353.21L90.504 353.21z" stroke="none" fill="#000000" fill-rule="evenodd" /><path transform="matrix(1 0 0 -1 0 841)" d="M307.37 353.21L307.85 353.21L307.85 353.21L307.85 372.89L307.85 372.89L307.37 372.89z" stroke="none" fill="#000000" fill-rule="evenodd" /><path transform="matrix(1 0 0 -1 0 841)" d="M307.37 352.73L307.85 352.73L307.85 352.73L307.85 353.21L307.85 353.21L307.37 353.21z" stroke="none" fill="#000000" fill-rule="evenodd" /><path transform="matrix(1 0 0 -1 0 841)" d="M307.85 352.73L524.86 352.73L524.86 352.73L524.86 353.21L524.86 353.21L307.85 353.21z" stroke="none" fill="#000000" fill-rule="evenodd" /><path transform="matrix(1 0 0 -1 0 841)" d="M524.86 353.21L525.34 353.21L525.34 353.21L525.34 372.89L525.34 372.89L524.86 372.89z" stroke="none" fill="#000000" fill-rule="evenodd" /><path transform="matrix(1 0 0 -1 0 841)" d="M524.86 352.73L525.34 352.73L525.34 352.73L525.34 353.21L525.34 353.21L524.86 353.21z" stroke="none" fill="#000000" fill-rule="evenodd" /><path transform="matrix(1 0 0 -1 0 841)" d="M524.86 352.73L525.34 352.73L525.34 352.73L525.34 353.21L525.34 353.21L524.86 353.21z" stroke="none" fill="#000000" fill-rule="evenodd" /><g clip-path="url(#114)"></g></g><path transform="matrix(1 0 0 -1 0 841)" d="M73.824 403.03L74.304 403.03L74.304 403.03L74.304 403.51L74.304 403.51L73.824 403.51z" stroke="none" fill="#000000" fill-rule="evenodd" /><path transform="matrix(1 0 0 -1 0 841)" d="M74.304 403.03L518.734 403.03L518.734 403.03L518.734 403.51L518.734 403.51L74.304 403.51z" stroke="none" fill="#000000" fill-rule="evenodd" /><path transform="matrix(1 0 0 -1 0 841)" d="M518.74 403.03L519.22 403.03L519.22 403.03L519.22 403.51L519.22 403.51L518.74 403.51z" stroke="none" fill="#000000" fill-rule="evenodd" /><path transform="matrix(1 0 0 -1 0 841)" d="M73.824 226.25L74.304 226.25L74.304 226.25L74.304 403.03L74.304 403.03L73.824 403.03z" stroke="none" fill="#000000" fill-rule="evenodd" /><path transform="matrix(1 0 0 -1 0 841)" d="M73.824 225.77L74.304 225.77L74.304 225.77L74.304 226.25L74.304 226.25L73.824 226.25z" stroke="none" fill="#000000" fill-rule="evenodd" /><path transform="matrix(1 0 0 -1 0 841)" d="M73.824 225.77L74.304 225.77L74.304 225.77L74.304 226.25L74.304 226.25L73.824 226.25z" stroke="none" fill="#000000" fill-rule="evenodd" /><path transform="matrix(1 0 0 -1 0 841)" d="M74.304 225.77L518.734 225.77L518.734 225.77L518.734 226.25L518.734 226.25L74.304 226.25z" stroke="none" fill="#000000" fill-rule="evenodd" /><path transform="matrix(1 0 0 -1 0 841)" d="M518.74 226.25L519.22 226.25L519.22 226.25L519.22 403.03L519.22 403.03L518.74 403.03z" stroke="none" fill="#000000" fill-rule="evenodd" /><path transform="matrix(1 0 0 -1 0 841)" d="M518.74 225.77L519.22 225.77L519.22 225.77L519.22 226.25L519.22 226.25L518.74 226.25z" stroke="none" fill="#000000" fill-rule="evenodd" /><path transform="matrix(1 0 0 -1 0 841)" d="M518.74 225.77L519.22 225.77L519.22 225.77L519.22 226.25L519.22 226.25L518.74 226.25z" stroke="none" fill="#000000" fill-rule="evenodd" /></g></g></g></svg>