<svg xmlns="http://www.w3.org/2000/svg" xmlns:xlink="http://www.w3.org/1999/xlink" id="body_5" preserveAspectRatio="xMinYMin meet" viewBox="0 0 793 1121"><defs><clipPath id="1"><path d="M0 841L0 -0.9199829L0 -0.9199829L595.32 -0.9199829L595.32 -0.9199829L595.32 841L595.32 841L0 841z" /></clipPath><clipPath id="2"><path d="M8.871E-06 841L595.32 841L595.32 841L595.32 -0.9199829L595.32 -0.9199829L8.871E-06 -0.9199829z" /></clipPath><clipPath id="3"><path d="M8.871E-06 841L595.32 841L595.32 841L595.32 -0.9199829L595.32 -0.9199829L8.871E-06 -0.9199829z" /></clipPath><clipPath id="4"><path d="M295.37 791.416L299.81 791.416L299.81 791.416L299.81 781.096L299.81 781.096L295.37 781.096z" /></clipPath><clipPath id="5"><path d="M295.37 791.416L299.81 791.416L299.81 791.416L299.81 781.096L299.81 781.096L295.37 781.096z" /></clipPath><clipPath id="6"><path d="M295.37 791.416L299.81 791.416L299.81 791.416L299.81 781.096L299.81 781.096L295.37 781.096z" /></clipPath><clipPath id="7"><path d="M74.304 437.49L518.734 437.49L518.734 437.49L518.734 84.66998L518.734 84.66998L74.304 84.66998z" /></clipPath><clipPath id="8"><path d="M74.304 437.49L518.734 437.49L518.734 437.49L518.734 84.66998L518.734 84.66998L74.304 84.66998z" /></clipPath><clipPath id="9"><path d="M74.304 437.49L518.734 437.49L518.734 437.49L518.734 84.66998L518.734 84.66998L74.304 84.66998z" /></clipPath><clipPath id="10"><path d="M74.304 437.49L518.734 437.49L518.734 437.49L518.734 84.66998L518.734 84.66998L74.304 84.66998z" /></clipPath><clipPath id="11"><path d="M74.304 437.49L518.734 437.49L518.734 437.49L518.734 84.66998L518.734 84.66998L74.304 84.66998z" /></clipPath><clipPath id="12"><path d="M74.304 437.49L518.734 437.49L518.734 437.49L518.734 84.66998L518.734 84.66998L74.304 84.66998z" /></clipPath><clipPath id="13"><path d="M74.304 437.49L518.734 437.49L518.734 437.49L518.734 84.66998L518.734 84.66998L74.304 84.66998z" /></clipPath><clipPath id="14"><path d="M74.304 437.49L518.734 437.49L518.734 437.49L518.734 84.66998L518.734 84.66998L74.304 84.66998z" /></clipPath><clipPath id="15"><path d="M74.304 437.49L518.734 437.49L518.734 437.49L518.734 84.66998L518.734 84.66998L74.304 84.66998z" /></clipPath><clipPath id="16"><path d="M74.304 437.49L518.734 437.49L518.734 437.49L518.734 84.66998L518.734 84.66998L74.304 84.66998z" /></clipPath><clipPath id="17"><path d="M74.304 437.49L518.734 437.49L518.734 437.49L518.734 84.66998L518.734 84.66998L74.304 84.66998z" /></clipPath><clipPath id="18"><path d="M74.304 437.49L518.734 437.49L518.734 437.49L518.734 84.66998L518.734 84.66998L74.304 84.66998z" /></clipPath><clipPath id="19"><path d="M74.304 437.49L518.734 437.49L518.734 437.49L518.734 84.66998L518.734 84.66998L74.304 84.66998z" /></clipPath><clipPath id="20"><path d="M74.304 437.49L518.734 437.49L518.734 437.49L518.734 84.66998L518.734 84.66998L74.304 84.66998z" /></clipPath><clipPath id="21"><path d="M74.304 437.49L518.734 437.49L518.734 437.49L518.734 84.66998L518.734 84.66998L74.304 84.66998z" /></clipPath><clipPath id="22"><path d="M74.304 437.49L518.734 437.49L518.734 437.49L518.734 84.66998L518.734 84.66998L74.304 84.66998z" /></clipPath><clipPath id="23"><path d="M74.304 437.49L518.734 437.49L518.734 437.49L518.734 84.66998L518.734 84.66998L74.304 84.66998z" /></clipPath><clipPath id="24"><path d="M74.304 437.49L518.734 437.49L518.734 437.49L518.734 84.66998L518.734 84.66998L74.304 84.66998z" /></clipPath><clipPath id="25"><path d="M74.304 437.49L518.734 437.49L518.734 437.49L518.734 84.66998L518.734 84.66998L74.304 84.66998z" /></clipPath><clipPath id="26"><path d="M74.304 437.49L518.734 437.49L518.734 437.49L518.734 84.66998L518.734 84.66998L74.304 84.66998z" /></clipPath><clipPath id="27"><path d="M74.304 437.49L518.734 437.49L518.734 437.49L518.734 84.66998L518.734 84.66998L74.304 84.66998z" /></clipPath><clipPath id="28"><path d="M74.304 437.49L518.734 437.49L518.734 437.49L518.734 84.66998L518.734 84.66998L74.304 84.66998z" /></clipPath><clipPath id="29"><path d="M74.304 437.49L518.734 437.49L518.734 437.49L518.734 84.66998L518.734 84.66998L74.304 84.66998z" /></clipPath><clipPath id="30"><path d="M74.304 437.49L518.734 437.49L518.734 437.49L518.734 84.66998L518.734 84.66998L74.304 84.66998z" /></clipPath><clipPath id="31"><path d="M74.304 437.49L518.734 437.49L518.734 437.49L518.734 84.66998L518.734 84.66998L74.304 84.66998z" /></clipPath><clipPath id="32"><path d="M74.304 437.49L518.734 437.49L518.734 437.49L518.734 84.66998L518.734 84.66998L74.304 84.66998z" /></clipPath><clipPath id="33"><path d="M74.304 437.49L518.734 437.49L518.734 437.49L518.734 84.66998L518.734 84.66998L74.304 84.66998z" /></clipPath><clipPath id="34"><path d="M74.304 437.49L518.734 437.49L518.734 437.49L518.734 84.66998L518.734 84.66998L74.304 84.66998z" /></clipPath><clipPath id="35"><path d="M74.304 437.49L518.734 437.49L518.734 437.49L518.734 84.66998L518.734 84.66998L74.304 84.66998z" /></clipPath><clipPath id="36"><path d="M74.304 437.49L518.734 437.49L518.734 437.49L518.734 84.66998L518.734 84.66998L74.304 84.66998z" /></clipPath><clipPath id="37"><path d="M74.304 437.49L518.734 437.49L518.734 437.49L518.734 84.66998L518.734 84.66998L74.304 84.66998z" /></clipPath><clipPath id="38"><path d="M74.304 437.49L518.734 437.49L518.734 437.49L518.734 84.66998L518.734 84.66998L74.304 84.66998z" /></clipPath><clipPath id="39"><path d="M74.304 437.49L518.734 437.49L518.734 437.49L518.734 84.66998L518.734 84.66998L74.304 84.66998z" /></clipPath><clipPath id="40"><path d="M74.304 437.49L518.734 437.49L518.734 437.49L518.734 84.66998L518.734 84.66998L74.304 84.66998z" /></clipPath><clipPath id="41"><path d="M74.304 437.49L518.734 437.49L518.734 437.49L518.734 84.66998L518.734 84.66998L74.304 84.66998z" /></clipPath><clipPath id="42"><path d="M74.304 437.49L518.734 437.49L518.734 437.49L518.734 84.66998L518.734 84.66998L74.304 84.66998z" /></clipPath><clipPath id="43"><path d="M74.304 437.49L518.734 437.49L518.734 437.49L518.734 84.66998L518.734 84.66998L74.304 84.66998z" /></clipPath><clipPath id="44"><path d="M74.304 437.49L518.734 437.49L518.734 437.49L518.734 84.66998L518.734 84.66998L74.304 84.66998z" /></clipPath><clipPath id="45"><path d="M74.304 437.49L518.734 437.49L518.734 437.49L518.734 84.66998L518.734 84.66998L74.304 84.66998z" /></clipPath><clipPath id="46"><path d="M74.304 437.49L518.734 437.49L518.734 437.49L518.734 84.66998L518.734 84.66998L74.304 84.66998z" /></clipPath><clipPath id="47"><path d="M74.304 437.49L518.734 437.49L518.734 437.49L518.734 84.66998L518.734 84.66998L74.304 84.66998z" /></clipPath><clipPath id="48"><path d="M74.304 437.49L518.734 437.49L518.734 437.49L518.734 84.66998L518.734 84.66998L74.304 84.66998z" /></clipPath><clipPath id="49"><path d="M74.304 437.49L518.734 437.49L518.734 437.49L518.734 84.66998L518.734 84.66998L74.304 84.66998z" /></clipPath><clipPath id="50"><path d="M74.304 437.49L518.734 437.49L518.734 437.49L518.734 84.66998L518.734 84.66998L74.304 84.66998z" /></clipPath><clipPath id="51"><path d="M74.304 437.49L518.734 437.49L518.734 437.49L518.734 84.66998L518.734 84.66998L74.304 84.66998z" /></clipPath><clipPath id="52"><path d="M74.304 437.49L518.734 437.49L518.734 437.49L518.734 84.66998L518.734 84.66998L74.304 84.66998z" /></clipPath><clipPath id="53"><path d="M74.304 437.49L518.734 437.49L518.734 437.49L518.734 84.66998L518.734 84.66998L74.304 84.66998z" /></clipPath><clipPath id="54"><path d="M74.304 437.49L518.734 437.49L518.734 437.49L518.734 84.66998L518.734 84.66998L74.304 84.66998z" /></clipPath><clipPath id="55"><path d="M74.304 437.49L518.734 437.49L518.734 437.49L518.734 84.66998L518.734 84.66998L74.304 84.66998z" /></clipPath><clipPath id="56"><path d="M74.304 437.49L518.734 437.49L518.734 437.49L518.734 84.66998L518.734 84.66998L74.304 84.66998z" /></clipPath><clipPath id="57"><path d="M74.304 437.49L518.734 437.49L518.734 437.49L518.734 84.66998L518.734 84.66998L74.304 84.66998z" /></clipPath><clipPath id="58"><path d="M74.304 437.49L518.734 437.49L518.734 437.49L518.734 84.66998L518.734 84.66998L74.304 84.66998z" /></clipPath><clipPath id="59"><path d="M74.304 437.49L518.734 437.49L518.734 437.49L518.734 84.66998L518.734 84.66998L74.304 84.66998z" /></clipPath><clipPath id="60"><path d="M74.304 437.49L518.734 437.49L518.734 437.49L518.734 84.66998L518.734 84.66998L74.304 84.66998z" /></clipPath><clipPath id="61"><path d="M74.304 437.49L518.734 437.49L518.734 437.49L518.734 84.66998L518.734 84.66998L74.304 84.66998z" /></clipPath><clipPath id="62"><path d="M74.304 437.49L518.734 437.49L518.734 437.49L518.734 84.66998L518.734 84.66998L74.304 84.66998z" /></clipPath><clipPath id="63"><path d="M74.304 437.49L518.734 437.49L518.734 437.49L518.734 84.66998L518.734 84.66998L74.304 84.66998z" /></clipPath><clipPath id="64"><path d="M74.304 437.49L518.734 437.49L518.734 437.49L518.734 84.66998L518.734 84.66998L74.304 84.66998z" /></clipPath><clipPath id="65"><path d="M74.304 437.49L518.734 437.49L518.734 437.49L518.734 84.66998L518.734 84.66998L74.304 84.66998z" /></clipPath><clipPath id="66"><path d="M74.304 437.49L518.734 437.49L518.734 437.49L518.734 84.66998L518.734 84.66998L74.304 84.66998z" /></clipPath><clipPath id="67"><path d="M74.304 437.49L518.734 437.49L518.734 437.49L518.734 84.66998L518.734 84.66998L74.304 84.66998z" /></clipPath><clipPath id="68"><path d="M74.304 437.49L518.734 437.49L518.734 437.49L518.734 84.66998L518.734 84.66998L74.304 84.66998z" /></clipPath><clipPath id="69"><path d="M74.304 437.49L518.734 437.49L518.734 437.49L518.734 84.66998L518.734 84.66998L74.304 84.66998z" /></clipPath><clipPath id="70"><path d="M74.304 437.49L518.734 437.49L518.734 437.49L518.734 84.66998L518.734 84.66998L74.304 84.66998z" /></clipPath><clipPath id="71"><path d="M74.304 437.49L518.734 437.49L518.734 437.49L518.734 84.66998L518.734 84.66998L74.304 84.66998z" /></clipPath><clipPath id="72"><path d="M74.304 437.49L518.734 437.49L518.734 437.49L518.734 84.66998L518.734 84.66998L74.304 84.66998z" /></clipPath><clipPath id="73"><path d="M74.304 437.49L518.734 437.49L518.734 437.49L518.734 84.66998L518.734 84.66998L74.304 84.66998z" /></clipPath><clipPath id="74"><path d="M74.304 437.49L518.734 437.49L518.734 437.49L518.734 84.66998L518.734 84.66998L74.304 84.66998z" /></clipPath><clipPath id="75"><path d="M74.304 437.49L518.734 437.49L518.734 437.49L518.734 84.66998L518.734 84.66998L74.304 84.66998z" /></clipPath><clipPath id="76"><path d="M74.304 437.49L518.734 437.49L518.734 437.49L518.734 84.66998L518.734 84.66998L74.304 84.66998z" /></clipPath><clipPath id="77"><path d="M74.304 437.49L518.734 437.49L518.734 437.49L518.734 84.66998L518.734 84.66998L74.304 84.66998z" /></clipPath><clipPath id="78"><path d="M74.304 437.49L518.734 437.49L518.734 437.49L518.734 84.66998L518.734 84.66998L74.304 84.66998z" /></clipPath><clipPath id="79"><path d="M74.304 437.49L518.734 437.49L518.734 437.49L518.734 84.66998L518.734 84.66998L74.304 84.66998z" /></clipPath><clipPath id="80"><path d="M74.304 437.49L518.734 437.49L518.734 437.49L518.734 84.66998L518.734 84.66998L74.304 84.66998z" /></clipPath><clipPath id="81"><path d="M74.304 437.49L518.734 437.49L518.734 437.49L518.734 84.66998L518.734 84.66998L74.304 84.66998z" /></clipPath><clipPath id="82"><path d="M74.304 437.49L518.734 437.49L518.734 437.49L518.734 84.66998L518.734 84.66998L74.304 84.66998z" /></clipPath><clipPath id="83"><path d="M74.304 437.49L518.734 437.49L518.734 437.49L518.734 84.66998L518.734 84.66998L74.304 84.66998z" /></clipPath><clipPath id="84"><path d="M74.304 437.49L518.734 437.49L518.734 437.49L518.734 84.66998L518.734 84.66998L74.304 84.66998z" /></clipPath><clipPath id="85"><path d="M74.304 437.49L518.734 437.49L518.734 437.49L518.734 84.66998L518.734 84.66998L74.304 84.66998z" /></clipPath><clipPath id="86"><path d="M74.304 437.49L518.734 437.49L518.734 437.49L518.734 84.66998L518.734 84.66998L74.304 84.66998z" /></clipPath><clipPath id="87"><path d="M74.304 437.49L518.734 437.49L518.734 437.49L518.734 84.66998L518.734 84.66998L74.304 84.66998z" /></clipPath><clipPath id="88"><path d="M74.304 437.49L518.734 437.49L518.734 437.49L518.734 84.66998L518.734 84.66998L74.304 84.66998z" /></clipPath><clipPath id="89"><path d="M74.304 437.49L518.734 437.49L518.734 437.49L518.734 84.66998L518.734 84.66998L74.304 84.66998z" /></clipPath><clipPath id="90"><path d="M74.304 437.49L518.734 437.49L518.734 437.49L518.734 84.66998L518.734 84.66998L74.304 84.66998z" /></clipPath><clipPath id="91"><path d="M74.304 437.49L518.734 437.49L518.734 437.49L518.734 84.66998L518.734 84.66998L74.304 84.66998z" /></clipPath><clipPath id="92"><path d="M74.304 437.49L518.734 437.49L518.734 437.49L518.734 84.66998L518.734 84.66998L74.304 84.66998z" /></clipPath></defs><g transform="matrix(1.333333 0 0 1.333333 0 0)"><g><g clip-path="url(#1)"><g clip-path="url(#2)"></g><g clip-path="url(#3)"></g><g clip-path="url(#4)"><g clip-path="url(#5)"></g><g clip-path="url(#6)"></g></g><g clip-path="url(#7)"><g clip-path="url(#8)"></g><g clip-path="url(#9)"></g><g clip-path="url(#10)"></g><g clip-path="url(#11)"></g><g clip-path="url(#12)"></g><g clip-path="url(#13)"></g><g clip-path="url(#14)"></g><g clip-path="url(#15)"></g><g clip-path="url(#16)"></g><g clip-path="url(#17)"></g><g clip-path="url(#18)"></g><g clip-path="url(#19)"></g><g clip-path="url(#20)"></g><g clip-path="url(#21)"></g><g clip-path="url(#22)"></g><g clip-path="url(#23)"></g><g clip-path="url(#24)"></g><g clip-path="url(#25)"></g><g clip-path="url(#26)"></g><g clip-path="url(#27)"></g><g clip-path="url(#28)"></g><g clip-path="url(#29)"></g><g clip-path="url(#30)"></g><g clip-path="url(#31)"></g><g clip-path="url(#32)"></g><g clip-path="url(#33)"></g><g clip-path="url(#34)"></g><g clip-path="url(#35)"></g><g clip-path="url(#36)"></g><g clip-path="url(#37)"></g><g clip-path="url(#38)"></g><g clip-path="url(#39)"></g><g clip-path="url(#40)"></g><g clip-path="url(#41)"></g><g clip-path="url(#42)"></g><g clip-path="url(#43)"></g><g clip-path="url(#44)"></g><g clip-path="url(#45)"></g><g clip-path="url(#46)"></g><g clip-path="url(#47)"></g><g clip-path="url(#48)"></g><g clip-path="url(#49)"></g><g clip-path="url(#50)"></g><g clip-path="url(#51)"></g><g clip-path="url(#52)"></g><g clip-path="url(#53)"></g><g clip-path="url(#54)"></g><g clip-path="url(#55)"></g><g clip-path="url(#56)"></g><g clip-path="url(#57)"></g><g clip-path="url(#58)"></g><g clip-path="url(#59)"></g><g clip-path="url(#60)"></g><g clip-path="url(#61)"></g><g clip-path="url(#62)"></g><g clip-path="url(#63)"></g><g clip-path="url(#64)"></g><g clip-path="url(#65)"></g><g clip-path="url(#66)"></g><g clip-path="url(#67)"></g><g clip-path="url(#68)"></g><g clip-path="url(#69)"></g><g clip-path="url(#70)"></g><g clip-path="url(#71)"></g><g clip-path="url(#72)"></g><g clip-path="url(#73)"></g><g clip-path="url(#74)"></g><g clip-path="url(#75)"></g><g clip-path="url(#76)"></g><g clip-path="url(#77)"></g><g clip-path="url(#78)"></g><g clip-path="url(#79)"></g><g clip-path="url(#80)"></g><g clip-path="url(#81)"></g><g clip-path="url(#82)"></g><g clip-path="url(#83)"></g><g clip-path="url(#84)"></g><g clip-path="url(#85)"></g><g clip-path="url(#86)"></g><g clip-path="url(#87)"></g><g clip-path="url(#88)"></g><g clip-path="url(#89)"></g><g clip-path="url(#90)"></g><g clip-path="url(#91)"></g><g clip-path="url(#92)"></g></g><path transform="matrix(1 0 0 -1 0 841)" d="M73.824 756.34L74.304 756.34L74.304 756.34L74.304 756.82L74.304 756.82L73.824 756.82z" stroke="none" fill="#000000" fill-rule="evenodd" /><path transform="matrix(1 0 0 -1 0 841)" d="M73.824 756.34L74.304 756.34L74.304 756.34L74.304 756.82L74.304 756.82L73.824 756.82z" stroke="none" fill="#000000" fill-rule="evenodd" /><path transform="matrix(1 0 0 -1 0 841)" d="M74.304 756.34L518.734 756.34L518.734 756.34L518.734 756.82L518.734 756.82L74.304 756.82z" stroke="none" fill="#000000" fill-rule="evenodd" /><path transform="matrix(1 0 0 -1 0 841)" d="M518.74 756.34L519.22 756.34L519.22 756.34L519.22 756.82L519.22 756.82L518.74 756.82z" stroke="none" fill="#000000" fill-rule="evenodd" /><path transform="matrix(1 0 0 -1 0 841)" d="M518.74 756.34L519.22 756.34L519.22 756.34L519.22 756.82L519.22 756.82L518.74 756.82z" stroke="none" fill="#000000" fill-rule="evenodd" /><path transform="matrix(1 0 0 -1 0 841)" d="M73.824 403.51L74.304 403.51L74.304 403.51L74.304 756.33L74.304 756.33L73.824 756.33z" stroke="none" fill="#000000" fill-rule="evenodd" /><path transform="matrix(1 0 0 -1 0 841)" d="M73.824 403.03L74.304 403.03L74.304 403.03L74.304 403.51L74.304 403.51L73.824 403.51z" stroke="none" fill="#000000" fill-rule="evenodd" /><path transform="matrix(1 0 0 -1 0 841)" d="M73.824 403.03L74.304 403.03L74.304 403.03L74.304 403.51L74.304 403.51L73.824 403.51z" stroke="none" fill="#000000" fill-rule="evenodd" /><path transform="matrix(1 0 0 -1 0 841)" d="M74.304 403.03L518.734 403.03L518.734 403.03L518.734 403.51L518.734 403.51L74.304 403.51z" stroke="none" fill="#000000" fill-rule="evenodd" /><path transform="matrix(1 0 0 -1 0 841)" d="M518.74 403.51L519.22 403.51L519.22 403.51L519.22 756.33L519.22 756.33L518.74 756.33z" stroke="none" fill="#000000" fill-rule="evenodd" /><path transform="matrix(1 0 0 -1 0 841)" d="M518.74 403.03L519.22 403.03L519.22 403.03L519.22 403.51L519.22 403.51L518.74 403.51z" stroke="none" fill="#000000" fill-rule="evenodd" /><path transform="matrix(1 0 0 -1 0 841)" d="M518.74 403.03L519.22 403.03L519.22 403.03L519.22 403.51L519.22 403.51L518.74 403.51z" stroke="none" fill="#000000" fill-rule="evenodd" /></g></g></g></svg>