<svg xmlns="http://www.w3.org/2000/svg" xmlns:xlink="http://www.w3.org/1999/xlink" id="body_2" preserveAspectRatio="xMinYMin meet" viewBox="0 0 793 1121"><defs><clipPath id="1"><path d="M0 841L0 -0.9199829L0 -0.9199829L595.32 -0.9199829L595.32 -0.9199829L595.32 841L595.32 841L0 841z" /></clipPath><clipPath id="2"><path d="M8.871E-06 841L595.32 841L595.32 841L595.32 -0.9199829L595.32 -0.9199829L8.871E-06 -0.9199829z" /></clipPath><clipPath id="3"><path d="M8.871E-06 841L595.32 841L595.32 841L595.32 -0.9199829L595.32 -0.9199829L8.871E-06 -0.9199829z" /></clipPath><clipPath id="4"><path d="M295.37 791.416L299.81 791.416L299.81 791.416L299.81 781.096L299.81 781.096L295.37 781.096z" /></clipPath><clipPath id="5"><path d="M295.37 791.416L299.81 791.416L299.81 791.416L299.81 781.096L299.81 781.096L295.37 781.096z" /></clipPath><clipPath id="6"><path d="M295.37 791.416L299.81 791.416L299.81 791.416L299.81 781.096L299.81 781.096L295.37 781.096z" /></clipPath><clipPath id="7"><path d="M74.304 119.58L166.704 119.58L166.704 119.58L166.704 84.66003L166.704 84.66003L74.304 84.66003z" /></clipPath><clipPath id="8"><path d="M74.304 119.58L166.704 119.58L166.704 119.58L166.704 84.66003L166.704 84.66003L74.304 84.66003z" /></clipPath><clipPath id="9"><path d="M74.304 119.58L166.704 119.58L166.704 119.58L166.704 84.66003L166.704 84.66003L74.304 84.66003z" /></clipPath><clipPath id="10"><path d="M167.18 119.58L518.73 119.58L518.73 119.58L518.73 84.66003L518.73 84.66003L167.18 84.66003z" /></clipPath><clipPath id="11"><path d="M167.18 119.58L518.73 119.58L518.73 119.58L518.73 84.66003L518.73 84.66003L167.18 84.66003z" /></clipPath><clipPath id="12"><path d="M167.18 119.58L518.73 119.58L518.73 119.58L518.73 84.66003L518.73 84.66003L167.18 84.66003z" /></clipPath><clipPath id="13"><path d="M74.304 156.3L166.704 156.3L166.704 156.3L166.704 120.06L166.704 120.06L74.304 120.06z" /></clipPath><clipPath id="14"><path d="M74.304 156.3L166.704 156.3L166.704 156.3L166.704 120.06L166.704 120.06L74.304 120.06z" /></clipPath><clipPath id="15"><path d="M74.304 156.3L166.704 156.3L166.704 156.3L166.704 120.06L166.704 120.06L74.304 120.06z" /></clipPath><clipPath id="16"><path d="M167.18 156.3L518.73 156.3L518.73 156.3L518.73 120.06L518.73 120.06L167.18 120.06z" /></clipPath><clipPath id="17"><path d="M167.18 156.3L518.73 156.3L518.73 156.3L518.73 120.06L518.73 120.06L167.18 120.06z" /></clipPath><clipPath id="18"><path d="M167.18 156.3L518.73 156.3L518.73 156.3L518.73 120.06L518.73 120.06L167.18 120.06z" /></clipPath><clipPath id="19"><path d="M167.18 156.3L518.73 156.3L518.73 156.3L518.73 120.06L518.73 120.06L167.18 120.06z" /></clipPath><clipPath id="20"><path d="M167.18 156.3L518.73 156.3L518.73 156.3L518.73 120.06L518.73 120.06L167.18 120.06z" /></clipPath><clipPath id="21"><path d="M74.304 197.34L166.704 197.34L166.704 197.34L166.704 156.9L166.704 156.9L74.304 156.9z" /></clipPath><clipPath id="22"><path d="M74.304 197.34L166.704 197.34L166.704 197.34L166.704 156.9L166.704 156.9L74.304 156.9z" /></clipPath><clipPath id="23"><path d="M74.304 197.34L166.704 197.34L166.704 197.34L166.704 156.9L166.704 156.9L74.304 156.9z" /></clipPath><clipPath id="24"><path d="M74.304 197.34L166.704 197.34L166.704 197.34L166.704 156.9L166.704 156.9L74.304 156.9z" /></clipPath><clipPath id="25"><path d="M74.304 197.34L166.704 197.34L166.704 197.34L166.704 156.9L166.704 156.9L74.304 156.9z" /></clipPath><clipPath id="26"><path d="M167.18 197.34L518.73 197.34L518.73 197.34L518.73 156.9L518.73 156.9L167.18 156.9z" /></clipPath><clipPath id="27"><path d="M167.18 197.34L518.73 197.34L518.73 197.34L518.73 156.9L518.73 156.9L167.18 156.9z" /></clipPath><clipPath id="28"><path d="M167.18 197.34L518.73 197.34L518.73 197.34L518.73 156.9L518.73 156.9L167.18 156.9z" /></clipPath><clipPath id="29"><path d="M167.18 197.34L518.73 197.34L518.73 197.34L518.73 156.9L518.73 156.9L167.18 156.9z" /></clipPath><clipPath id="30"><path d="M74.304 239.58L166.704 239.58L166.704 239.58L166.704 197.82L166.704 197.82L74.304 197.82z" /></clipPath><clipPath id="31"><path d="M74.304 239.58L166.704 239.58L166.704 239.58L166.704 197.82L166.704 197.82L74.304 197.82z" /></clipPath><clipPath id="32"><path d="M74.304 239.58L166.704 239.58L166.704 239.58L166.704 197.82L166.704 197.82L74.304 197.82z" /></clipPath><clipPath id="33"><path d="M167.18 239.58L518.73 239.58L518.73 239.58L518.73 197.82L518.73 197.82L167.18 197.82z" /></clipPath><clipPath id="34"><path d="M167.18 239.58L518.73 239.58L518.73 239.58L518.73 197.82L518.73 197.82L167.18 197.82z" /></clipPath><clipPath id="35"><path d="M167.18 239.58L518.73 239.58L518.73 239.58L518.73 197.82L518.73 197.82L167.18 197.82z" /></clipPath><clipPath id="36"><path d="M167.18 239.58L518.73 239.58L518.73 239.58L518.73 197.82L518.73 197.82L167.18 197.82z" /></clipPath><clipPath id="37"><path d="M167.18 239.58L518.73 239.58L518.73 239.58L518.73 197.82L518.73 197.82L167.18 197.82z" /></clipPath><clipPath id="38"><path d="M167.18 239.58L518.73 239.58L518.73 239.58L518.73 197.82L518.73 197.82L167.18 197.82z" /></clipPath><clipPath id="39"><path d="M167.18 239.58L518.73 239.58L518.73 239.58L518.73 197.82L518.73 197.82L167.18 197.82z" /></clipPath><clipPath id="40"><path d="M167.18 239.58L518.73 239.58L518.73 239.58L518.73 197.82L518.73 197.82L167.18 197.82z" /></clipPath><clipPath id="41"><path d="M167.18 239.58L518.73 239.58L518.73 239.58L518.73 197.82L518.73 197.82L167.18 197.82z" /></clipPath><clipPath id="42"><path d="M167.18 239.58L518.73 239.58L518.73 239.58L518.73 197.82L518.73 197.82L167.18 197.82z" /></clipPath><clipPath id="43"><path d="M167.18 239.58L518.73 239.58L518.73 239.58L518.73 197.82L518.73 197.82L167.18 197.82z" /></clipPath><clipPath id="44"><path d="M167.18 239.58L518.73 239.58L518.73 239.58L518.73 197.82L518.73 197.82L167.18 197.82z" /></clipPath><clipPath id="45"><path d="M167.18 239.58L518.73 239.58L518.73 239.58L518.73 197.82L518.73 197.82L167.18 197.82z" /></clipPath><clipPath id="46"><path d="M74.304 282.45L166.704 282.45L166.704 282.45L166.704 240.066L166.704 240.066L74.304 240.066z" /></clipPath><clipPath id="47"><path d="M74.304 282.45L166.704 282.45L166.704 282.45L166.704 240.066L166.704 240.066L74.304 240.066z" /></clipPath><clipPath id="48"><path d="M74.304 282.45L166.704 282.45L166.704 282.45L166.704 240.066L166.704 240.066L74.304 240.066z" /></clipPath><clipPath id="49"><path d="M167.18 282.45L518.73 282.45L518.73 282.45L518.73 240.066L518.73 240.066L167.18 240.066z" /></clipPath><clipPath id="50"><path d="M167.18 282.45L518.73 282.45L518.73 282.45L518.73 240.066L518.73 240.066L167.18 240.066z" /></clipPath><clipPath id="51"><path d="M167.18 282.45L518.73 282.45L518.73 282.45L518.73 240.066L518.73 240.066L167.18 240.066z" /></clipPath><clipPath id="52"><path d="M167.18 282.45L518.73 282.45L518.73 282.45L518.73 240.066L518.73 240.066L167.18 240.066z" /></clipPath><clipPath id="53"><path d="M167.18 282.45L518.73 282.45L518.73 282.45L518.73 240.066L518.73 240.066L167.18 240.066z" /></clipPath><clipPath id="54"><path d="M167.18 282.45L518.73 282.45L518.73 282.45L518.73 240.066L518.73 240.066L167.18 240.066z" /></clipPath><clipPath id="55"><path d="M167.18 282.45L518.73 282.45L518.73 282.45L518.73 240.066L518.73 240.066L167.18 240.066z" /></clipPath><clipPath id="56"><path d="M167.18 282.45L518.73 282.45L518.73 282.45L518.73 240.066L518.73 240.066L167.18 240.066z" /></clipPath><clipPath id="57"><path d="M167.18 282.45L518.73 282.45L518.73 282.45L518.73 240.066L518.73 240.066L167.18 240.066z" /></clipPath><clipPath id="58"><path d="M167.18 282.45L518.73 282.45L518.73 282.45L518.73 240.066L518.73 240.066L167.18 240.066z" /></clipPath><clipPath id="59"><path d="M167.18 282.45L518.73 282.45L518.73 282.45L518.73 240.066L518.73 240.066L167.18 240.066z" /></clipPath><clipPath id="60"><path d="M167.18 282.45L518.73 282.45L518.73 282.45L518.73 240.066L518.73 240.066L167.18 240.066z" /></clipPath><clipPath id="61"><path d="M167.18 282.45L518.73 282.45L518.73 282.45L518.73 240.066L518.73 240.066L167.18 240.066z" /></clipPath><clipPath id="62"><path d="M74.304 430.89L166.704 430.89L166.704 430.89L166.704 282.93L166.704 282.93L74.304 282.93z" /></clipPath><clipPath id="63"><path d="M74.304 430.89L166.704 430.89L166.704 430.89L166.704 282.93L166.704 282.93L74.304 282.93z" /></clipPath><clipPath id="64"><path d="M74.304 430.89L166.704 430.89L166.704 430.89L166.704 282.93L166.704 282.93L74.304 282.93z" /></clipPath><clipPath id="65"><path d="M74.304 430.89L166.704 430.89L166.704 430.89L166.704 282.93L166.704 282.93L74.304 282.93z" /></clipPath><clipPath id="66"><path d="M74.304 430.89L166.704 430.89L166.704 430.89L166.704 282.93L166.704 282.93L74.304 282.93z" /></clipPath><clipPath id="67"><path d="M74.304 430.89L166.704 430.89L166.704 430.89L166.704 282.93L166.704 282.93L74.304 282.93z" /></clipPath><clipPath id="68"><path d="M167.18 430.89L518.73 430.89L518.73 430.89L518.73 282.93L518.73 282.93L167.18 282.93z" /></clipPath><clipPath id="69"><path d="M167.18 430.89L518.73 430.89L518.73 430.89L518.73 282.93L518.73 282.93L167.18 282.93z" /></clipPath><clipPath id="70"><path d="M167.18 430.89L518.73 430.89L518.73 430.89L518.73 282.93L518.73 282.93L167.18 282.93z" /></clipPath><clipPath id="71"><path d="M167.18 430.89L518.73 430.89L518.73 430.89L518.73 282.93L518.73 282.93L167.18 282.93z" /></clipPath><clipPath id="72"><path d="M167.18 430.89L518.73 430.89L518.73 430.89L518.73 282.93L518.73 282.93L167.18 282.93z" /></clipPath><clipPath id="73"><path d="M167.18 430.89L518.73 430.89L518.73 430.89L518.73 282.93L518.73 282.93L167.18 282.93z" /></clipPath><clipPath id="74"><path d="M167.18 430.89L518.73 430.89L518.73 430.89L518.73 282.93L518.73 282.93L167.18 282.93z" /></clipPath><clipPath id="75"><path d="M167.18 430.89L518.73 430.89L518.73 430.89L518.73 282.93L518.73 282.93L167.18 282.93z" /></clipPath><clipPath id="76"><path d="M167.18 430.89L518.73 430.89L518.73 430.89L518.73 282.93L518.73 282.93L167.18 282.93z" /></clipPath><clipPath id="77"><path d="M167.18 430.89L518.73 430.89L518.73 430.89L518.73 282.93L518.73 282.93L167.18 282.93z" /></clipPath><clipPath id="78"><path d="M167.18 430.89L518.73 430.89L518.73 430.89L518.73 282.93L518.73 282.93L167.18 282.93z" /></clipPath><clipPath id="79"><path d="M167.18 430.89L518.73 430.89L518.73 430.89L518.73 282.93L518.73 282.93L167.18 282.93z" /></clipPath><clipPath id="80"><path d="M167.18 430.89L518.73 430.89L518.73 430.89L518.73 282.93L518.73 282.93L167.18 282.93z" /></clipPath><clipPath id="81"><path d="M167.18 430.89L518.73 430.89L518.73 430.89L518.73 282.93L518.73 282.93L167.18 282.93z" /></clipPath><clipPath id="82"><path d="M167.18 430.89L518.73 430.89L518.73 430.89L518.73 282.93L518.73 282.93L167.18 282.93z" /></clipPath><clipPath id="83"><path d="M167.18 430.89L518.73 430.89L518.73 430.89L518.73 282.93L518.73 282.93L167.18 282.93z" /></clipPath><clipPath id="84"><path d="M167.18 430.89L518.73 430.89L518.73 430.89L518.73 282.93L518.73 282.93L167.18 282.93z" /></clipPath><clipPath id="85"><path d="M167.18 430.89L518.73 430.89L518.73 430.89L518.73 282.93L518.73 282.93L167.18 282.93z" /></clipPath><clipPath id="86"><path d="M167.18 430.89L518.73 430.89L518.73 430.89L518.73 282.93L518.73 282.93L167.18 282.93z" /></clipPath><clipPath id="87"><path d="M167.18 430.89L518.73 430.89L518.73 430.89L518.73 282.93L518.73 282.93L167.18 282.93z" /></clipPath><clipPath id="88"><path d="M167.18 430.89L518.73 430.89L518.73 430.89L518.73 282.93L518.73 282.93L167.18 282.93z" /></clipPath><clipPath id="89"><path d="M167.18 430.89L518.73 430.89L518.73 430.89L518.73 282.93L518.73 282.93L167.18 282.93z" /></clipPath><clipPath id="90"><path d="M167.18 430.89L518.73 430.89L518.73 430.89L518.73 282.93L518.73 282.93L167.18 282.93z" /></clipPath><clipPath id="91"><path d="M167.18 430.89L518.73 430.89L518.73 430.89L518.73 282.93L518.73 282.93L167.18 282.93z" /></clipPath><clipPath id="92"><path d="M167.18 430.89L518.73 430.89L518.73 430.89L518.73 282.93L518.73 282.93L167.18 282.93z" /></clipPath><clipPath id="93"><path d="M167.18 430.89L518.73 430.89L518.73 430.89L518.73 282.93L518.73 282.93L167.18 282.93z" /></clipPath><clipPath id="94"><path d="M167.18 430.89L518.73 430.89L518.73 430.89L518.73 282.93L518.73 282.93L167.18 282.93z" /></clipPath><clipPath id="95"><path d="M167.18 430.89L518.73 430.89L518.73 430.89L518.73 282.93L518.73 282.93L167.18 282.93z" /></clipPath><clipPath id="96"><path d="M167.18 430.89L518.73 430.89L518.73 430.89L518.73 282.93L518.73 282.93L167.18 282.93z" /></clipPath><clipPath id="97"><path d="M167.18 430.89L518.73 430.89L518.73 430.89L518.73 282.93L518.73 282.93L167.18 282.93z" /></clipPath><clipPath id="98"><path d="M167.18 430.89L518.73 430.89L518.73 430.89L518.73 282.93L518.73 282.93L167.18 282.93z" /></clipPath><clipPath id="99"><path d="M167.18 430.89L518.73 430.89L518.73 430.89L518.73 282.93L518.73 282.93L167.18 282.93z" /></clipPath><clipPath id="100"><path d="M167.18 430.89L518.73 430.89L518.73 430.89L518.73 282.93L518.73 282.93L167.18 282.93z" /></clipPath><clipPath id="101"><path d="M167.18 430.89L518.73 430.89L518.73 430.89L518.73 282.93L518.73 282.93L167.18 282.93z" /></clipPath><clipPath id="102"><path d="M167.18 430.89L518.73 430.89L518.73 430.89L518.73 282.93L518.73 282.93L167.18 282.93z" /></clipPath><clipPath id="103"><path d="M167.18 430.89L518.73 430.89L518.73 430.89L518.73 282.93L518.73 282.93L167.18 282.93z" /></clipPath><clipPath id="104"><path d="M167.18 430.89L518.73 430.89L518.73 430.89L518.73 282.93L518.73 282.93L167.18 282.93z" /></clipPath><clipPath id="105"><path d="M167.18 430.89L518.73 430.89L518.73 430.89L518.73 282.93L518.73 282.93L167.18 282.93z" /></clipPath><clipPath id="106"><path d="M167.18 430.89L518.73 430.89L518.73 430.89L518.73 282.93L518.73 282.93L167.18 282.93z" /></clipPath><clipPath id="107"><path d="M167.18 430.89L518.73 430.89L518.73 430.89L518.73 282.93L518.73 282.93L167.18 282.93z" /></clipPath><clipPath id="108"><path d="M167.18 430.89L518.73 430.89L518.73 430.89L518.73 282.93L518.73 282.93L167.18 282.93z" /></clipPath><clipPath id="109"><path d="M167.18 430.89L518.73 430.89L518.73 430.89L518.73 282.93L518.73 282.93L167.18 282.93z" /></clipPath><clipPath id="110"><path d="M167.18 430.89L518.73 430.89L518.73 430.89L518.73 282.93L518.73 282.93L167.18 282.93z" /></clipPath><clipPath id="111"><path d="M167.18 430.89L518.73 430.89L518.73 430.89L518.73 282.93L518.73 282.93L167.18 282.93z" /></clipPath><clipPath id="112"><path d="M74.304 673.22L96.984 673.22L96.984 673.22L96.984 431.37L96.984 431.37L74.304 431.37z" /></clipPath><clipPath id="113"><path d="M74.304 673.22L96.984 673.22L96.984 673.22L96.984 431.37L96.984 431.37L74.304 431.37z" /></clipPath><clipPath id="114"><path d="M97.584 466.55L121.704 466.55L121.704 466.55L121.704 431.366L121.704 431.366L97.584 431.366z" /></clipPath><clipPath id="115"><path d="M97.584 466.55L121.704 466.55L121.704 466.55L121.704 431.366L121.704 431.366L97.584 431.366z" /></clipPath><clipPath id="116"><path d="M122.18 466.55L164.18 466.55L164.18 466.55L164.18 431.366L164.18 431.366L122.18 431.366z" /></clipPath><clipPath id="117"><path d="M122.18 466.55L164.18 466.55L164.18 466.55L164.18 431.366L164.18 431.366L122.18 431.366z" /></clipPath><clipPath id="118"><path d="M122.18 466.55L164.18 466.55L164.18 466.55L164.18 431.366L164.18 431.366L122.18 431.366z" /></clipPath><clipPath id="119"><path d="M164.66 466.55L220.964 466.55L220.964 466.55L220.964 431.366L220.964 431.366L164.66 431.366z" /></clipPath><clipPath id="120"><path d="M164.66 466.55L220.964 466.55L220.964 466.55L220.964 431.366L220.964 431.366L164.66 431.366z" /></clipPath><clipPath id="121"><path d="M164.66 466.55L220.964 466.55L220.964 466.55L220.964 431.366L220.964 431.366L164.66 431.366z" /></clipPath><clipPath id="122"><path d="M221.45 466.55L284.69 466.55L284.69 466.55L284.69 431.366L284.69 431.366L221.45 431.366z" /></clipPath><clipPath id="123"><path d="M221.45 466.55L284.69 466.55L284.69 466.55L284.69 431.366L284.69 431.366L221.45 431.366z" /></clipPath><clipPath id="124"><path d="M221.45 466.55L284.69 466.55L284.69 466.55L284.69 431.366L284.69 431.366L221.45 431.366z" /></clipPath><clipPath id="125"><path d="M285.29 466.55L362.714 466.55L362.714 466.55L362.714 431.366L362.714 431.366L285.29 431.366z" /></clipPath><clipPath id="126"><path d="M285.29 466.55L362.714 466.55L362.714 466.55L362.714 431.366L362.714 431.366L285.29 431.366z" /></clipPath><clipPath id="127"><path d="M285.29 466.55L362.714 466.55L362.714 466.55L362.714 431.366L362.714 431.366L285.29 431.366z" /></clipPath><clipPath id="128"><path d="M363.19 466.55L433.63 466.55L433.63 466.55L433.63 431.366L433.63 431.366L363.19 431.366z" /></clipPath><clipPath id="129"><path d="M363.19 466.55L433.63 466.55L433.63 466.55L433.63 431.366L433.63 431.366L363.19 431.366z" /></clipPath><clipPath id="130"><path d="M363.19 466.55L433.63 466.55L433.63 466.55L433.63 431.366L433.63 431.366L363.19 431.366z" /></clipPath><clipPath id="131"><path d="M434.11 466.55L518.734 466.55L518.734 466.55L518.734 431.366L518.734 431.366L434.11 431.366z" /></clipPath><clipPath id="132"><path d="M434.11 466.55L518.734 466.55L518.734 466.55L518.734 431.366L518.734 431.366L434.11 431.366z" /></clipPath><clipPath id="133"><path d="M434.11 466.55L518.734 466.55L518.734 466.55L518.734 431.366L518.734 431.366L434.11 431.366z" /></clipPath><clipPath id="134"><path d="M434.11 466.55L518.734 466.55L518.734 466.55L518.734 431.366L518.734 431.366L434.11 431.366z" /></clipPath><clipPath id="135"><path d="M434.11 466.55L518.734 466.55L518.734 466.55L518.734 431.366L518.734 431.366L434.11 431.366z" /></clipPath><clipPath id="136"><path d="M97.584 523.91L121.704 523.91L121.704 523.91L121.704 467.03L121.704 467.03L97.584 467.03z" /></clipPath><clipPath id="137"><path d="M97.584 523.91L121.704 523.91L121.704 523.91L121.704 467.03L121.704 467.03L97.584 467.03z" /></clipPath><clipPath id="138"><path d="M97.584 523.91L121.704 523.91L121.704 523.91L121.704 467.03L121.704 467.03L97.584 467.03z" /></clipPath><clipPath id="139"><path d="M97.584 523.91L121.704 523.91L121.704 523.91L121.704 467.03L121.704 467.03L97.584 467.03z" /></clipPath><clipPath id="140"><path d="M97.584 523.91L121.704 523.91L121.704 523.91L121.704 467.03L121.704 467.03L97.584 467.03z" /></clipPath><clipPath id="141"><path d="M97.584 523.91L121.704 523.91L121.704 523.91L121.704 467.03L121.704 467.03L97.584 467.03z" /></clipPath><clipPath id="142"><path d="M122.18 523.91L164.18 523.91L164.18 523.91L164.18 467.03L164.18 467.03L122.18 467.03z" /></clipPath><clipPath id="143"><path d="M122.18 523.91L164.18 523.91L164.18 523.91L164.18 467.03L164.18 467.03L122.18 467.03z" /></clipPath><clipPath id="144"><path d="M122.18 523.91L164.18 523.91L164.18 523.91L164.18 467.03L164.18 467.03L122.18 467.03z" /></clipPath><clipPath id="145"><path d="M164.66 523.91L220.964 523.91L220.964 523.91L220.964 467.03L220.964 467.03L164.66 467.03z" /></clipPath><clipPath id="146"><path d="M164.66 523.91L220.964 523.91L220.964 523.91L220.964 467.03L220.964 467.03L164.66 467.03z" /></clipPath><clipPath id="147"><path d="M164.66 523.91L220.964 523.91L220.964 523.91L220.964 467.03L220.964 467.03L164.66 467.03z" /></clipPath><clipPath id="148"><path d="M164.66 523.91L220.964 523.91L220.964 523.91L220.964 467.03L220.964 467.03L164.66 467.03z" /></clipPath><clipPath id="149"><path d="M164.66 523.91L220.964 523.91L220.964 523.91L220.964 467.03L220.964 467.03L164.66 467.03z" /></clipPath><clipPath id="150"><path d="M221.45 523.91L284.69 523.91L284.69 523.91L284.69 467.03L284.69 467.03L221.45 467.03z" /></clipPath><clipPath id="151"><path d="M221.45 523.91L284.69 523.91L284.69 523.91L284.69 467.03L284.69 467.03L221.45 467.03z" /></clipPath><clipPath id="152"><path d="M221.45 523.91L284.69 523.91L284.69 523.91L284.69 467.03L284.69 467.03L221.45 467.03z" /></clipPath><clipPath id="153"><path d="M221.45 523.91L284.69 523.91L284.69 523.91L284.69 467.03L284.69 467.03L221.45 467.03z" /></clipPath><clipPath id="154"><path d="M285.29 523.91L362.714 523.91L362.714 523.91L362.714 467.03L362.714 467.03L285.29 467.03z" /></clipPath><clipPath id="155"><path d="M285.29 523.91L362.714 523.91L362.714 523.91L362.714 467.03L362.714 467.03L285.29 467.03z" /></clipPath><clipPath id="156"><path d="M285.29 523.91L362.714 523.91L362.714 523.91L362.714 467.03L362.714 467.03L285.29 467.03z" /></clipPath><clipPath id="157"><path d="M285.29 523.91L362.714 523.91L362.714 523.91L362.714 467.03L362.714 467.03L285.29 467.03z" /></clipPath><clipPath id="158"><path d="M285.29 523.91L362.714 523.91L362.714 523.91L362.714 467.03L362.714 467.03L285.29 467.03z" /></clipPath><clipPath id="159"><path d="M285.29 523.91L362.714 523.91L362.714 523.91L362.714 467.03L362.714 467.03L285.29 467.03z" /></clipPath><clipPath id="160"><path d="M363.19 523.91L433.63 523.91L433.63 523.91L433.63 467.03L433.63 467.03L363.19 467.03z" /></clipPath><clipPath id="161"><path d="M363.19 523.91L433.63 523.91L433.63 523.91L433.63 467.03L433.63 467.03L363.19 467.03z" /></clipPath><clipPath id="162"><path d="M363.19 523.91L433.63 523.91L433.63 523.91L433.63 467.03L433.63 467.03L363.19 467.03z" /></clipPath><clipPath id="163"><path d="M363.19 523.91L433.63 523.91L433.63 523.91L433.63 467.03L433.63 467.03L363.19 467.03z" /></clipPath><clipPath id="164"><path d="M434.11 523.91L518.734 523.91L518.734 523.91L518.734 467.03L518.734 467.03L434.11 467.03z" /></clipPath><clipPath id="165"><path d="M434.11 523.91L518.734 523.91L518.734 523.91L518.734 467.03L518.734 467.03L434.11 467.03z" /></clipPath><clipPath id="166"><path d="M434.11 523.91L518.734 523.91L518.734 523.91L518.734 467.03L518.734 467.03L434.11 467.03z" /></clipPath><clipPath id="167"><path d="M434.11 523.91L518.734 523.91L518.734 523.91L518.734 467.03L518.734 467.03L434.11 467.03z" /></clipPath><clipPath id="168"><path d="M434.11 523.91L518.734 523.91L518.734 523.91L518.734 467.03L518.734 467.03L434.11 467.03z" /></clipPath><clipPath id="169"><path d="M434.11 523.91L518.734 523.91L518.734 523.91L518.734 467.03L518.734 467.03L434.11 467.03z" /></clipPath><clipPath id="170"><path d="M97.584 673.22L121.704 673.22L121.704 673.22L121.704 524.4L121.704 524.4L97.584 524.4z" /></clipPath><clipPath id="171"><path d="M97.584 673.22L121.704 673.22L121.704 673.22L121.704 524.4L121.704 524.4L97.584 524.4z" /></clipPath><clipPath id="172"><path d="M97.584 673.22L121.704 673.22L121.704 673.22L121.704 524.4L121.704 524.4L97.584 524.4z" /></clipPath><clipPath id="173"><path d="M97.584 673.22L121.704 673.22L121.704 673.22L121.704 524.4L121.704 524.4L97.584 524.4z" /></clipPath><clipPath id="174"><path d="M97.584 673.22L121.704 673.22L121.704 673.22L121.704 524.4L121.704 524.4L97.584 524.4z" /></clipPath><clipPath id="175"><path d="M97.584 673.22L121.704 673.22L121.704 673.22L121.704 524.4L121.704 524.4L97.584 524.4z" /></clipPath><clipPath id="176"><path d="M122.18 579.95L164.18 579.95L164.18 579.95L164.18 524.39L164.18 524.39L122.18 524.39z" /></clipPath><clipPath id="177"><path d="M122.18 579.95L164.18 579.95L164.18 579.95L164.18 524.39L164.18 524.39L122.18 524.39z" /></clipPath><clipPath id="178"><path d="M122.18 579.95L164.18 579.95L164.18 579.95L164.18 524.39L164.18 524.39L122.18 524.39z" /></clipPath><clipPath id="179"><path d="M164.66 579.95L220.964 579.95L220.964 579.95L220.964 524.39L220.964 524.39L164.66 524.39z" /></clipPath><clipPath id="180"><path d="M164.66 579.95L220.964 579.95L220.964 579.95L220.964 524.39L220.964 524.39L164.66 524.39z" /></clipPath><clipPath id="181"><path d="M164.66 579.95L220.964 579.95L220.964 579.95L220.964 524.39L220.964 524.39L164.66 524.39z" /></clipPath><clipPath id="182"><path d="M164.66 579.95L220.964 579.95L220.964 579.95L220.964 524.39L220.964 524.39L164.66 524.39z" /></clipPath><clipPath id="183"><path d="M221.45 579.95L284.69 579.95L284.69 579.95L284.69 524.39L284.69 524.39L221.45 524.39z" /></clipPath><clipPath id="184"><path d="M221.45 579.95L284.69 579.95L284.69 579.95L284.69 524.39L284.69 524.39L221.45 524.39z" /></clipPath><clipPath id="185"><path d="M221.45 579.95L284.69 579.95L284.69 579.95L284.69 524.39L284.69 524.39L221.45 524.39z" /></clipPath><clipPath id="186"><path d="M221.45 579.95L284.69 579.95L284.69 579.95L284.69 524.39L284.69 524.39L221.45 524.39z" /></clipPath><clipPath id="187"><path d="M285.29 579.95L362.714 579.95L362.714 579.95L362.714 524.39L362.714 524.39L285.29 524.39z" /></clipPath><clipPath id="188"><path d="M285.29 579.95L362.714 579.95L362.714 579.95L362.714 524.39L362.714 524.39L285.29 524.39z" /></clipPath><clipPath id="189"><path d="M285.29 579.95L362.714 579.95L362.714 579.95L362.714 524.39L362.714 524.39L285.29 524.39z" /></clipPath><clipPath id="190"><path d="M285.29 579.95L362.714 579.95L362.714 579.95L362.714 524.39L362.714 524.39L285.29 524.39z" /></clipPath><clipPath id="191"><path d="M285.29 579.95L362.714 579.95L362.714 579.95L362.714 524.39L362.714 524.39L285.29 524.39z" /></clipPath><clipPath id="192"><path d="M285.29 579.95L362.714 579.95L362.714 579.95L362.714 524.39L362.714 524.39L285.29 524.39z" /></clipPath><clipPath id="193"><path d="M363.19 579.95L433.63 579.95L433.63 579.95L433.63 524.39L433.63 524.39L363.19 524.39z" /></clipPath><clipPath id="194"><path d="M363.19 579.95L433.63 579.95L433.63 579.95L433.63 524.39L433.63 524.39L363.19 524.39z" /></clipPath><clipPath id="195"><path d="M363.19 579.95L433.63 579.95L433.63 579.95L433.63 524.39L433.63 524.39L363.19 524.39z" /></clipPath><clipPath id="196"><path d="M434.11 579.95L518.734 579.95L518.734 579.95L518.734 524.39L518.734 524.39L434.11 524.39z" /></clipPath><clipPath id="197"><path d="M434.11 579.95L518.734 579.95L518.734 579.95L518.734 524.39L518.734 524.39L434.11 524.39z" /></clipPath><clipPath id="198"><path d="M434.11 579.95L518.734 579.95L518.734 579.95L518.734 524.39L518.734 524.39L434.11 524.39z" /></clipPath><clipPath id="199"><path d="M434.11 579.95L518.734 579.95L518.734 579.95L518.734 524.39L518.734 524.39L434.11 524.39z" /></clipPath><clipPath id="200"><path d="M434.11 579.95L518.734 579.95L518.734 579.95L518.734 524.39L518.734 524.39L434.11 524.39z" /></clipPath><clipPath id="201"><path d="M434.11 579.95L518.734 579.95L518.734 579.95L518.734 524.39L518.734 524.39L434.11 524.39z" /></clipPath><clipPath id="202"><path d="M122.18 629.78L164.18 629.78L164.18 629.78L164.18 580.556L164.18 580.556L122.18 580.556z" /></clipPath><clipPath id="203"><path d="M122.18 629.78L164.18 629.78L164.18 629.78L164.18 580.556L164.18 580.556L122.18 580.556z" /></clipPath><clipPath id="204"><path d="M122.18 629.78L164.18 629.78L164.18 629.78L164.18 580.556L164.18 580.556L122.18 580.556z" /></clipPath><clipPath id="205"><path d="M164.66 629.78L220.964 629.78L220.964 629.78L220.964 580.556L220.964 580.556L164.66 580.556z" /></clipPath><clipPath id="206"><path d="M164.66 629.78L220.964 629.78L220.964 629.78L220.964 580.556L220.964 580.556L164.66 580.556z" /></clipPath><clipPath id="207"><path d="M164.66 629.78L220.964 629.78L220.964 629.78L220.964 580.556L220.964 580.556L164.66 580.556z" /></clipPath><clipPath id="208"><path d="M164.66 629.78L220.964 629.78L220.964 629.78L220.964 580.556L220.964 580.556L164.66 580.556z" /></clipPath><clipPath id="209"><path d="M221.45 629.78L284.69 629.78L284.69 629.78L284.69 580.556L284.69 580.556L221.45 580.556z" /></clipPath><clipPath id="210"><path d="M221.45 629.78L284.69 629.78L284.69 629.78L284.69 580.556L284.69 580.556L221.45 580.556z" /></clipPath><clipPath id="211"><path d="M221.45 629.78L284.69 629.78L284.69 629.78L284.69 580.556L284.69 580.556L221.45 580.556z" /></clipPath><clipPath id="212"><path d="M221.45 629.78L284.69 629.78L284.69 629.78L284.69 580.556L284.69 580.556L221.45 580.556z" /></clipPath><clipPath id="213"><path d="M221.45 629.78L284.69 629.78L284.69 629.78L284.69 580.556L284.69 580.556L221.45 580.556z" /></clipPath><clipPath id="214"><path d="M221.45 629.78L284.69 629.78L284.69 629.78L284.69 580.556L284.69 580.556L221.45 580.556z" /></clipPath><clipPath id="215"><path d="M285.29 629.78L362.714 629.78L362.714 629.78L362.714 580.556L362.714 580.556L285.29 580.556z" /></clipPath><clipPath id="216"><path d="M285.29 629.78L362.714 629.78L362.714 629.78L362.714 580.556L362.714 580.556L285.29 580.556z" /></clipPath><clipPath id="217"><path d="M285.29 629.78L362.714 629.78L362.714 629.78L362.714 580.556L362.714 580.556L285.29 580.556z" /></clipPath><clipPath id="218"><path d="M285.29 629.78L362.714 629.78L362.714 629.78L362.714 580.556L362.714 580.556L285.29 580.556z" /></clipPath><clipPath id="219"><path d="M285.29 629.78L362.714 629.78L362.714 629.78L362.714 580.556L362.714 580.556L285.29 580.556z" /></clipPath><clipPath id="220"><path d="M285.29 629.78L362.714 629.78L362.714 629.78L362.714 580.556L362.714 580.556L285.29 580.556z" /></clipPath><clipPath id="221"><path d="M363.19 629.78L433.63 629.78L433.63 629.78L433.63 580.556L433.63 580.556L363.19 580.556z" /></clipPath><clipPath id="222"><path d="M363.19 629.78L433.63 629.78L433.63 629.78L433.63 580.556L433.63 580.556L363.19 580.556z" /></clipPath><clipPath id="223"><path d="M363.19 629.78L433.63 629.78L433.63 629.78L433.63 580.556L433.63 580.556L363.19 580.556z" /></clipPath><clipPath id="224"><path d="M434.11 629.78L518.734 629.78L518.734 629.78L518.734 580.556L518.734 580.556L434.11 580.556z" /></clipPath><clipPath id="225"><path d="M434.11 629.78L518.734 629.78L518.734 629.78L518.734 580.556L518.734 580.556L434.11 580.556z" /></clipPath><clipPath id="226"><path d="M434.11 629.78L518.734 629.78L518.734 629.78L518.734 580.556L518.734 580.556L434.11 580.556z" /></clipPath><clipPath id="227"><path d="M434.11 629.78L518.734 629.78L518.734 629.78L518.734 580.556L518.734 580.556L434.11 580.556z" /></clipPath><clipPath id="228"><path d="M434.11 629.78L518.734 629.78L518.734 629.78L518.734 580.556L518.734 580.556L434.11 580.556z" /></clipPath><clipPath id="229"><path d="M434.11 629.78L518.734 629.78L518.734 629.78L518.734 580.556L518.734 580.556L434.11 580.556z" /></clipPath><clipPath id="230"><path d="M434.11 629.78L518.734 629.78L518.734 629.78L518.734 580.556L518.734 580.556L434.11 580.556z" /></clipPath><clipPath id="231"><path d="M122.18 651.26L164.18 651.26L164.18 651.26L164.18 630.38L164.18 630.38L122.18 630.38z" /></clipPath><clipPath id="232"><path d="M122.18 651.26L164.18 651.26L164.18 651.26L164.18 630.38L164.18 630.38L122.18 630.38z" /></clipPath><clipPath id="233"><path d="M164.66 651.26L220.964 651.26L220.964 651.26L220.964 630.38L220.964 630.38L164.66 630.38z" /></clipPath><clipPath id="234"><path d="M164.66 651.26L220.964 651.26L220.964 651.26L220.964 630.38L220.964 630.38L164.66 630.38z" /></clipPath><clipPath id="235"><path d="M221.45 651.26L284.69 651.26L284.69 651.26L284.69 630.38L284.69 630.38L221.45 630.38z" /></clipPath><clipPath id="236"><path d="M221.45 651.26L284.69 651.26L284.69 651.26L284.69 630.38L284.69 630.38L221.45 630.38z" /></clipPath><clipPath id="237"><path d="M285.29 651.26L362.714 651.26L362.714 651.26L362.714 630.38L362.714 630.38L285.29 630.38z" /></clipPath><clipPath id="238"><path d="M285.29 651.26L362.714 651.26L362.714 651.26L362.714 630.38L362.714 630.38L285.29 630.38z" /></clipPath><clipPath id="239"><path d="M363.19 651.26L433.63 651.26L433.63 651.26L433.63 630.38L433.63 630.38L363.19 630.38z" /></clipPath><clipPath id="240"><path d="M363.19 651.26L433.63 651.26L433.63 651.26L433.63 630.38L433.63 630.38L363.19 630.38z" /></clipPath><clipPath id="241"><path d="M434.11 651.26L518.734 651.26L518.734 651.26L518.734 630.38L518.734 630.38L434.11 630.38z" /></clipPath><clipPath id="242"><path d="M434.11 651.26L518.734 651.26L518.734 651.26L518.734 630.38L518.734 630.38L434.11 630.38z" /></clipPath><clipPath id="243"><path d="M122.18 673.22L164.18 673.22L164.18 673.22L164.18 651.74L164.18 651.74L122.18 651.74z" /></clipPath><clipPath id="244"><path d="M122.18 673.22L164.18 673.22L164.18 673.22L164.18 651.74L164.18 651.74L122.18 651.74z" /></clipPath><clipPath id="245"><path d="M164.66 673.22L220.964 673.22L220.964 673.22L220.964 651.74L220.964 651.74L164.66 651.74z" /></clipPath><clipPath id="246"><path d="M164.66 673.22L220.964 673.22L220.964 673.22L220.964 651.74L220.964 651.74L164.66 651.74z" /></clipPath><clipPath id="247"><path d="M221.45 673.22L284.69 673.22L284.69 673.22L284.69 651.74L284.69 651.74L221.45 651.74z" /></clipPath><clipPath id="248"><path d="M221.45 673.22L284.69 673.22L284.69 673.22L284.69 651.74L284.69 651.74L221.45 651.74z" /></clipPath><clipPath id="249"><path d="M285.29 673.22L362.714 673.22L362.714 673.22L362.714 651.74L362.714 651.74L285.29 651.74z" /></clipPath><clipPath id="250"><path d="M285.29 673.22L362.714 673.22L362.714 673.22L362.714 651.74L362.714 651.74L285.29 651.74z" /></clipPath><clipPath id="251"><path d="M363.19 673.22L433.63 673.22L433.63 673.22L433.63 651.74L433.63 651.74L363.19 651.74z" /></clipPath><clipPath id="252"><path d="M363.19 673.22L433.63 673.22L433.63 673.22L433.63 651.74L433.63 651.74L363.19 651.74z" /></clipPath><clipPath id="253"><path d="M434.11 673.22L518.734 673.22L518.734 673.22L518.734 651.74L518.734 651.74L434.11 651.74z" /></clipPath><clipPath id="254"><path d="M434.11 673.22L518.734 673.22L518.734 673.22L518.734 651.74L518.734 651.74L434.11 651.74z" /></clipPath><clipPath id="255"><path d="M74.304 749.776L96.984 749.776L96.984 749.776L96.984 673.696L96.984 673.696L74.304 673.696z" /></clipPath><clipPath id="256"><path d="M74.304 749.776L96.984 749.776L96.984 749.776L96.984 673.696L96.984 673.696L74.304 673.696z" /></clipPath><clipPath id="257"><path d="M74.304 749.776L96.984 749.776L96.984 749.776L96.984 673.696L96.984 673.696L74.304 673.696z" /></clipPath><clipPath id="258"><path d="M74.304 749.776L96.984 749.776L96.984 749.776L96.984 673.696L96.984 673.696L74.304 673.696z" /></clipPath><clipPath id="259"><path d="M74.304 749.776L96.984 749.776L96.984 749.776L96.984 673.696L96.984 673.696L74.304 673.696z" /></clipPath><clipPath id="260"><path d="M97.584 717.98L164.184 717.98L164.184 717.98L164.184 673.7L164.184 673.7L97.584 673.7z" /></clipPath><clipPath id="261"><path d="M97.584 717.98L164.184 717.98L164.184 717.98L164.184 673.7L164.184 673.7L97.584 673.7z" /></clipPath><clipPath id="262"><path d="M97.584 717.98L164.184 717.98L164.184 717.98L164.184 673.7L164.184 673.7L97.584 673.7z" /></clipPath><clipPath id="263"><path d="M164.66 717.98L284.68 717.98L284.68 717.98L284.68 673.7L284.68 673.7L164.66 673.7z" /></clipPath><clipPath id="264"><path d="M164.66 717.98L284.68 717.98L284.68 717.98L284.68 673.7L284.68 673.7L164.66 673.7z" /></clipPath><clipPath id="265"><path d="M164.66 717.98L284.68 717.98L284.68 717.98L284.68 673.7L284.68 673.7L164.66 673.7z" /></clipPath><clipPath id="266"><path d="M164.66 717.98L284.68 717.98L284.68 717.98L284.68 673.7L284.68 673.7L164.66 673.7z" /></clipPath><clipPath id="267"><path d="M285.29 717.98L362.714 717.98L362.714 717.98L362.714 673.7L362.714 673.7L285.29 673.7z" /></clipPath><clipPath id="268"><path d="M285.29 717.98L362.714 717.98L362.714 717.98L362.714 673.7L362.714 673.7L285.29 673.7z" /></clipPath><clipPath id="269"><path d="M285.29 717.98L362.714 717.98L362.714 717.98L362.714 673.7L362.714 673.7L285.29 673.7z" /></clipPath><clipPath id="270"><path d="M363.19 717.98L518.73 717.98L518.73 717.98L518.73 673.7L518.73 673.7L363.19 673.7z" /></clipPath><clipPath id="271"><path d="M363.19 717.98L518.73 717.98L518.73 717.98L518.73 673.7L518.73 673.7L363.19 673.7z" /></clipPath><clipPath id="272"><path d="M363.19 717.98L518.73 717.98L518.73 717.98L518.73 673.7L518.73 673.7L363.19 673.7z" /></clipPath><clipPath id="273"><path d="M97.584 749.776L164.184 749.776L164.184 749.776L164.184 718.576L164.184 718.576L97.584 718.576z" /></clipPath><clipPath id="274"><path d="M97.584 749.776L164.184 749.776L164.184 749.776L164.184 718.576L164.184 718.576L97.584 718.576z" /></clipPath><clipPath id="275"><path d="M97.584 749.776L164.184 749.776L164.184 749.776L164.184 718.576L164.184 718.576L97.584 718.576z" /></clipPath><clipPath id="276"><path d="M164.66 749.776L284.68 749.776L284.68 749.776L284.68 718.576L284.68 718.576L164.66 718.576z" /></clipPath><clipPath id="277"><path d="M164.66 749.776L284.68 749.776L284.68 749.776L284.68 718.576L284.68 718.576L164.66 718.576z" /></clipPath><clipPath id="278"><path d="M164.66 749.776L284.68 749.776L284.68 749.776L284.68 718.576L284.68 718.576L164.66 718.576z" /></clipPath><clipPath id="279"><path d="M285.29 749.776L362.714 749.776L362.714 749.776L362.714 718.576L362.714 718.576L285.29 718.576z" /></clipPath><clipPath id="280"><path d="M285.29 749.776L362.714 749.776L362.714 749.776L362.714 718.576L362.714 718.576L285.29 718.576z" /></clipPath><clipPath id="281"><path d="M285.29 749.776L362.714 749.776L362.714 749.776L362.714 718.576L362.714 718.576L285.29 718.576z" /></clipPath><clipPath id="282"><path d="M363.19 749.776L518.73 749.776L518.73 749.776L518.73 718.576L518.73 718.576L363.19 718.576z" /></clipPath><clipPath id="283"><path d="M363.19 749.776L518.73 749.776L518.73 749.776L518.73 718.576L518.73 718.576L363.19 718.576z" /></clipPath><clipPath id="284"><path d="M363.19 749.776L518.73 749.776L518.73 749.776L518.73 718.576L518.73 718.576L363.19 718.576z" /></clipPath></defs><g transform="matrix(1.333333 0 0 1.333333 0 0)"><g><g clip-path="url(#1)"><g clip-path="url(#2)"></g><g clip-path="url(#3)"></g><g clip-path="url(#4)"><g clip-path="url(#5)"></g><g clip-path="url(#6)"></g></g><g clip-path="url(#7)"><g clip-path="url(#8)"></g><g clip-path="url(#9)"></g></g><g clip-path="url(#10)"><g clip-path="url(#11)"></g><g clip-path="url(#12)"></g></g><path transform="matrix(1 0 0 -1 0 841)" d="M73.824 756.34L74.304 756.34L74.304 756.34L74.304 756.82L74.304 756.82L73.824 756.82z" stroke="none" fill="#000000" fill-rule="evenodd" /><path transform="matrix(1 0 0 -1 0 841)" d="M73.824 756.34L74.304 756.34L74.304 756.34L74.304 756.82L74.304 756.82L73.824 756.82z" stroke="none" fill="#000000" fill-rule="evenodd" /><path transform="matrix(1 0 0 -1 0 841)" d="M74.304 756.34L166.704 756.34L166.704 756.34L166.704 756.82L166.704 756.82L74.304 756.82z" stroke="none" fill="#000000" fill-rule="evenodd" /><path transform="matrix(1 0 0 -1 0 841)" d="M166.7 756.34L167.18 756.34L167.18 756.34L167.18 756.82L167.18 756.82L166.7 756.82z" stroke="none" fill="#000000" fill-rule="evenodd" /><path transform="matrix(1 0 0 -1 0 841)" d="M167.18 756.34L518.73 756.34L518.73 756.34L518.73 756.82L518.73 756.82L167.18 756.82z" stroke="none" fill="#000000" fill-rule="evenodd" /><path transform="matrix(1 0 0 -1 0 841)" d="M518.74 756.34L519.22 756.34L519.22 756.34L519.22 756.82L519.22 756.82L518.74 756.82z" stroke="none" fill="#000000" fill-rule="evenodd" /><path transform="matrix(1 0 0 -1 0 841)" d="M518.74 756.34L519.22 756.34L519.22 756.34L519.22 756.82L519.22 756.82L518.74 756.82z" stroke="none" fill="#000000" fill-rule="evenodd" /><path transform="matrix(1 0 0 -1 0 841)" d="M73.824 721.42L74.304 721.42L74.304 721.42L74.304 756.34L74.304 756.34L73.824 756.34z" stroke="none" fill="#000000" fill-rule="evenodd" /><path transform="matrix(1 0 0 -1 0 841)" d="M166.7 721.42L167.18 721.42L167.18 721.42L167.18 756.34L167.18 756.34L166.7 756.34z" stroke="none" fill="#000000" fill-rule="evenodd" /><path transform="matrix(1 0 0 -1 0 841)" d="M518.74 721.42L519.22 721.42L519.22 721.42L519.22 756.34L519.22 756.34L518.74 756.34z" stroke="none" fill="#000000" fill-rule="evenodd" /><g clip-path="url(#13)"><g clip-path="url(#14)"></g><g clip-path="url(#15)"></g></g><g clip-path="url(#16)"><g clip-path="url(#17)"></g><g clip-path="url(#18)"></g><g clip-path="url(#19)"></g><g clip-path="url(#20)"></g></g><path transform="matrix(1 0 0 -1 0 841)" d="M73.824 720.94L74.304 720.94L74.304 720.94L74.304 721.42L74.304 721.42L73.824 721.42z" stroke="none" fill="#000000" fill-rule="evenodd" /><path transform="matrix(1 0 0 -1 0 841)" d="M74.304 720.94L166.704 720.94L166.704 720.94L166.704 721.42L166.704 721.42L74.304 721.42z" stroke="none" fill="#000000" fill-rule="evenodd" /><path transform="matrix(1 0 0 -1 0 841)" d="M166.7 720.94L167.18 720.94L167.18 720.94L167.18 721.42L167.18 721.42L166.7 721.42z" stroke="none" fill="#000000" fill-rule="evenodd" /><path transform="matrix(1 0 0 -1 0 841)" d="M167.18 720.94L518.73 720.94L518.73 720.94L518.73 721.42L518.73 721.42L167.18 721.42z" stroke="none" fill="#000000" fill-rule="evenodd" /><path transform="matrix(1 0 0 -1 0 841)" d="M518.74 720.94L519.22 720.94L519.22 720.94L519.22 721.42L519.22 721.42L518.74 721.42z" stroke="none" fill="#000000" fill-rule="evenodd" /><path transform="matrix(1 0 0 -1 0 841)" d="M73.824 684.7L74.304 684.7L74.304 684.7L74.304 720.94L74.304 720.94L73.824 720.94z" stroke="none" fill="#000000" fill-rule="evenodd" /><path transform="matrix(1 0 0 -1 0 841)" d="M166.7 684.7L167.18 684.7L167.18 684.7L167.18 720.94L167.18 720.94L166.7 720.94z" stroke="none" fill="#000000" fill-rule="evenodd" /><path transform="matrix(1 0 0 -1 0 841)" d="M518.74 684.7L519.22 684.7L519.22 684.7L519.22 720.94L519.22 720.94L518.74 720.94z" stroke="none" fill="#000000" fill-rule="evenodd" /><g clip-path="url(#21)"><g clip-path="url(#22)"></g><g clip-path="url(#23)"></g><g clip-path="url(#24)"></g><g clip-path="url(#25)"></g></g><g clip-path="url(#26)"><g clip-path="url(#27)"></g><g clip-path="url(#28)"></g><g clip-path="url(#29)"></g></g><path transform="matrix(1 0 0 -1 0 841)" d="M73.824 684.22L74.304 684.22L74.304 684.22L74.304 684.7L74.304 684.7L73.824 684.7z" stroke="none" fill="#000000" fill-rule="evenodd" /><path transform="matrix(1 0 0 -1 0 841)" d="M74.304 684.22L166.704 684.22L166.704 684.22L166.704 684.7L166.704 684.7L74.304 684.7z" stroke="none" fill="#000000" fill-rule="evenodd" /><path transform="matrix(1 0 0 -1 0 841)" d="M166.7 684.22L167.18 684.22L167.18 684.22L167.18 684.7L167.18 684.7L166.7 684.7z" stroke="none" fill="#000000" fill-rule="evenodd" /><path transform="matrix(1 0 0 -1 0 841)" d="M167.18 684.22L518.73 684.22L518.73 684.22L518.73 684.7L518.73 684.7L167.18 684.7z" stroke="none" fill="#000000" fill-rule="evenodd" /><path transform="matrix(1 0 0 -1 0 841)" d="M518.74 684.22L519.22 684.22L519.22 684.22L519.22 684.7L519.22 684.7L518.74 684.7z" stroke="none" fill="#000000" fill-rule="evenodd" /><path transform="matrix(1 0 0 -1 0 841)" d="M73.824 643.66L74.304 643.66L74.304 643.66L74.304 684.22L74.304 684.22L73.824 684.22z" stroke="none" fill="#000000" fill-rule="evenodd" /><path transform="matrix(1 0 0 -1 0 841)" d="M166.7 643.66L167.18 643.66L167.18 643.66L167.18 684.22L167.18 684.22L166.7 684.22z" stroke="none" fill="#000000" fill-rule="evenodd" /><path transform="matrix(1 0 0 -1 0 841)" d="M518.74 643.66L519.22 643.66L519.22 643.66L519.22 684.22L519.22 684.22L518.74 684.22z" stroke="none" fill="#000000" fill-rule="evenodd" /><g clip-path="url(#30)"><g clip-path="url(#31)"></g><g clip-path="url(#32)"></g></g><g clip-path="url(#33)"><g clip-path="url(#34)"></g><g clip-path="url(#35)"></g><g clip-path="url(#36)"></g><g clip-path="url(#37)"></g><g clip-path="url(#38)"></g><g clip-path="url(#39)"></g><g clip-path="url(#40)"></g><g clip-path="url(#41)"></g><g clip-path="url(#42)"></g><g clip-path="url(#43)"></g><g clip-path="url(#44)"></g><g clip-path="url(#45)"></g></g><path transform="matrix(1 0 0 -1 0 841)" d="M73.824 643.18L74.304 643.18L74.304 643.18L74.304 643.66L74.304 643.66L73.824 643.66z" stroke="none" fill="#000000" fill-rule="evenodd" /><path transform="matrix(1 0 0 -1 0 841)" d="M74.304 643.18L166.704 643.18L166.704 643.18L166.704 643.66L166.704 643.66L74.304 643.66z" stroke="none" fill="#000000" fill-rule="evenodd" /><path transform="matrix(1 0 0 -1 0 841)" d="M166.7 643.18L167.18 643.18L167.18 643.18L167.18 643.66L167.18 643.66L166.7 643.66z" stroke="none" fill="#000000" fill-rule="evenodd" /><path transform="matrix(1 0 0 -1 0 841)" d="M167.18 643.18L518.73 643.18L518.73 643.18L518.73 643.66L518.73 643.66L167.18 643.66z" stroke="none" fill="#000000" fill-rule="evenodd" /><path transform="matrix(1 0 0 -1 0 841)" d="M518.74 643.18L519.22 643.18L519.22 643.18L519.22 643.66L519.22 643.66L518.74 643.66z" stroke="none" fill="#000000" fill-rule="evenodd" /><path transform="matrix(1 0 0 -1 0 841)" d="M73.824 601.42L74.304 601.42L74.304 601.42L74.304 643.18L74.304 643.18L73.824 643.18z" stroke="none" fill="#000000" fill-rule="evenodd" /><path transform="matrix(1 0 0 -1 0 841)" d="M166.7 601.42L167.18 601.42L167.18 601.42L167.18 643.18L167.18 643.18L166.7 643.18z" stroke="none" fill="#000000" fill-rule="evenodd" /><path transform="matrix(1 0 0 -1 0 841)" d="M518.74 601.42L519.22 601.42L519.22 601.42L519.22 643.18L519.22 643.18L518.74 643.18z" stroke="none" fill="#000000" fill-rule="evenodd" /><g clip-path="url(#46)"><g clip-path="url(#47)"></g><g clip-path="url(#48)"></g></g><g clip-path="url(#49)"><g clip-path="url(#50)"></g><g clip-path="url(#51)"></g><g clip-path="url(#52)"></g><g clip-path="url(#53)"></g><g clip-path="url(#54)"></g><g clip-path="url(#55)"></g><g clip-path="url(#56)"></g><g clip-path="url(#57)"></g><g clip-path="url(#58)"></g><g clip-path="url(#59)"></g><g clip-path="url(#60)"></g><g clip-path="url(#61)"></g></g><path transform="matrix(1 0 0 -1 0 841)" d="M73.824 600.94L74.304 600.94L74.304 600.94L74.304 601.42L74.304 601.42L73.824 601.42z" stroke="none" fill="#000000" fill-rule="evenodd" /><path transform="matrix(1 0 0 -1 0 841)" d="M74.304 600.94L166.704 600.94L166.704 600.94L166.704 601.42L166.704 601.42L74.304 601.42z" stroke="none" fill="#000000" fill-rule="evenodd" /><path transform="matrix(1 0 0 -1 0 841)" d="M166.7 600.94L167.18 600.94L167.18 600.94L167.18 601.42L167.18 601.42L166.7 601.42z" stroke="none" fill="#000000" fill-rule="evenodd" /><path transform="matrix(1 0 0 -1 0 841)" d="M167.18 600.94L518.73 600.94L518.73 600.94L518.73 601.42L518.73 601.42L167.18 601.42z" stroke="none" fill="#000000" fill-rule="evenodd" /><path transform="matrix(1 0 0 -1 0 841)" d="M518.74 600.94L519.22 600.94L519.22 600.94L519.22 601.42L519.22 601.42L518.74 601.42z" stroke="none" fill="#000000" fill-rule="evenodd" /><path transform="matrix(1 0 0 -1 0 841)" d="M73.824 558.55L74.304 558.55L74.304 558.55L74.304 600.934L74.304 600.934L73.824 600.934z" stroke="none" fill="#000000" fill-rule="evenodd" /><path transform="matrix(1 0 0 -1 0 841)" d="M166.7 558.55L167.18 558.55L167.18 558.55L167.18 600.934L167.18 600.934L166.7 600.934z" stroke="none" fill="#000000" fill-rule="evenodd" /><path transform="matrix(1 0 0 -1 0 841)" d="M518.74 558.55L519.22 558.55L519.22 558.55L519.22 600.934L519.22 600.934L518.74 600.934z" stroke="none" fill="#000000" fill-rule="evenodd" /><g clip-path="url(#62)"><g clip-path="url(#63)"></g><g clip-path="url(#64)"></g><g clip-path="url(#65)"></g><g clip-path="url(#66)"></g><g clip-path="url(#67)"></g></g><g clip-path="url(#68)"><g clip-path="url(#69)"></g><g clip-path="url(#70)"></g><g clip-path="url(#71)"></g><g clip-path="url(#72)"></g><g clip-path="url(#73)"></g><g clip-path="url(#74)"></g><g clip-path="url(#75)"></g><g clip-path="url(#76)"></g><g clip-path="url(#77)"></g><g clip-path="url(#78)"></g><g clip-path="url(#79)"></g><g clip-path="url(#80)"></g><g clip-path="url(#81)"></g><g clip-path="url(#82)"></g><g clip-path="url(#83)"></g><g clip-path="url(#84)"></g><g clip-path="url(#85)"></g><g clip-path="url(#86)"></g><g clip-path="url(#87)"></g><g clip-path="url(#88)"></g><g clip-path="url(#89)"></g><g clip-path="url(#90)"></g><g clip-path="url(#91)"></g><g clip-path="url(#92)"></g><g clip-path="url(#93)"></g><g clip-path="url(#94)"></g><g clip-path="url(#95)"></g><g clip-path="url(#96)"></g><g clip-path="url(#97)"></g><g clip-path="url(#98)"></g><g clip-path="url(#99)"></g><g clip-path="url(#100)"></g><g clip-path="url(#101)"></g><g clip-path="url(#102)"></g><g clip-path="url(#103)"></g><g clip-path="url(#104)"></g><g clip-path="url(#105)"></g><g clip-path="url(#106)"></g><g clip-path="url(#107)"></g><g clip-path="url(#108)"></g><g clip-path="url(#109)"></g><g clip-path="url(#110)"></g><g clip-path="url(#111)"></g></g><path transform="matrix(1 0 0 -1 0 841)" d="M73.824 558.07L74.304 558.07L74.304 558.07L74.304 558.55L74.304 558.55L73.824 558.55z" stroke="none" fill="#000000" fill-rule="evenodd" /><path transform="matrix(1 0 0 -1 0 841)" d="M74.304 558.07L166.704 558.07L166.704 558.07L166.704 558.55L166.704 558.55L74.304 558.55z" stroke="none" fill="#000000" fill-rule="evenodd" /><path transform="matrix(1 0 0 -1 0 841)" d="M166.7 558.07L167.18 558.07L167.18 558.07L167.18 558.55L167.18 558.55L166.7 558.55z" stroke="none" fill="#000000" fill-rule="evenodd" /><path transform="matrix(1 0 0 -1 0 841)" d="M167.18 558.07L518.73 558.07L518.73 558.07L518.73 558.55L518.73 558.55L167.18 558.55z" stroke="none" fill="#000000" fill-rule="evenodd" /><path transform="matrix(1 0 0 -1 0 841)" d="M518.74 558.07L519.22 558.07L519.22 558.07L519.22 558.55L519.22 558.55L518.74 558.55z" stroke="none" fill="#000000" fill-rule="evenodd" /><path transform="matrix(1 0 0 -1 0 841)" d="M73.824 410.11L74.304 410.11L74.304 410.11L74.304 558.07L74.304 558.07L73.824 558.07z" stroke="none" fill="#000000" fill-rule="evenodd" /><path transform="matrix(1 0 0 -1 0 841)" d="M166.7 410.11L167.18 410.11L167.18 410.11L167.18 558.07L167.18 558.07L166.7 558.07z" stroke="none" fill="#000000" fill-rule="evenodd" /><path transform="matrix(1 0 0 -1 0 841)" d="M518.74 410.11L519.22 410.11L519.22 410.11L519.22 558.07L519.22 558.07L518.74 558.07z" stroke="none" fill="#000000" fill-rule="evenodd" /><g clip-path="url(#112)"><g clip-path="url(#113)"><path transform="matrix(1 0 0 -1 0 841)" d="" stroke="none" fill="#000000" fill-rule="evenodd" /></g></g><g clip-path="url(#114)"><g clip-path="url(#115)"></g></g><g clip-path="url(#116)"><g clip-path="url(#117)"></g><g clip-path="url(#118)"></g></g><g clip-path="url(#119)"><g clip-path="url(#120)"></g><g clip-path="url(#121)"></g></g><g clip-path="url(#122)"><g clip-path="url(#123)"></g><g clip-path="url(#124)"></g></g><g clip-path="url(#125)"><g clip-path="url(#126)"></g><g clip-path="url(#127)"></g></g><g clip-path="url(#128)"><g clip-path="url(#129)"></g><g clip-path="url(#130)"></g></g><g clip-path="url(#131)"><g clip-path="url(#132)"></g><g clip-path="url(#133)"></g><g clip-path="url(#134)"></g><g clip-path="url(#135)"></g></g><path transform="matrix(1 0 0 -1 0 841)" d="M73.824 409.63L74.304 409.63L74.304 409.63L74.304 410.11L74.304 410.11L73.824 410.11z" stroke="none" fill="#000000" fill-rule="evenodd" /><path transform="matrix(1 0 0 -1 0 841)" d="M74.304 409.63L97.104 409.63L97.104 409.63L97.104 410.11L97.104 410.11L74.304 410.11z" stroke="none" fill="#000000" fill-rule="evenodd" /><path transform="matrix(1 0 0 -1 0 841)" d="M97.104 409.63L97.584 409.63L97.584 409.63L97.584 410.11L97.584 410.11L97.104 410.11z" stroke="none" fill="#000000" fill-rule="evenodd" /><path transform="matrix(1 0 0 -1 0 841)" d="M97.584 409.63L121.824 409.63L121.824 409.63L121.824 410.11L121.824 410.11L97.584 410.11z" stroke="none" fill="#000000" fill-rule="evenodd" /><path transform="matrix(1 0 0 -1 0 841)" d="M121.82 409.63L122.3 409.63L122.3 409.63L122.3 410.11L122.3 410.11L121.82 410.11z" stroke="none" fill="#000000" fill-rule="evenodd" /><path transform="matrix(1 0 0 -1 0 841)" d="M122.3 409.63L164.3 409.63L164.3 409.63L164.3 410.11L164.3 410.11L122.3 410.11z" stroke="none" fill="#000000" fill-rule="evenodd" /><path transform="matrix(1 0 0 -1 0 841)" d="M164.3 409.63L164.78 409.63L164.78 409.63L164.78 410.11L164.78 410.11L164.3 410.11z" stroke="none" fill="#000000" fill-rule="evenodd" /><path transform="matrix(1 0 0 -1 0 841)" d="M164.78 409.63L166.7 409.63L166.7 409.63L166.7 410.11L166.7 410.11L164.78 410.11z" stroke="none" fill="#000000" fill-rule="evenodd" /><path transform="matrix(1 0 0 -1 0 841)" d="M166.7 409.63L167.18 409.63L167.18 409.63L167.18 410.11L167.18 410.11L166.7 410.11z" stroke="none" fill="#000000" fill-rule="evenodd" /><path transform="matrix(1 0 0 -1 0 841)" d="M167.18 409.63L220.964 409.63L220.964 409.63L220.964 410.11L220.964 410.11L167.18 410.11z" stroke="none" fill="#000000" fill-rule="evenodd" /><path transform="matrix(1 0 0 -1 0 841)" d="M220.97 409.63L221.45 409.63L221.45 409.63L221.45 410.11L221.45 410.11L220.97 410.11z" stroke="none" fill="#000000" fill-rule="evenodd" /><path transform="matrix(1 0 0 -1 0 841)" d="M221.45 409.63L284.81 409.63L284.81 409.63L284.81 410.11L284.81 410.11L221.45 410.11z" stroke="none" fill="#000000" fill-rule="evenodd" /><path transform="matrix(1 0 0 -1 0 841)" d="M284.81 409.63L285.29 409.63L285.29 409.63L285.29 410.11L285.29 410.11L284.81 410.11z" stroke="none" fill="#000000" fill-rule="evenodd" /><path transform="matrix(1 0 0 -1 0 841)" d="M285.29 409.63L362.834 409.63L362.834 409.63L362.834 410.11L362.834 410.11L285.29 410.11z" stroke="none" fill="#000000" fill-rule="evenodd" /><path transform="matrix(1 0 0 -1 0 841)" d="M362.83 409.63L363.31 409.63L363.31 409.63L363.31 410.11L363.31 410.11L362.83 410.11z" stroke="none" fill="#000000" fill-rule="evenodd" /><path transform="matrix(1 0 0 -1 0 841)" d="M363.31 409.63L433.63 409.63L433.63 409.63L433.63 410.11L433.63 410.11L363.31 410.11z" stroke="none" fill="#000000" fill-rule="evenodd" /><path transform="matrix(1 0 0 -1 0 841)" d="M433.63 409.63L434.11 409.63L434.11 409.63L434.11 410.11L434.11 410.11L433.63 410.11z" stroke="none" fill="#000000" fill-rule="evenodd" /><path transform="matrix(1 0 0 -1 0 841)" d="M434.11 409.63L518.734 409.63L518.734 409.63L518.734 410.11L518.734 410.11L434.11 410.11z" stroke="none" fill="#000000" fill-rule="evenodd" /><path transform="matrix(1 0 0 -1 0 841)" d="M518.74 409.63L519.22 409.63L519.22 409.63L519.22 410.11L519.22 410.11L518.74 410.11z" stroke="none" fill="#000000" fill-rule="evenodd" /><path transform="matrix(1 0 0 -1 0 841)" d="M73.824 374.45L74.304 374.45L74.304 374.45L74.304 409.634L74.304 409.634L73.824 409.634z" stroke="none" fill="#000000" fill-rule="evenodd" /><path transform="matrix(1 0 0 -1 0 841)" d="M97.104 374.45L97.584 374.45L97.584 374.45L97.584 409.634L97.584 409.634L97.104 409.634z" stroke="none" fill="#000000" fill-rule="evenodd" /><path transform="matrix(1 0 0 -1 0 841)" d="M121.82 374.45L122.3 374.45L122.3 374.45L122.3 409.634L122.3 409.634L121.82 409.634z" stroke="none" fill="#000000" fill-rule="evenodd" /><path transform="matrix(1 0 0 -1 0 841)" d="M164.3 374.45L164.78 374.45L164.78 374.45L164.78 409.634L164.78 409.634L164.3 409.634z" stroke="none" fill="#000000" fill-rule="evenodd" /><path transform="matrix(1 0 0 -1 0 841)" d="M220.97 374.45L221.45 374.45L221.45 374.45L221.45 409.634L221.45 409.634L220.97 409.634z" stroke="none" fill="#000000" fill-rule="evenodd" /><path transform="matrix(1 0 0 -1 0 841)" d="M284.81 374.45L285.29 374.45L285.29 374.45L285.29 409.634L285.29 409.634L284.81 409.634z" stroke="none" fill="#000000" fill-rule="evenodd" /><path transform="matrix(1 0 0 -1 0 841)" d="M362.83 374.45L363.31 374.45L363.31 374.45L363.31 409.634L363.31 409.634L362.83 409.634z" stroke="none" fill="#000000" fill-rule="evenodd" /><path transform="matrix(1 0 0 -1 0 841)" d="M433.63 374.45L434.11 374.45L434.11 374.45L434.11 409.634L434.11 409.634L433.63 409.634z" stroke="none" fill="#000000" fill-rule="evenodd" /><path transform="matrix(1 0 0 -1 0 841)" d="M518.74 374.45L519.22 374.45L519.22 374.45L519.22 409.634L519.22 409.634L518.74 409.634z" stroke="none" fill="#000000" fill-rule="evenodd" /><g clip-path="url(#136)"><g clip-path="url(#137)"></g><g clip-path="url(#138)"></g><g clip-path="url(#139)"></g><g clip-path="url(#140)"></g><g clip-path="url(#141)"></g></g><g clip-path="url(#142)"><g clip-path="url(#143)"></g><g clip-path="url(#144)"></g></g><g clip-path="url(#145)"><g clip-path="url(#146)"></g><g clip-path="url(#147)"></g><g clip-path="url(#148)"></g><g clip-path="url(#149)"></g></g><g clip-path="url(#150)"><g clip-path="url(#151)"></g><g clip-path="url(#152)"></g><g clip-path="url(#153)"></g></g><g clip-path="url(#154)"><g clip-path="url(#155)"></g><g clip-path="url(#156)"></g><g clip-path="url(#157)"></g><g clip-path="url(#158)"></g><g clip-path="url(#159)"></g></g><g clip-path="url(#160)"><g clip-path="url(#161)"></g><g clip-path="url(#162)"></g><g clip-path="url(#163)"></g></g><g clip-path="url(#164)"><g clip-path="url(#165)"></g><g clip-path="url(#166)"></g><g clip-path="url(#167)"></g><g clip-path="url(#168)"></g><g clip-path="url(#169)"></g></g><path transform="matrix(1 0 0 -1 0 841)" d="M73.824 373.97L74.304 373.97L74.304 373.97L74.304 374.45L74.304 374.45L73.824 374.45z" stroke="none" fill="#000000" fill-rule="evenodd" /><path transform="matrix(1 0 0 -1 0 841)" d="M97.104 373.97L97.584 373.97L97.584 373.97L97.584 374.45L97.584 374.45L97.104 374.45z" stroke="none" fill="#000000" fill-rule="evenodd" /><path transform="matrix(1 0 0 -1 0 841)" d="M97.584 373.97L121.824 373.97L121.824 373.97L121.824 374.45L121.824 374.45L97.584 374.45z" stroke="none" fill="#000000" fill-rule="evenodd" /><path transform="matrix(1 0 0 -1 0 841)" d="M121.82 373.97L122.3 373.97L122.3 373.97L122.3 374.45L122.3 374.45L121.82 374.45z" stroke="none" fill="#000000" fill-rule="evenodd" /><path transform="matrix(1 0 0 -1 0 841)" d="M122.3 373.97L164.3 373.97L164.3 373.97L164.3 374.45L164.3 374.45L122.3 374.45z" stroke="none" fill="#000000" fill-rule="evenodd" /><path transform="matrix(1 0 0 -1 0 841)" d="M164.3 373.97L164.78 373.97L164.78 373.97L164.78 374.45L164.78 374.45L164.3 374.45z" stroke="none" fill="#000000" fill-rule="evenodd" /><path transform="matrix(1 0 0 -1 0 841)" d="M164.78 373.97L220.964 373.97L220.964 373.97L220.964 374.45L220.964 374.45L164.78 374.45z" stroke="none" fill="#000000" fill-rule="evenodd" /><path transform="matrix(1 0 0 -1 0 841)" d="M220.97 373.97L221.45 373.97L221.45 373.97L221.45 374.45L221.45 374.45L220.97 374.45z" stroke="none" fill="#000000" fill-rule="evenodd" /><path transform="matrix(1 0 0 -1 0 841)" d="M221.45 373.97L284.81 373.97L284.81 373.97L284.81 374.45L284.81 374.45L221.45 374.45z" stroke="none" fill="#000000" fill-rule="evenodd" /><path transform="matrix(1 0 0 -1 0 841)" d="M284.81 373.97L285.29 373.97L285.29 373.97L285.29 374.45L285.29 374.45L284.81 374.45z" stroke="none" fill="#000000" fill-rule="evenodd" /><path transform="matrix(1 0 0 -1 0 841)" d="M285.29 373.97L362.834 373.97L362.834 373.97L362.834 374.45L362.834 374.45L285.29 374.45z" stroke="none" fill="#000000" fill-rule="evenodd" /><path transform="matrix(1 0 0 -1 0 841)" d="M362.83 373.97L363.31 373.97L363.31 373.97L363.31 374.45L363.31 374.45L362.83 374.45z" stroke="none" fill="#000000" fill-rule="evenodd" /><path transform="matrix(1 0 0 -1 0 841)" d="M363.31 373.97L433.63 373.97L433.63 373.97L433.63 374.45L433.63 374.45L363.31 374.45z" stroke="none" fill="#000000" fill-rule="evenodd" /><path transform="matrix(1 0 0 -1 0 841)" d="M433.63 373.97L434.11 373.97L434.11 373.97L434.11 374.45L434.11 374.45L433.63 374.45z" stroke="none" fill="#000000" fill-rule="evenodd" /><path transform="matrix(1 0 0 -1 0 841)" d="M434.11 373.97L518.734 373.97L518.734 373.97L518.734 374.45L518.734 374.45L434.11 374.45z" stroke="none" fill="#000000" fill-rule="evenodd" /><path transform="matrix(1 0 0 -1 0 841)" d="M518.74 373.97L519.22 373.97L519.22 373.97L519.22 374.45L519.22 374.45L518.74 374.45z" stroke="none" fill="#000000" fill-rule="evenodd" /><path transform="matrix(1 0 0 -1 0 841)" d="M73.824 317.09L74.304 317.09L74.304 317.09L74.304 373.97L74.304 373.97L73.824 373.97z" stroke="none" fill="#000000" fill-rule="evenodd" /><path transform="matrix(1 0 0 -1 0 841)" d="M97.104 317.09L97.584 317.09L97.584 317.09L97.584 373.97L97.584 373.97L97.104 373.97z" stroke="none" fill="#000000" fill-rule="evenodd" /><path transform="matrix(1 0 0 -1 0 841)" d="M121.82 317.09L122.3 317.09L122.3 317.09L122.3 373.97L122.3 373.97L121.82 373.97z" stroke="none" fill="#000000" fill-rule="evenodd" /><path transform="matrix(1 0 0 -1 0 841)" d="M164.3 317.09L164.78 317.09L164.78 317.09L164.78 373.97L164.78 373.97L164.3 373.97z" stroke="none" fill="#000000" fill-rule="evenodd" /><path transform="matrix(1 0 0 -1 0 841)" d="M220.97 317.09L221.45 317.09L221.45 317.09L221.45 373.97L221.45 373.97L220.97 373.97z" stroke="none" fill="#000000" fill-rule="evenodd" /><path transform="matrix(1 0 0 -1 0 841)" d="M284.81 317.09L285.29 317.09L285.29 317.09L285.29 373.97L285.29 373.97L284.81 373.97z" stroke="none" fill="#000000" fill-rule="evenodd" /><path transform="matrix(1 0 0 -1 0 841)" d="M362.83 317.09L363.31 317.09L363.31 317.09L363.31 373.97L363.31 373.97L362.83 373.97z" stroke="none" fill="#000000" fill-rule="evenodd" /><path transform="matrix(1 0 0 -1 0 841)" d="M433.63 317.09L434.11 317.09L434.11 317.09L434.11 373.97L434.11 373.97L433.63 373.97z" stroke="none" fill="#000000" fill-rule="evenodd" /><path transform="matrix(1 0 0 -1 0 841)" d="M518.74 317.09L519.22 317.09L519.22 317.09L519.22 373.97L519.22 373.97L518.74 373.97z" stroke="none" fill="#000000" fill-rule="evenodd" /><g clip-path="url(#170)"><g clip-path="url(#171)"></g><g clip-path="url(#172)"></g><g clip-path="url(#173)"></g><g clip-path="url(#174)"></g><g clip-path="url(#175)"></g></g><g clip-path="url(#176)"><g clip-path="url(#177)"></g><g clip-path="url(#178)"></g></g><g clip-path="url(#179)"><g clip-path="url(#180)"></g><g clip-path="url(#181)"></g><g clip-path="url(#182)"></g></g><g clip-path="url(#183)"><g clip-path="url(#184)"></g><g clip-path="url(#185)"></g><g clip-path="url(#186)"></g></g><g clip-path="url(#187)"><g clip-path="url(#188)"></g><g clip-path="url(#189)"></g><g clip-path="url(#190)"></g><g clip-path="url(#191)"></g><g clip-path="url(#192)"></g></g><g clip-path="url(#193)"><g clip-path="url(#194)"></g><g clip-path="url(#195)"></g></g><g clip-path="url(#196)"><g clip-path="url(#197)"></g><g clip-path="url(#198)"></g><g clip-path="url(#199)"></g><g clip-path="url(#200)"></g><g clip-path="url(#201)"></g></g><path transform="matrix(1 0 0 -1 0 841)" d="M73.824 316.61L74.304 316.61L74.304 316.61L74.304 317.09L74.304 317.09L73.824 317.09z" stroke="none" fill="#000000" fill-rule="evenodd" /><path transform="matrix(1 0 0 -1 0 841)" d="M97.104 316.61L97.584 316.61L97.584 316.61L97.584 317.09L97.584 317.09L97.104 317.09z" stroke="none" fill="#000000" fill-rule="evenodd" /><path transform="matrix(1 0 0 -1 0 841)" d="M97.584 316.61L121.824 316.61L121.824 316.61L121.824 317.09L121.824 317.09L97.584 317.09z" stroke="none" fill="#000000" fill-rule="evenodd" /><path transform="matrix(1 0 0 -1 0 841)" d="M121.82 316.61L122.3 316.61L122.3 316.61L122.3 317.09L122.3 317.09L121.82 317.09z" stroke="none" fill="#000000" fill-rule="evenodd" /><path transform="matrix(1 0 0 -1 0 841)" d="M122.3 316.61L164.3 316.61L164.3 316.61L164.3 317.09L164.3 317.09L122.3 317.09z" stroke="none" fill="#000000" fill-rule="evenodd" /><path transform="matrix(1 0 0 -1 0 841)" d="M164.3 316.61L164.78 316.61L164.78 316.61L164.78 317.09L164.78 317.09L164.3 317.09z" stroke="none" fill="#000000" fill-rule="evenodd" /><path transform="matrix(1 0 0 -1 0 841)" d="M164.78 316.61L220.964 316.61L220.964 316.61L220.964 317.09L220.964 317.09L164.78 317.09z" stroke="none" fill="#000000" fill-rule="evenodd" /><path transform="matrix(1 0 0 -1 0 841)" d="M220.97 316.61L221.45 316.61L221.45 316.61L221.45 317.09L221.45 317.09L220.97 317.09z" stroke="none" fill="#000000" fill-rule="evenodd" /><path transform="matrix(1 0 0 -1 0 841)" d="M221.45 316.61L284.81 316.61L284.81 316.61L284.81 317.09L284.81 317.09L221.45 317.09z" stroke="none" fill="#000000" fill-rule="evenodd" /><path transform="matrix(1 0 0 -1 0 841)" d="M284.81 316.61L285.29 316.61L285.29 316.61L285.29 317.09L285.29 317.09L284.81 317.09z" stroke="none" fill="#000000" fill-rule="evenodd" /><path transform="matrix(1 0 0 -1 0 841)" d="M285.29 316.61L362.834 316.61L362.834 316.61L362.834 317.09L362.834 317.09L285.29 317.09z" stroke="none" fill="#000000" fill-rule="evenodd" /><path transform="matrix(1 0 0 -1 0 841)" d="M362.83 316.61L363.31 316.61L363.31 316.61L363.31 317.09L363.31 317.09L362.83 317.09z" stroke="none" fill="#000000" fill-rule="evenodd" /><path transform="matrix(1 0 0 -1 0 841)" d="M363.31 316.61L433.63 316.61L433.63 316.61L433.63 317.09L433.63 317.09L363.31 317.09z" stroke="none" fill="#000000" fill-rule="evenodd" /><path transform="matrix(1 0 0 -1 0 841)" d="M433.63 316.61L434.11 316.61L434.11 316.61L434.11 317.09L434.11 317.09L433.63 317.09z" stroke="none" fill="#000000" fill-rule="evenodd" /><path transform="matrix(1 0 0 -1 0 841)" d="M434.11 316.61L518.734 316.61L518.734 316.61L518.734 317.09L518.734 317.09L434.11 317.09z" stroke="none" fill="#000000" fill-rule="evenodd" /><path transform="matrix(1 0 0 -1 0 841)" d="M518.74 316.61L519.22 316.61L519.22 316.61L519.22 317.09L519.22 317.09L518.74 317.09z" stroke="none" fill="#000000" fill-rule="evenodd" /><path transform="matrix(1 0 0 -1 0 841)" d="M73.824 261.05L74.304 261.05L74.304 261.05L74.304 316.61L74.304 316.61L73.824 316.61z" stroke="none" fill="#000000" fill-rule="evenodd" /><path transform="matrix(1 0 0 -1 0 841)" d="M97.104 261.05L97.584 261.05L97.584 261.05L97.584 316.61L97.584 316.61L97.104 316.61z" stroke="none" fill="#000000" fill-rule="evenodd" /><path transform="matrix(1 0 0 -1 0 841)" d="M121.82 261.05L122.3 261.05L122.3 261.05L122.3 316.61L122.3 316.61L121.82 316.61z" stroke="none" fill="#000000" fill-rule="evenodd" /><path transform="matrix(1 0 0 -1 0 841)" d="M164.3 261.05L164.78 261.05L164.78 261.05L164.78 316.61L164.78 316.61L164.3 316.61z" stroke="none" fill="#000000" fill-rule="evenodd" /><path transform="matrix(1 0 0 -1 0 841)" d="M220.97 261.05L221.45 261.05L221.45 261.05L221.45 316.61L221.45 316.61L220.97 316.61z" stroke="none" fill="#000000" fill-rule="evenodd" /><path transform="matrix(1 0 0 -1 0 841)" d="M284.81 261.05L285.29 261.05L285.29 261.05L285.29 316.61L285.29 316.61L284.81 316.61z" stroke="none" fill="#000000" fill-rule="evenodd" /><path transform="matrix(1 0 0 -1 0 841)" d="M362.83 261.05L363.31 261.05L363.31 261.05L363.31 316.61L363.31 316.61L362.83 316.61z" stroke="none" fill="#000000" fill-rule="evenodd" /><path transform="matrix(1 0 0 -1 0 841)" d="M433.63 261.05L434.11 261.05L434.11 261.05L434.11 316.61L434.11 316.61L433.63 316.61z" stroke="none" fill="#000000" fill-rule="evenodd" /><path transform="matrix(1 0 0 -1 0 841)" d="M518.74 261.05L519.22 261.05L519.22 261.05L519.22 316.61L519.22 316.61L518.74 316.61z" stroke="none" fill="#000000" fill-rule="evenodd" /><g clip-path="url(#202)"><g clip-path="url(#203)"></g><g clip-path="url(#204)"></g></g><g clip-path="url(#205)"><g clip-path="url(#206)"></g><g clip-path="url(#207)"></g><g clip-path="url(#208)"></g></g><g clip-path="url(#209)"><g clip-path="url(#210)"></g><g clip-path="url(#211)"></g><g clip-path="url(#212)"></g><g clip-path="url(#213)"></g><g clip-path="url(#214)"></g></g><g clip-path="url(#215)"><g clip-path="url(#216)"></g><g clip-path="url(#217)"></g><g clip-path="url(#218)"></g><g clip-path="url(#219)"></g><g clip-path="url(#220)"></g></g><g clip-path="url(#221)"><g clip-path="url(#222)"></g><g clip-path="url(#223)"></g></g><g clip-path="url(#224)"><g clip-path="url(#225)"></g><g clip-path="url(#226)"></g><g clip-path="url(#227)"></g><g clip-path="url(#228)"></g><g clip-path="url(#229)"></g><g clip-path="url(#230)"></g></g><path transform="matrix(1 0 0 -1 0 841)" d="M73.824 260.57L74.304 260.57L74.304 260.57L74.304 261.05L74.304 261.05L73.824 261.05z" stroke="none" fill="#000000" fill-rule="evenodd" /><path transform="matrix(1 0 0 -1 0 841)" d="M97.104 260.57L97.584 260.57L97.584 260.57L97.584 261.05L97.584 261.05L97.104 261.05z" stroke="none" fill="#000000" fill-rule="evenodd" /><path transform="matrix(1 0 0 -1 0 841)" d="M121.82 260.57L122.3 260.57L122.3 260.57L122.3 261.05L122.3 261.05L121.82 261.05z" stroke="none" fill="#000000" fill-rule="evenodd" /><path transform="matrix(1 0 0 -1 0 841)" d="M122.3 260.57L164.3 260.57L164.3 260.57L164.3 261.05L164.3 261.05L122.3 261.05z" stroke="none" fill="#000000" fill-rule="evenodd" /><path transform="matrix(1 0 0 -1 0 841)" d="M164.3 260.57L164.78 260.57L164.78 260.57L164.78 261.05L164.78 261.05L164.3 261.05z" stroke="none" fill="#000000" fill-rule="evenodd" /><path transform="matrix(1 0 0 -1 0 841)" d="M164.78 260.57L220.964 260.57L220.964 260.57L220.964 261.05L220.964 261.05L164.78 261.05z" stroke="none" fill="#000000" fill-rule="evenodd" /><path transform="matrix(1 0 0 -1 0 841)" d="M220.97 260.57L221.45 260.57L221.45 260.57L221.45 261.05L221.45 261.05L220.97 261.05z" stroke="none" fill="#000000" fill-rule="evenodd" /><path transform="matrix(1 0 0 -1 0 841)" d="M221.45 260.57L284.81 260.57L284.81 260.57L284.81 261.05L284.81 261.05L221.45 261.05z" stroke="none" fill="#000000" fill-rule="evenodd" /><path transform="matrix(1 0 0 -1 0 841)" d="M284.81 260.57L285.29 260.57L285.29 260.57L285.29 261.05L285.29 261.05L284.81 261.05z" stroke="none" fill="#000000" fill-rule="evenodd" /><path transform="matrix(1 0 0 -1 0 841)" d="M285.29 260.57L362.834 260.57L362.834 260.57L362.834 261.05L362.834 261.05L285.29 261.05z" stroke="none" fill="#000000" fill-rule="evenodd" /><path transform="matrix(1 0 0 -1 0 841)" d="M362.83 260.57L363.31 260.57L363.31 260.57L363.31 261.05L363.31 261.05L362.83 261.05z" stroke="none" fill="#000000" fill-rule="evenodd" /><path transform="matrix(1 0 0 -1 0 841)" d="M363.31 260.57L433.63 260.57L433.63 260.57L433.63 261.05L433.63 261.05L363.31 261.05z" stroke="none" fill="#000000" fill-rule="evenodd" /><path transform="matrix(1 0 0 -1 0 841)" d="M433.63 260.57L434.11 260.57L434.11 260.57L434.11 261.05L434.11 261.05L433.63 261.05z" stroke="none" fill="#000000" fill-rule="evenodd" /><path transform="matrix(1 0 0 -1 0 841)" d="M434.11 260.57L518.734 260.57L518.734 260.57L518.734 261.05L518.734 261.05L434.11 261.05z" stroke="none" fill="#000000" fill-rule="evenodd" /><path transform="matrix(1 0 0 -1 0 841)" d="M518.74 260.57L519.22 260.57L519.22 260.57L519.22 261.05L519.22 261.05L518.74 261.05z" stroke="none" fill="#000000" fill-rule="evenodd" /><path transform="matrix(1 0 0 -1 0 841)" d="M73.824 211.22L74.304 211.22L74.304 211.22L74.304 260.564L74.304 260.564L73.824 260.564z" stroke="none" fill="#000000" fill-rule="evenodd" /><path transform="matrix(1 0 0 -1 0 841)" d="M97.104 211.22L97.584 211.22L97.584 211.22L97.584 260.564L97.584 260.564L97.104 260.564z" stroke="none" fill="#000000" fill-rule="evenodd" /><path transform="matrix(1 0 0 -1 0 841)" d="M121.82 211.22L122.3 211.22L122.3 211.22L122.3 260.564L122.3 260.564L121.82 260.564z" stroke="none" fill="#000000" fill-rule="evenodd" /><path transform="matrix(1 0 0 -1 0 841)" d="M164.3 211.22L164.78 211.22L164.78 211.22L164.78 260.564L164.78 260.564L164.3 260.564z" stroke="none" fill="#000000" fill-rule="evenodd" /><path transform="matrix(1 0 0 -1 0 841)" d="M220.97 211.22L221.45 211.22L221.45 211.22L221.45 260.564L221.45 260.564L220.97 260.564z" stroke="none" fill="#000000" fill-rule="evenodd" /><path transform="matrix(1 0 0 -1 0 841)" d="M284.81 211.22L285.29 211.22L285.29 211.22L285.29 260.564L285.29 260.564L284.81 260.564z" stroke="none" fill="#000000" fill-rule="evenodd" /><path transform="matrix(1 0 0 -1 0 841)" d="M362.83 211.22L363.31 211.22L363.31 211.22L363.31 260.564L363.31 260.564L362.83 260.564z" stroke="none" fill="#000000" fill-rule="evenodd" /><path transform="matrix(1 0 0 -1 0 841)" d="M433.63 211.22L434.11 211.22L434.11 211.22L434.11 260.564L434.11 260.564L433.63 260.564z" stroke="none" fill="#000000" fill-rule="evenodd" /><path transform="matrix(1 0 0 -1 0 841)" d="M518.74 211.22L519.22 211.22L519.22 211.22L519.22 260.564L519.22 260.564L518.74 260.564z" stroke="none" fill="#000000" fill-rule="evenodd" /><g clip-path="url(#231)"><g clip-path="url(#232)"></g></g><g clip-path="url(#233)"><g clip-path="url(#234)"></g></g><g clip-path="url(#235)"><g clip-path="url(#236)"></g></g><g clip-path="url(#237)"><g clip-path="url(#238)"></g></g><g clip-path="url(#239)"><g clip-path="url(#240)"></g></g><g clip-path="url(#241)"><g clip-path="url(#242)"></g></g><path transform="matrix(1 0 0 -1 0 841)" d="M73.824 210.74L74.304 210.74L74.304 210.74L74.304 211.22L74.304 211.22L73.824 211.22z" stroke="none" fill="#000000" fill-rule="evenodd" /><path transform="matrix(1 0 0 -1 0 841)" d="M97.104 210.74L97.584 210.74L97.584 210.74L97.584 211.22L97.584 211.22L97.104 211.22z" stroke="none" fill="#000000" fill-rule="evenodd" /><path transform="matrix(1 0 0 -1 0 841)" d="M121.82 210.74L122.3 210.74L122.3 210.74L122.3 211.22L122.3 211.22L121.82 211.22z" stroke="none" fill="#000000" fill-rule="evenodd" /><path transform="matrix(1 0 0 -1 0 841)" d="M122.3 210.74L164.3 210.74L164.3 210.74L164.3 211.22L164.3 211.22L122.3 211.22z" stroke="none" fill="#000000" fill-rule="evenodd" /><path transform="matrix(1 0 0 -1 0 841)" d="M164.3 210.74L164.78 210.74L164.78 210.74L164.78 211.22L164.78 211.22L164.3 211.22z" stroke="none" fill="#000000" fill-rule="evenodd" /><path transform="matrix(1 0 0 -1 0 841)" d="M164.78 210.74L220.964 210.74L220.964 210.74L220.964 211.22L220.964 211.22L164.78 211.22z" stroke="none" fill="#000000" fill-rule="evenodd" /><path transform="matrix(1 0 0 -1 0 841)" d="M220.97 210.74L221.45 210.74L221.45 210.74L221.45 211.22L221.45 211.22L220.97 211.22z" stroke="none" fill="#000000" fill-rule="evenodd" /><path transform="matrix(1 0 0 -1 0 841)" d="M221.45 210.74L284.81 210.74L284.81 210.74L284.81 211.22L284.81 211.22L221.45 211.22z" stroke="none" fill="#000000" fill-rule="evenodd" /><path transform="matrix(1 0 0 -1 0 841)" d="M284.81 210.74L285.29 210.74L285.29 210.74L285.29 211.22L285.29 211.22L284.81 211.22z" stroke="none" fill="#000000" fill-rule="evenodd" /><path transform="matrix(1 0 0 -1 0 841)" d="M285.29 210.74L362.834 210.74L362.834 210.74L362.834 211.22L362.834 211.22L285.29 211.22z" stroke="none" fill="#000000" fill-rule="evenodd" /><path transform="matrix(1 0 0 -1 0 841)" d="M362.83 210.74L363.31 210.74L363.31 210.74L363.31 211.22L363.31 211.22L362.83 211.22z" stroke="none" fill="#000000" fill-rule="evenodd" /><path transform="matrix(1 0 0 -1 0 841)" d="M363.31 210.74L433.63 210.74L433.63 210.74L433.63 211.22L433.63 211.22L363.31 211.22z" stroke="none" fill="#000000" fill-rule="evenodd" /><path transform="matrix(1 0 0 -1 0 841)" d="M433.63 210.74L434.11 210.74L434.11 210.74L434.11 211.22L434.11 211.22L433.63 211.22z" stroke="none" fill="#000000" fill-rule="evenodd" /><path transform="matrix(1 0 0 -1 0 841)" d="M434.11 210.74L518.734 210.74L518.734 210.74L518.734 211.22L518.734 211.22L434.11 211.22z" stroke="none" fill="#000000" fill-rule="evenodd" /><path transform="matrix(1 0 0 -1 0 841)" d="M518.74 210.74L519.22 210.74L519.22 210.74L519.22 211.22L519.22 211.22L518.74 211.22z" stroke="none" fill="#000000" fill-rule="evenodd" /><path transform="matrix(1 0 0 -1 0 841)" d="M73.824 189.74L74.304 189.74L74.304 189.74L74.304 210.74L74.304 210.74L73.824 210.74z" stroke="none" fill="#000000" fill-rule="evenodd" /><path transform="matrix(1 0 0 -1 0 841)" d="M97.104 189.74L97.584 189.74L97.584 189.74L97.584 210.74L97.584 210.74L97.104 210.74z" stroke="none" fill="#000000" fill-rule="evenodd" /><path transform="matrix(1 0 0 -1 0 841)" d="M121.82 189.74L122.3 189.74L122.3 189.74L122.3 210.74L122.3 210.74L121.82 210.74z" stroke="none" fill="#000000" fill-rule="evenodd" /><path transform="matrix(1 0 0 -1 0 841)" d="M164.3 189.74L164.78 189.74L164.78 189.74L164.78 210.74L164.78 210.74L164.3 210.74z" stroke="none" fill="#000000" fill-rule="evenodd" /><path transform="matrix(1 0 0 -1 0 841)" d="M220.97 189.74L221.45 189.74L221.45 189.74L221.45 210.74L221.45 210.74L220.97 210.74z" stroke="none" fill="#000000" fill-rule="evenodd" /><path transform="matrix(1 0 0 -1 0 841)" d="M284.81 189.74L285.29 189.74L285.29 189.74L285.29 210.74L285.29 210.74L284.81 210.74z" stroke="none" fill="#000000" fill-rule="evenodd" /><path transform="matrix(1 0 0 -1 0 841)" d="M362.83 189.74L363.31 189.74L363.31 189.74L363.31 210.74L363.31 210.74L362.83 210.74z" stroke="none" fill="#000000" fill-rule="evenodd" /><path transform="matrix(1 0 0 -1 0 841)" d="M433.63 189.74L434.11 189.74L434.11 189.74L434.11 210.74L434.11 210.74L433.63 210.74z" stroke="none" fill="#000000" fill-rule="evenodd" /><path transform="matrix(1 0 0 -1 0 841)" d="M518.74 189.74L519.22 189.74L519.22 189.74L519.22 210.74L519.22 210.74L518.74 210.74z" stroke="none" fill="#000000" fill-rule="evenodd" /><g clip-path="url(#243)"><g clip-path="url(#244)"></g></g><g clip-path="url(#245)"><g clip-path="url(#246)"></g></g><g clip-path="url(#247)"><g clip-path="url(#248)"></g></g><g clip-path="url(#249)"><g clip-path="url(#250)"></g></g><g clip-path="url(#251)"><g clip-path="url(#252)"></g></g><g clip-path="url(#253)"><g clip-path="url(#254)"></g></g><path transform="matrix(1 0 0 -1 0 841)" d="M73.824 189.26L74.304 189.26L74.304 189.26L74.304 189.74L74.304 189.74L73.824 189.74z" stroke="none" fill="#000000" fill-rule="evenodd" /><path transform="matrix(1 0 0 -1 0 841)" d="M97.104 189.26L97.584 189.26L97.584 189.26L97.584 189.74L97.584 189.74L97.104 189.74z" stroke="none" fill="#000000" fill-rule="evenodd" /><path transform="matrix(1 0 0 -1 0 841)" d="M121.82 189.26L122.3 189.26L122.3 189.26L122.3 189.74L122.3 189.74L121.82 189.74z" stroke="none" fill="#000000" fill-rule="evenodd" /><path transform="matrix(1 0 0 -1 0 841)" d="M122.3 189.26L164.3 189.26L164.3 189.26L164.3 189.74L164.3 189.74L122.3 189.74z" stroke="none" fill="#000000" fill-rule="evenodd" /><path transform="matrix(1 0 0 -1 0 841)" d="M164.3 189.26L164.78 189.26L164.78 189.26L164.78 189.74L164.78 189.74L164.3 189.74z" stroke="none" fill="#000000" fill-rule="evenodd" /><path transform="matrix(1 0 0 -1 0 841)" d="M164.78 189.26L220.964 189.26L220.964 189.26L220.964 189.74L220.964 189.74L164.78 189.74z" stroke="none" fill="#000000" fill-rule="evenodd" /><path transform="matrix(1 0 0 -1 0 841)" d="M220.97 189.26L221.45 189.26L221.45 189.26L221.45 189.74L221.45 189.74L220.97 189.74z" stroke="none" fill="#000000" fill-rule="evenodd" /><path transform="matrix(1 0 0 -1 0 841)" d="M221.45 189.26L284.81 189.26L284.81 189.26L284.81 189.74L284.81 189.74L221.45 189.74z" stroke="none" fill="#000000" fill-rule="evenodd" /><path transform="matrix(1 0 0 -1 0 841)" d="M284.81 189.26L285.29 189.26L285.29 189.26L285.29 189.74L285.29 189.74L284.81 189.74z" stroke="none" fill="#000000" fill-rule="evenodd" /><path transform="matrix(1 0 0 -1 0 841)" d="M285.29 189.26L362.834 189.26L362.834 189.26L362.834 189.74L362.834 189.74L285.29 189.74z" stroke="none" fill="#000000" fill-rule="evenodd" /><path transform="matrix(1 0 0 -1 0 841)" d="M362.83 189.26L363.31 189.26L363.31 189.26L363.31 189.74L363.31 189.74L362.83 189.74z" stroke="none" fill="#000000" fill-rule="evenodd" /><path transform="matrix(1 0 0 -1 0 841)" d="M363.31 189.26L433.63 189.26L433.63 189.26L433.63 189.74L433.63 189.74L363.31 189.74z" stroke="none" fill="#000000" fill-rule="evenodd" /><path transform="matrix(1 0 0 -1 0 841)" d="M433.63 189.26L434.11 189.26L434.11 189.26L434.11 189.74L434.11 189.74L433.63 189.74z" stroke="none" fill="#000000" fill-rule="evenodd" /><path transform="matrix(1 0 0 -1 0 841)" d="M434.11 189.26L518.734 189.26L518.734 189.26L518.734 189.74L518.734 189.74L434.11 189.74z" stroke="none" fill="#000000" fill-rule="evenodd" /><path transform="matrix(1 0 0 -1 0 841)" d="M518.74 189.26L519.22 189.26L519.22 189.26L519.22 189.74L519.22 189.74L518.74 189.74z" stroke="none" fill="#000000" fill-rule="evenodd" /><path transform="matrix(1 0 0 -1 0 841)" d="M73.824 167.78L74.304 167.78L74.304 167.78L74.304 189.26L74.304 189.26L73.824 189.26z" stroke="none" fill="#000000" fill-rule="evenodd" /><path transform="matrix(1 0 0 -1 0 841)" d="M97.104 167.78L97.584 167.78L97.584 167.78L97.584 189.26L97.584 189.26L97.104 189.26z" stroke="none" fill="#000000" fill-rule="evenodd" /><path transform="matrix(1 0 0 -1 0 841)" d="M121.82 167.78L122.3 167.78L122.3 167.78L122.3 189.26L122.3 189.26L121.82 189.26z" stroke="none" fill="#000000" fill-rule="evenodd" /><path transform="matrix(1 0 0 -1 0 841)" d="M164.3 167.78L164.78 167.78L164.78 167.78L164.78 189.26L164.78 189.26L164.3 189.26z" stroke="none" fill="#000000" fill-rule="evenodd" /><path transform="matrix(1 0 0 -1 0 841)" d="M220.97 167.78L221.45 167.78L221.45 167.78L221.45 189.26L221.45 189.26L220.97 189.26z" stroke="none" fill="#000000" fill-rule="evenodd" /><path transform="matrix(1 0 0 -1 0 841)" d="M284.81 167.78L285.29 167.78L285.29 167.78L285.29 189.26L285.29 189.26L284.81 189.26z" stroke="none" fill="#000000" fill-rule="evenodd" /><path transform="matrix(1 0 0 -1 0 841)" d="M362.83 167.78L363.31 167.78L363.31 167.78L363.31 189.26L363.31 189.26L362.83 189.26z" stroke="none" fill="#000000" fill-rule="evenodd" /><path transform="matrix(1 0 0 -1 0 841)" d="M433.63 167.78L434.11 167.78L434.11 167.78L434.11 189.26L434.11 189.26L433.63 189.26z" stroke="none" fill="#000000" fill-rule="evenodd" /><path transform="matrix(1 0 0 -1 0 841)" d="M518.74 167.78L519.22 167.78L519.22 167.78L519.22 189.26L519.22 189.26L518.74 189.26z" stroke="none" fill="#000000" fill-rule="evenodd" /><g clip-path="url(#255)"><g clip-path="url(#256)"><path transform="matrix(1 0 0 -1 0 841)" d="" stroke="none" fill="#000000" fill-rule="evenodd" /><path transform="matrix(1 0 0 -1 0 841)" d="" stroke="none" fill="#000000" fill-rule="evenodd" /></g><g clip-path="url(#257)"><path transform="matrix(1 0 0 -1 0 841)" d="" stroke="none" fill="#000000" fill-rule="evenodd" /><path transform="matrix(1 0 0 -1 0 841)" d="" stroke="none" fill="#000000" fill-rule="evenodd" /></g><g clip-path="url(#258)"><path transform="matrix(1 0 0 -1 0 841)" d="" stroke="none" fill="#000000" fill-rule="evenodd" /><path transform="matrix(1 0 0 -1 0 841)" d="" stroke="none" fill="#000000" fill-rule="evenodd" /></g><g clip-path="url(#259)"><path transform="matrix(1 0 0 -1 0 841)" d="" stroke="none" fill="#000000" fill-rule="evenodd" /></g></g><g clip-path="url(#260)"><g clip-path="url(#261)"></g><g clip-path="url(#262)"></g></g><g clip-path="url(#263)"><g clip-path="url(#264)"></g><g clip-path="url(#265)"></g><g clip-path="url(#266)"></g></g><g clip-path="url(#267)"><g clip-path="url(#268)"></g><g clip-path="url(#269)"></g></g><g clip-path="url(#270)"><g clip-path="url(#271)"></g><g clip-path="url(#272)"></g></g><path transform="matrix(1 0 0 -1 0 841)" d="M73.824 167.3L74.304 167.3L74.304 167.3L74.304 167.78L74.304 167.78L73.824 167.78z" stroke="none" fill="#000000" fill-rule="evenodd" /><path transform="matrix(1 0 0 -1 0 841)" d="M74.304 167.3L97.104 167.3L97.104 167.3L97.104 167.78L97.104 167.78L74.304 167.78z" stroke="none" fill="#000000" fill-rule="evenodd" /><path transform="matrix(1 0 0 -1 0 841)" d="M97.104 167.3L97.584 167.3L97.584 167.3L97.584 167.78L97.584 167.78L97.104 167.78z" stroke="none" fill="#000000" fill-rule="evenodd" /><path transform="matrix(1 0 0 -1 0 841)" d="M97.584 167.3L121.824 167.3L121.824 167.3L121.824 167.78L121.824 167.78L97.584 167.78z" stroke="none" fill="#000000" fill-rule="evenodd" /><path transform="matrix(1 0 0 -1 0 841)" d="M121.82 167.3L122.3 167.3L122.3 167.3L122.3 167.78L122.3 167.78L121.82 167.78z" stroke="none" fill="#000000" fill-rule="evenodd" /><path transform="matrix(1 0 0 -1 0 841)" d="M122.3 167.3L164.3 167.3L164.3 167.3L164.3 167.78L164.3 167.78L122.3 167.78z" stroke="none" fill="#000000" fill-rule="evenodd" /><path transform="matrix(1 0 0 -1 0 841)" d="M164.3 167.3L164.78 167.3L164.78 167.3L164.78 167.78L164.78 167.78L164.3 167.78z" stroke="none" fill="#000000" fill-rule="evenodd" /><path transform="matrix(1 0 0 -1 0 841)" d="M164.78 167.3L220.964 167.3L220.964 167.3L220.964 167.78L220.964 167.78L164.78 167.78z" stroke="none" fill="#000000" fill-rule="evenodd" /><path transform="matrix(1 0 0 -1 0 841)" d="M220.97 167.3L221.45 167.3L221.45 167.3L221.45 167.78L221.45 167.78L220.97 167.78z" stroke="none" fill="#000000" fill-rule="evenodd" /><path transform="matrix(1 0 0 -1 0 841)" d="M221.45 167.3L284.81 167.3L284.81 167.3L284.81 167.78L284.81 167.78L221.45 167.78z" stroke="none" fill="#000000" fill-rule="evenodd" /><path transform="matrix(1 0 0 -1 0 841)" d="M284.81 167.3L285.29 167.3L285.29 167.3L285.29 167.78L285.29 167.78L284.81 167.78z" stroke="none" fill="#000000" fill-rule="evenodd" /><path transform="matrix(1 0 0 -1 0 841)" d="M285.29 167.3L362.834 167.3L362.834 167.3L362.834 167.78L362.834 167.78L285.29 167.78z" stroke="none" fill="#000000" fill-rule="evenodd" /><path transform="matrix(1 0 0 -1 0 841)" d="M362.83 167.3L363.31 167.3L363.31 167.3L363.31 167.78L363.31 167.78L362.83 167.78z" stroke="none" fill="#000000" fill-rule="evenodd" /><path transform="matrix(1 0 0 -1 0 841)" d="M363.31 167.3L433.63 167.3L433.63 167.3L433.63 167.78L433.63 167.78L363.31 167.78z" stroke="none" fill="#000000" fill-rule="evenodd" /><path transform="matrix(1 0 0 -1 0 841)" d="M433.63 167.3L434.11 167.3L434.11 167.3L434.11 167.78L434.11 167.78L433.63 167.78z" stroke="none" fill="#000000" fill-rule="evenodd" /><path transform="matrix(1 0 0 -1 0 841)" d="M434.11 167.3L518.734 167.3L518.734 167.3L518.734 167.78L518.734 167.78L434.11 167.78z" stroke="none" fill="#000000" fill-rule="evenodd" /><path transform="matrix(1 0 0 -1 0 841)" d="M518.74 167.3L519.22 167.3L519.22 167.3L519.22 167.78L519.22 167.78L518.74 167.78z" stroke="none" fill="#000000" fill-rule="evenodd" /><path transform="matrix(1 0 0 -1 0 841)" d="M73.824 123.02L74.304 123.02L74.304 123.02L74.304 167.3L74.304 167.3L73.824 167.3z" stroke="none" fill="#000000" fill-rule="evenodd" /><path transform="matrix(1 0 0 -1 0 841)" d="M97.104 123.02L97.584 123.02L97.584 123.02L97.584 167.3L97.584 167.3L97.104 167.3z" stroke="none" fill="#000000" fill-rule="evenodd" /><path transform="matrix(1 0 0 -1 0 841)" d="M164.3 123.02L164.78 123.02L164.78 123.02L164.78 167.3L164.78 167.3L164.3 167.3z" stroke="none" fill="#000000" fill-rule="evenodd" /><path transform="matrix(1 0 0 -1 0 841)" d="M284.81 123.02L285.29 123.02L285.29 123.02L285.29 167.3L285.29 167.3L284.81 167.3z" stroke="none" fill="#000000" fill-rule="evenodd" /><path transform="matrix(1 0 0 -1 0 841)" d="M362.83 123.02L363.31 123.02L363.31 123.02L363.31 167.3L363.31 167.3L362.83 167.3z" stroke="none" fill="#000000" fill-rule="evenodd" /><path transform="matrix(1 0 0 -1 0 841)" d="M518.74 123.02L519.22 123.02L519.22 123.02L519.22 167.3L519.22 167.3L518.74 167.3z" stroke="none" fill="#000000" fill-rule="evenodd" /><g clip-path="url(#273)"><g clip-path="url(#274)"></g><g clip-path="url(#275)"></g></g><g clip-path="url(#276)"><g clip-path="url(#277)"></g><g clip-path="url(#278)"></g></g><g clip-path="url(#279)"><g clip-path="url(#280)"></g><g clip-path="url(#281)"></g></g><g clip-path="url(#282)"><g clip-path="url(#283)"></g><g clip-path="url(#284)"></g></g><path transform="matrix(1 0 0 -1 0 841)" d="M73.824 122.54L74.304 122.54L74.304 122.54L74.304 123.02L74.304 123.02L73.824 123.02z" stroke="none" fill="#000000" fill-rule="evenodd" /><path transform="matrix(1 0 0 -1 0 841)" d="M97.104 122.54L97.584 122.54L97.584 122.54L97.584 123.02L97.584 123.02L97.104 123.02z" stroke="none" fill="#000000" fill-rule="evenodd" /><path transform="matrix(1 0 0 -1 0 841)" d="M97.584 122.54L164.304 122.54L164.304 122.54L164.304 123.02L164.304 123.02L97.584 123.02z" stroke="none" fill="#000000" fill-rule="evenodd" /><path transform="matrix(1 0 0 -1 0 841)" d="M164.3 122.54L164.78 122.54L164.78 122.54L164.78 123.02L164.78 123.02L164.3 123.02z" stroke="none" fill="#000000" fill-rule="evenodd" /><path transform="matrix(1 0 0 -1 0 841)" d="M164.78 122.54L284.8 122.54L284.8 122.54L284.8 123.02L284.8 123.02L164.78 123.02z" stroke="none" fill="#000000" fill-rule="evenodd" /><path transform="matrix(1 0 0 -1 0 841)" d="M284.81 122.54L285.29 122.54L285.29 122.54L285.29 123.02L285.29 123.02L284.81 123.02z" stroke="none" fill="#000000" fill-rule="evenodd" /><path transform="matrix(1 0 0 -1 0 841)" d="M285.29 122.54L362.834 122.54L362.834 122.54L362.834 123.02L362.834 123.02L285.29 123.02z" stroke="none" fill="#000000" fill-rule="evenodd" /><path transform="matrix(1 0 0 -1 0 841)" d="M362.83 122.54L363.31 122.54L363.31 122.54L363.31 123.02L363.31 123.02L362.83 123.02z" stroke="none" fill="#000000" fill-rule="evenodd" /><path transform="matrix(1 0 0 -1 0 841)" d="M363.31 122.54L518.73 122.54L518.73 122.54L518.73 123.02L518.73 123.02L363.31 123.02z" stroke="none" fill="#000000" fill-rule="evenodd" /><path transform="matrix(1 0 0 -1 0 841)" d="M518.74 122.54L519.22 122.54L519.22 122.54L519.22 123.02L519.22 123.02L518.74 123.02z" stroke="none" fill="#000000" fill-rule="evenodd" /><path transform="matrix(1 0 0 -1 0 841)" d="M73.824 91.224L74.304 91.224L74.304 91.224L74.304 122.544L74.304 122.544L73.824 122.544z" stroke="none" fill="#000000" fill-rule="evenodd" /><path transform="matrix(1 0 0 -1 0 841)" d="M73.824 90.744L74.304 90.744L74.304 90.744L74.304 91.22404L74.304 91.22404L73.824 91.22404z" stroke="none" fill="#000000" fill-rule="evenodd" /><path transform="matrix(1 0 0 -1 0 841)" d="M73.824 90.744L74.304 90.744L74.304 90.744L74.304 91.22404L74.304 91.22404L73.824 91.22404z" stroke="none" fill="#000000" fill-rule="evenodd" /><path transform="matrix(1 0 0 -1 0 841)" d="M74.304 90.744L97.104 90.744L97.104 90.744L97.104 91.22404L97.104 91.22404L74.304 91.22404z" stroke="none" fill="#000000" fill-rule="evenodd" /><path transform="matrix(1 0 0 -1 0 841)" d="M97.104 91.224L97.584 91.224L97.584 91.224L97.584 122.544L97.584 122.544L97.104 122.544z" stroke="none" fill="#000000" fill-rule="evenodd" /><path transform="matrix(1 0 0 -1 0 841)" d="M97.104 90.744L97.584 90.744L97.584 90.744L97.584 91.22404L97.584 91.22404L97.104 91.22404z" stroke="none" fill="#000000" fill-rule="evenodd" /><path transform="matrix(1 0 0 -1 0 841)" d="M97.584 90.744L164.304 90.744L164.304 90.744L164.304 91.22404L164.304 91.22404L97.584 91.22404z" stroke="none" fill="#000000" fill-rule="evenodd" /><path transform="matrix(1 0 0 -1 0 841)" d="M164.3 91.224L164.78 91.224L164.78 91.224L164.78 122.544L164.78 122.544L164.3 122.544z" stroke="none" fill="#000000" fill-rule="evenodd" /><path transform="matrix(1 0 0 -1 0 841)" d="M164.3 90.744L164.78 90.744L164.78 90.744L164.78 91.22404L164.78 91.22404L164.3 91.22404z" stroke="none" fill="#000000" fill-rule="evenodd" /><path transform="matrix(1 0 0 -1 0 841)" d="M164.78 90.744L284.8 90.744L284.8 90.744L284.8 91.22404L284.8 91.22404L164.78 91.22404z" stroke="none" fill="#000000" fill-rule="evenodd" /><path transform="matrix(1 0 0 -1 0 841)" d="M284.81 91.224L285.29 91.224L285.29 91.224L285.29 122.544L285.29 122.544L284.81 122.544z" stroke="none" fill="#000000" fill-rule="evenodd" /><path transform="matrix(1 0 0 -1 0 841)" d="M284.81 90.744L285.29 90.744L285.29 90.744L285.29 91.22404L285.29 91.22404L284.81 91.22404z" stroke="none" fill="#000000" fill-rule="evenodd" /><path transform="matrix(1 0 0 -1 0 841)" d="M285.29 90.744L362.834 90.744L362.834 90.744L362.834 91.22404L362.834 91.22404L285.29 91.22404z" stroke="none" fill="#000000" fill-rule="evenodd" /><path transform="matrix(1 0 0 -1 0 841)" d="M362.83 91.224L363.31 91.224L363.31 91.224L363.31 122.544L363.31 122.544L362.83 122.544z" stroke="none" fill="#000000" fill-rule="evenodd" /><path transform="matrix(1 0 0 -1 0 841)" d="M362.83 90.744L363.31 90.744L363.31 90.744L363.31 91.22404L363.31 91.22404L362.83 91.22404z" stroke="none" fill="#000000" fill-rule="evenodd" /><path transform="matrix(1 0 0 -1 0 841)" d="M363.31 90.744L518.73 90.744L518.73 90.744L518.73 91.22404L518.73 91.22404L363.31 91.22404z" stroke="none" fill="#000000" fill-rule="evenodd" /><path transform="matrix(1 0 0 -1 0 841)" d="M518.74 91.224L519.22 91.224L519.22 91.224L519.22 122.544L519.22 122.544L518.74 122.544z" stroke="none" fill="#000000" fill-rule="evenodd" /><path transform="matrix(1 0 0 -1 0 841)" d="M518.74 90.744L519.22 90.744L519.22 90.744L519.22 91.22404L519.22 91.22404L518.74 91.22404z" stroke="none" fill="#000000" fill-rule="evenodd" /><path transform="matrix(1 0 0 -1 0 841)" d="M518.74 90.744L519.22 90.744L519.22 90.744L519.22 91.22404L519.22 91.22404L518.74 91.22404z" stroke="none" fill="#000000" fill-rule="evenodd" /></g></g></g></svg>