<svg xmlns="http://www.w3.org/2000/svg" xmlns:xlink="http://www.w3.org/1999/xlink" id="body_1" preserveAspectRatio="xMinYMin meet" viewBox="0 0 793 1121"><defs><clipPath id="1"><path d="M0 841L0 -0.9199829L0 -0.9199829L595.32 -0.9199829L595.32 -0.9199829L595.32 841L595.32 841L0 841z" /></clipPath><clipPath id="2"><path d="M8.871E-06 841L595.32 841L595.32 841L595.32 -0.9199829L595.32 -0.9199829L8.871E-06 -0.9199829z" /></clipPath><clipPath id="3"><path d="M8.871E-06 841L595.32 841L595.32 841L595.32 -0.9199829L595.32 -0.9199829L8.871E-06 -0.9199829z" /></clipPath><clipPath id="4"><path d="M8.871E-06 841L595.32 841L595.32 841L595.32 -0.9199829L595.32 -0.9199829L8.871E-06 -0.9199829z" /></clipPath><clipPath id="5"><path d="M8.871E-06 841L595.32 841L595.32 841L595.32 -0.9199829L595.32 -0.9199829L8.871E-06 -0.9199829z" /></clipPath><clipPath id="6"><path d="M8.871E-06 841L595.32 841L595.32 841L595.32 -0.9199829L595.32 -0.9199829L8.871E-06 -0.9199829z" /></clipPath><clipPath id="7"><path d="M8.871E-06 841L595.32 841L595.32 841L595.32 -0.9199829L595.32 -0.9199829L8.871E-06 -0.9199829z" /></clipPath><clipPath id="8"><path d="M8.871E-06 841L595.32 841L595.32 841L595.32 -0.9199829L595.32 -0.9199829L8.871E-06 -0.9199829z" /></clipPath><clipPath id="9"><path d="M8.871E-06 841L595.32 841L595.32 841L595.32 -0.9199829L595.32 -0.9199829L8.871E-06 -0.9199829z" /></clipPath><clipPath id="10"><path d="M8.871E-06 841L595.32 841L595.32 841L595.32 -0.9199829L595.32 -0.9199829L8.871E-06 -0.9199829z" /></clipPath><clipPath id="11"><path d="M8.871E-06 841L595.32 841L595.32 841L595.32 -0.9199829L595.32 -0.9199829L8.871E-06 -0.9199829z" /></clipPath><clipPath id="12"><path d="M8.871E-06 841L595.32 841L595.32 841L595.32 -0.9199829L595.32 -0.9199829L8.871E-06 -0.9199829z" /></clipPath><clipPath id="13"><path d="M8.871E-06 841L595.32 841L595.32 841L595.32 -0.9199829L595.32 -0.9199829L8.871E-06 -0.9199829z" /></clipPath><clipPath id="14"><path d="M8.871E-06 841L595.32 841L595.32 841L595.32 -0.9199829L595.32 -0.9199829L8.871E-06 -0.9199829z" /></clipPath><clipPath id="15"><path d="M8.871E-06 841L595.32 841L595.32 841L595.32 -0.9199829L595.32 -0.9199829L8.871E-06 -0.9199829z" /></clipPath><clipPath id="16"><path d="M8.871E-06 841L595.32 841L595.32 841L595.32 -0.9199829L595.32 -0.9199829L8.871E-06 -0.9199829z" /></clipPath><clipPath id="17"><path d="M8.871E-06 841L595.32 841L595.32 841L595.32 -0.9199829L595.32 -0.9199829L8.871E-06 -0.9199829z" /></clipPath><clipPath id="18"><path d="M8.871E-06 841L595.32 841L595.32 841L595.32 -0.9199829L595.32 -0.9199829L8.871E-06 -0.9199829z" /></clipPath><clipPath id="19"><path d="M8.871E-06 841L595.32 841L595.32 841L595.32 -0.9199829L595.32 -0.9199829L8.871E-06 -0.9199829z" /></clipPath><clipPath id="20"><path d="M8.871E-06 841L595.32 841L595.32 841L595.32 -0.9199829L595.32 -0.9199829L8.871E-06 -0.9199829z" /></clipPath><clipPath id="21"><path d="M8.871E-06 841L595.32 841L595.32 841L595.32 -0.9199829L595.32 -0.9199829L8.871E-06 -0.9199829z" /></clipPath><clipPath id="22"><path d="M8.871E-06 841L595.32 841L595.32 841L595.32 -0.9199829L595.32 -0.9199829L8.871E-06 -0.9199829z" /></clipPath><clipPath id="23"><path d="M8.871E-06 841L595.32 841L595.32 841L595.32 -0.9199829L595.32 -0.9199829L8.871E-06 -0.9199829z" /></clipPath><clipPath id="24"><path d="M8.871E-06 841L595.32 841L595.32 841L595.32 -0.9199829L595.32 -0.9199829L8.871E-06 -0.9199829z" /></clipPath><clipPath id="25"><path d="M8.871E-06 841L595.32 841L595.32 841L595.32 -0.9199829L595.32 -0.9199829L8.871E-06 -0.9199829z" /></clipPath><clipPath id="26"><path d="M8.871E-06 841L595.32 841L595.32 841L595.32 -0.9199829L595.32 -0.9199829L8.871E-06 -0.9199829z" /></clipPath><clipPath id="27"><path d="M8.871E-06 841L595.32 841L595.32 841L595.32 -0.9199829L595.32 -0.9199829L8.871E-06 -0.9199829z" /></clipPath><clipPath id="28"><path d="M133.46 362.73L267.52 362.73L267.52 362.73L267.52 334.41L267.52 334.41L133.46 334.41z" /></clipPath><clipPath id="29"><path d="M133.46 362.73L267.52 362.73L267.52 362.73L267.52 334.41L267.52 334.41L133.46 334.41z" /></clipPath><clipPath id="30"><path d="M133.46 362.73L267.52 362.73L267.52 362.73L267.52 334.41L267.52 334.41L133.46 334.41z" /></clipPath><clipPath id="31"><path d="M267.53 362.73L461.98 362.73L461.98 362.73L461.98 334.41L461.98 334.41L267.53 334.41z" /></clipPath><clipPath id="32"><path d="M267.53 362.73L461.98 362.73L461.98 362.73L461.98 334.41L461.98 334.41L267.53 334.41z" /></clipPath><clipPath id="33"><path d="M267.53 362.73L461.98 362.73L461.98 362.73L461.98 334.41L461.98 334.41L267.53 334.41z" /></clipPath><clipPath id="34"><path d="M267.53 362.73L461.98 362.73L461.98 362.73L461.98 334.41L461.98 334.41L267.53 334.41z" /></clipPath><clipPath id="35"><path d="M267.53 362.73L461.98 362.73L461.98 362.73L461.98 334.41L461.98 334.41L267.53 334.41z" /></clipPath><clipPath id="36"><path d="M133.46 391.53L267.52 391.53L267.52 391.53L267.52 363.21L267.52 363.21L133.46 363.21z" /></clipPath><clipPath id="37"><path d="M133.46 391.53L267.52 391.53L267.52 391.53L267.52 363.21L267.52 363.21L133.46 363.21z" /></clipPath><clipPath id="38"><path d="M133.46 391.53L267.52 391.53L267.52 391.53L267.52 363.21L267.52 363.21L133.46 363.21z" /></clipPath><clipPath id="39"><path d="M267.53 391.53L461.98 391.53L461.98 391.53L461.98 363.21L461.98 363.21L267.53 363.21z" /></clipPath><clipPath id="40"><path d="M267.53 391.53L461.98 391.53L461.98 391.53L461.98 363.21L461.98 363.21L267.53 363.21z" /></clipPath><clipPath id="41"><path d="M267.53 391.53L461.98 391.53L461.98 391.53L461.98 363.21L461.98 363.21L267.53 363.21z" /></clipPath><clipPath id="42"><path d="M267.53 391.53L461.98 391.53L461.98 391.53L461.98 363.21L461.98 363.21L267.53 363.21z" /></clipPath><clipPath id="43"><path d="M267.53 391.53L461.98 391.53L461.98 391.53L461.98 363.21L461.98 363.21L267.53 363.21z" /></clipPath><clipPath id="44"><path d="M133.46 453.83L267.52 453.83L267.52 453.83L267.52 392.126L267.52 392.126L133.46 392.126z" /></clipPath><clipPath id="45"><path d="M133.46 453.83L267.52 453.83L267.52 453.83L267.52 392.126L267.52 392.126L133.46 392.126z" /></clipPath><clipPath id="46"><path d="M133.46 453.83L267.52 453.83L267.52 453.83L267.52 392.126L267.52 392.126L133.46 392.126z" /></clipPath><clipPath id="47"><path d="M267.53 453.83L461.98 453.83L461.98 453.83L461.98 392.126L461.98 392.126L267.53 392.126z" /></clipPath><clipPath id="48"><path d="M267.53 453.83L461.98 453.83L461.98 453.83L461.98 392.126L461.98 392.126L267.53 392.126z" /></clipPath><clipPath id="49"><path d="M267.53 453.83L461.98 453.83L461.98 453.83L461.98 392.126L461.98 392.126L267.53 392.126z" /></clipPath><clipPath id="50"><path d="M267.53 453.83L461.98 453.83L461.98 453.83L461.98 392.126L461.98 392.126L267.53 392.126z" /></clipPath><clipPath id="51"><path d="M267.53 453.83L461.98 453.83L461.98 453.83L461.98 392.126L461.98 392.126L267.53 392.126z" /></clipPath><clipPath id="52"><path d="M267.53 453.83L461.98 453.83L461.98 453.83L461.98 392.126L461.98 392.126L267.53 392.126z" /></clipPath><clipPath id="53"><path d="M267.53 453.83L461.98 453.83L461.98 453.83L461.98 392.126L461.98 392.126L267.53 392.126z" /></clipPath><clipPath id="54"><path d="M267.53 453.83L461.98 453.83L461.98 453.83L461.98 392.126L461.98 392.126L267.53 392.126z" /></clipPath><clipPath id="55"><path d="M267.53 453.83L461.98 453.83L461.98 453.83L461.98 392.126L461.98 392.126L267.53 392.126z" /></clipPath><clipPath id="56"><path d="M267.53 453.83L461.98 453.83L461.98 453.83L461.98 392.126L461.98 392.126L267.53 392.126z" /></clipPath><clipPath id="57"><path d="M267.53 453.83L461.98 453.83L461.98 453.83L461.98 392.126L461.98 392.126L267.53 392.126z" /></clipPath><clipPath id="58"><path d="M267.53 453.83L461.98 453.83L461.98 453.83L461.98 392.126L461.98 392.126L267.53 392.126z" /></clipPath><clipPath id="59"><path d="M267.53 453.83L461.98 453.83L461.98 453.83L461.98 392.126L461.98 392.126L267.53 392.126z" /></clipPath><clipPath id="60"><path d="M133.46 482.75L267.52 482.75L267.52 482.75L267.52 454.31L267.52 454.31L133.46 454.31z" /></clipPath><clipPath id="61"><path d="M133.46 482.75L267.52 482.75L267.52 482.75L267.52 454.31L267.52 454.31L133.46 454.31z" /></clipPath><clipPath id="62"><path d="M133.46 482.75L267.52 482.75L267.52 482.75L267.52 454.31L267.52 454.31L133.46 454.31z" /></clipPath><clipPath id="63"><path d="M267.53 482.75L461.98 482.75L461.98 482.75L461.98 454.31L461.98 454.31L267.53 454.31z" /></clipPath><clipPath id="64"><path d="M267.53 482.75L461.98 482.75L461.98 482.75L461.98 454.31L461.98 454.31L267.53 454.31z" /></clipPath><clipPath id="65"><path d="M267.53 482.75L461.98 482.75L461.98 482.75L461.98 454.31L461.98 454.31L267.53 454.31z" /></clipPath><clipPath id="66"><path d="M267.53 482.75L461.98 482.75L461.98 482.75L461.98 454.31L461.98 454.31L267.53 454.31z" /></clipPath><clipPath id="67"><path d="M133.46 511.55L267.52 511.55L267.52 511.55L267.52 483.23L267.52 483.23L133.46 483.23z" /></clipPath><clipPath id="68"><path d="M133.46 511.55L267.52 511.55L267.52 511.55L267.52 483.23L267.52 483.23L133.46 483.23z" /></clipPath><clipPath id="69"><path d="M133.46 511.55L267.52 511.55L267.52 511.55L267.52 483.23L267.52 483.23L133.46 483.23z" /></clipPath><clipPath id="70"><path d="M267.53 511.55L461.98 511.55L461.98 511.55L461.98 483.23L461.98 483.23L267.53 483.23z" /></clipPath><clipPath id="71"><path d="M267.53 511.55L461.98 511.55L461.98 511.55L461.98 483.23L461.98 483.23L267.53 483.23z" /></clipPath><clipPath id="72"><path d="M267.53 511.55L461.98 511.55L461.98 511.55L461.98 483.23L461.98 483.23L267.53 483.23z" /></clipPath><clipPath id="73"><path d="M133.46 540.35L267.52 540.35L267.52 540.35L267.52 512.03L267.52 512.03L133.46 512.03z" /></clipPath><clipPath id="74"><path d="M133.46 540.35L267.52 540.35L267.52 540.35L267.52 512.03L267.52 512.03L133.46 512.03z" /></clipPath><clipPath id="75"><path d="M133.46 540.35L267.52 540.35L267.52 540.35L267.52 512.03L267.52 512.03L133.46 512.03z" /></clipPath><clipPath id="76"><path d="M267.53 540.35L461.98 540.35L461.98 540.35L461.98 512.03L461.98 512.03L267.53 512.03z" /></clipPath><clipPath id="77"><path d="M267.53 540.35L461.98 540.35L461.98 540.35L461.98 512.03L461.98 512.03L267.53 512.03z" /></clipPath><clipPath id="78"><path d="M267.53 540.35L461.98 540.35L461.98 540.35L461.98 512.03L461.98 512.03L267.53 512.03z" /></clipPath><clipPath id="79"><path d="M133.46 569.27L267.52 569.27L267.52 569.27L267.52 540.95L267.52 540.95L133.46 540.95z" /></clipPath><clipPath id="80"><path d="M133.46 569.27L267.52 569.27L267.52 569.27L267.52 540.95L267.52 540.95L133.46 540.95z" /></clipPath><clipPath id="81"><path d="M133.46 569.27L267.52 569.27L267.52 569.27L267.52 540.95L267.52 540.95L133.46 540.95z" /></clipPath><clipPath id="82"><path d="M267.53 569.27L461.98 569.27L461.98 569.27L461.98 540.95L461.98 540.95L267.53 540.95z" /></clipPath><clipPath id="83"><path d="M267.53 569.27L461.98 569.27L461.98 569.27L461.98 540.95L461.98 540.95L267.53 540.95z" /></clipPath><clipPath id="84"><path d="M267.53 569.27L461.98 569.27L461.98 569.27L461.98 540.95L461.98 540.95L267.53 540.95z" /></clipPath><clipPath id="85"><path d="M267.53 569.27L461.98 569.27L461.98 569.27L461.98 540.95L461.98 540.95L267.53 540.95z" /></clipPath><clipPath id="86"><path d="M133.46 598.07L267.52 598.07L267.52 598.07L267.52 569.75L267.52 569.75L133.46 569.75z" /></clipPath><clipPath id="87"><path d="M133.46 598.07L267.52 598.07L267.52 598.07L267.52 569.75L267.52 569.75L133.46 569.75z" /></clipPath><clipPath id="88"><path d="M133.46 598.07L267.52 598.07L267.52 598.07L267.52 569.75L267.52 569.75L133.46 569.75z" /></clipPath><clipPath id="89"><path d="M267.53 598.07L461.98 598.07L461.98 598.07L461.98 569.75L461.98 569.75L267.53 569.75z" /></clipPath><clipPath id="90"><path d="M267.53 598.07L461.98 598.07L461.98 598.07L461.98 569.75L461.98 569.75L267.53 569.75z" /></clipPath><clipPath id="91"><path d="M267.53 598.07L461.98 598.07L461.98 598.07L461.98 569.75L461.98 569.75L267.53 569.75z" /></clipPath><clipPath id="92"><path d="M133.46 627.02L267.52 627.02L267.52 627.02L267.52 598.556L267.52 598.556L133.46 598.556z" /></clipPath><clipPath id="93"><path d="M133.46 627.02L267.52 627.02L267.52 627.02L267.52 598.556L267.52 598.556L133.46 598.556z" /></clipPath><clipPath id="94"><path d="M133.46 627.02L267.52 627.02L267.52 627.02L267.52 598.556L267.52 598.556L133.46 598.556z" /></clipPath><clipPath id="95"><path d="M267.53 627.02L461.98 627.02L461.98 627.02L461.98 598.556L461.98 598.556L267.53 598.556z" /></clipPath><clipPath id="96"><path d="M267.53 627.02L461.98 627.02L461.98 627.02L461.98 598.556L461.98 598.556L267.53 598.556z" /></clipPath><clipPath id="97"><path d="M267.53 627.02L461.98 627.02L461.98 627.02L461.98 598.556L461.98 598.556L267.53 598.556z" /></clipPath><clipPath id="98"><path d="M267.53 627.02L461.98 627.02L461.98 627.02L461.98 598.556L461.98 598.556L267.53 598.556z" /></clipPath><clipPath id="99"><path d="M267.53 627.02L461.98 627.02L461.98 627.02L461.98 598.556L461.98 598.556L267.53 598.556z" /></clipPath><clipPath id="100"><path d="M267.53 627.02L461.98 627.02L461.98 627.02L461.98 598.556L461.98 598.556L267.53 598.556z" /></clipPath><clipPath id="101"><path d="M267.53 627.02L461.98 627.02L461.98 627.02L461.98 598.556L461.98 598.556L267.53 598.556z" /></clipPath><clipPath id="102"><path d="M267.53 627.02L461.98 627.02L461.98 627.02L461.98 598.556L461.98 598.556L267.53 598.556z" /></clipPath><clipPath id="103"><path d="M8.871E-06 841L595.32 841L595.32 841L595.32 -0.9199829L595.32 -0.9199829L8.871E-06 -0.9199829z" /></clipPath><clipPath id="104"><path d="M8.871E-06 841L595.32 841L595.32 841L595.32 -0.9199829L595.32 -0.9199829L8.871E-06 -0.9199829z" /></clipPath><clipPath id="105"><path d="M8.871E-06 841L595.32 841L595.32 841L595.32 -0.9199829L595.32 -0.9199829L8.871E-06 -0.9199829z" /></clipPath><clipPath id="106"><path d="M8.871E-06 841L595.32 841L595.32 841L595.32 -0.9199829L595.32 -0.9199829L8.871E-06 -0.9199829z" /></clipPath><clipPath id="107"><path d="M8.871E-06 841L595.32 841L595.32 841L595.32 -0.9199829L595.32 -0.9199829L8.871E-06 -0.9199829z" /></clipPath><clipPath id="108"><path d="M8.871E-06 841L595.32 841L595.32 841L595.32 -0.9199829L595.32 -0.9199829L8.871E-06 -0.9199829z" /></clipPath><clipPath id="109"><path d="M8.871E-06 841L595.32 841L595.32 841L595.32 -0.9199829L595.32 -0.9199829L8.871E-06 -0.9199829z" /></clipPath><clipPath id="110"><path d="M8.871E-06 841L595.32 841L595.32 841L595.32 -0.9199829L595.32 -0.9199829L8.871E-06 -0.9199829z" /></clipPath><clipPath id="111"><path d="M8.871E-06 841L595.32 841L595.32 841L595.32 -0.9199829L595.32 -0.9199829L8.871E-06 -0.9199829z" /></clipPath><clipPath id="112"><path d="M8.871E-06 841L595.32 841L595.32 841L595.32 -0.9199829L595.32 -0.9199829L8.871E-06 -0.9199829z" /></clipPath></defs><g transform="matrix(1.333333 0 0 1.333333 0 0)"><g><g clip-path="url(#1)"><g clip-path="url(#2)"></g><g clip-path="url(#3)"></g><g clip-path="url(#4)"></g><g clip-path="url(#5)"></g><g clip-path="url(#6)"></g><g clip-path="url(#7)"></g><g clip-path="url(#8)"></g><g clip-path="url(#9)"></g><g clip-path="url(#10)"></g><g clip-path="url(#11)"></g><g clip-path="url(#12)"></g><g clip-path="url(#13)"></g><g clip-path="url(#14)"></g><g clip-path="url(#15)"></g><g clip-path="url(#16)"></g><g clip-path="url(#17)"></g><g clip-path="url(#18)"></g><g clip-path="url(#19)"></g><g clip-path="url(#20)"></g><g clip-path="url(#21)"></g><g clip-path="url(#22)"></g><g clip-path="url(#23)"></g><g clip-path="url(#24)"></g><g clip-path="url(#25)"></g><g clip-path="url(#26)"></g><g clip-path="url(#27)"></g><g clip-path="url(#28)"><g clip-path="url(#29)"></g><g clip-path="url(#30)"></g></g><g clip-path="url(#31)"><g clip-path="url(#32)"></g><g clip-path="url(#33)"></g><g clip-path="url(#34)"></g><g clip-path="url(#35)"></g></g><g clip-path="url(#36)"><g clip-path="url(#37)"></g><g clip-path="url(#38)"></g></g><g clip-path="url(#39)"><g clip-path="url(#40)"></g><g clip-path="url(#41)"></g><g clip-path="url(#42)"></g><g clip-path="url(#43)"></g></g><path transform="matrix(1 0 0 -1 0 841)" d="M267.53 477.79L462.1 477.79L462.1 477.79L462.1 478.27L462.1 478.27L267.53 478.27z" stroke="none" fill="#000000" fill-rule="evenodd" /><g clip-path="url(#44)"><g clip-path="url(#45)"></g><g clip-path="url(#46)"></g></g><g clip-path="url(#47)"><g clip-path="url(#48)"></g><g clip-path="url(#49)"></g><g clip-path="url(#50)"></g><g clip-path="url(#51)"></g><path transform="matrix(1 0 0 -1 0 841)" d="M329.95 430.63L401.95 430.63L401.95 430.63L401.95 431.23L401.95 431.23L329.95 431.23z" stroke="none" fill="#000000" fill-rule="evenodd" /><g clip-path="url(#52)"></g><g clip-path="url(#53)"></g><g clip-path="url(#54)"></g><g clip-path="url(#55)"></g><path transform="matrix(1 0 0 -1 0 841)" d="M308.93 409.99L394.754 409.99L394.754 409.99L394.754 410.59L394.754 410.59L308.93 410.59z" stroke="none" fill="#000000" fill-rule="evenodd" /><g clip-path="url(#56)"></g><g clip-path="url(#57)"></g><g clip-path="url(#58)"></g><g clip-path="url(#59)"></g><path transform="matrix(1 0 0 -1 0 841)" d="M308.93 389.45L394.754 389.45L394.754 389.45L394.754 390.05L394.754 390.05L308.93 390.05z" stroke="none" fill="#000000" fill-rule="evenodd" /></g><path transform="matrix(1 0 0 -1 0 841)" d="M267.53 448.99L462.1 448.99L462.1 448.99L462.1 449.47L462.1 449.47L267.53 449.47z" stroke="none" fill="#000000" fill-rule="evenodd" /><g clip-path="url(#60)"><g clip-path="url(#61)"></g><g clip-path="url(#62)"></g></g><g clip-path="url(#63)"><g clip-path="url(#64)"></g><g clip-path="url(#65)"></g><g clip-path="url(#66)"></g></g><path transform="matrix(1 0 0 -1 0 841)" d="M267.53 386.69L462.1 386.69L462.1 386.69L462.1 387.17L462.1 387.17L267.53 387.17z" stroke="none" fill="#000000" fill-rule="evenodd" /><g clip-path="url(#67)"><g clip-path="url(#68)"></g><g clip-path="url(#69)"></g></g><g clip-path="url(#70)"><g clip-path="url(#71)"></g><g clip-path="url(#72)"></g></g><path transform="matrix(1 0 0 -1 0 841)" d="M267.53 357.77L462.1 357.77L462.1 357.77L462.1 358.25L462.1 358.25L267.53 358.25z" stroke="none" fill="#000000" fill-rule="evenodd" /><g clip-path="url(#73)"><g clip-path="url(#74)"></g><g clip-path="url(#75)"></g></g><g clip-path="url(#76)"><g clip-path="url(#77)"></g><g clip-path="url(#78)"></g></g><path transform="matrix(1 0 0 -1 0 841)" d="M267.53 328.97L462.1 328.97L462.1 328.97L462.1 329.45L462.1 329.45L267.53 329.45z" stroke="none" fill="#000000" fill-rule="evenodd" /><g clip-path="url(#79)"><g clip-path="url(#80)"></g><g clip-path="url(#81)"></g></g><g clip-path="url(#82)"><g clip-path="url(#83)"></g><g clip-path="url(#84)"></g><g clip-path="url(#85)"></g></g><path transform="matrix(1 0 0 -1 0 841)" d="M267.53 300.17L462.1 300.17L462.1 300.17L462.1 300.65L462.1 300.65L267.53 300.65z" stroke="none" fill="#000000" fill-rule="evenodd" /><g clip-path="url(#86)"><g clip-path="url(#87)"></g><g clip-path="url(#88)"></g></g><g clip-path="url(#89)"><g clip-path="url(#90)"></g><g clip-path="url(#91)"></g></g><path transform="matrix(1 0 0 -1 0 841)" d="M267.53 271.25L462.1 271.25L462.1 271.25L462.1 271.73L462.1 271.73L267.53 271.73z" stroke="none" fill="#000000" fill-rule="evenodd" /><g clip-path="url(#92)"><g clip-path="url(#93)"></g><g clip-path="url(#94)"></g></g><g clip-path="url(#95)"><g clip-path="url(#96)"></g><g clip-path="url(#97)"></g><g clip-path="url(#98)"></g><g clip-path="url(#99)"></g><g clip-path="url(#100)"></g><g clip-path="url(#101)"></g><g clip-path="url(#102)"></g></g><path transform="matrix(1 0 0 -1 0 841)" d="M267.53 242.45L462.1 242.45L462.1 242.45L462.1 242.93L462.1 242.93L267.53 242.93z" stroke="none" fill="#000000" fill-rule="evenodd" /><path transform="matrix(1 0 0 -1 0 841)" d="M266.81 213.5L462.1 213.5L462.1 213.5L462.1 213.98L462.1 213.98L266.81 213.98z" stroke="none" fill="#000000" fill-rule="evenodd" /><g clip-path="url(#103)"></g><g clip-path="url(#104)"></g><g clip-path="url(#105)"></g><g clip-path="url(#106)"></g><g clip-path="url(#107)"></g><g clip-path="url(#108)"></g><g clip-path="url(#109)"></g><g clip-path="url(#110)"></g><g clip-path="url(#111)"></g><g clip-path="url(#112)"></g></g></g></g></svg>